<?xml version="1.0" encoding="UTF-8" standalone="no"?>
<!-- Created with Inkscape (http://www.inkscape.org/) -->

<svg
   xmlns:dc="http://purl.org/dc/elements/1.1/"
   xmlns:cc="http://creativecommons.org/ns#"
   xmlns:rdf="http://www.w3.org/1999/02/22-rdf-syntax-ns#"
   xmlns:svg="http://www.w3.org/2000/svg"
   xmlns="http://www.w3.org/2000/svg"
   xmlns:sodipodi="http://sodipodi.sourceforge.net/DTD/sodipodi-0.dtd"
   xmlns:inkscape="http://www.inkscape.org/namespaces/inkscape"
   width="301.50006"
   height="158.26297"
   viewBox="0 0 79.771891 41.873744"
   version="1.1"
   id="svg864"
   inkscape:version="0.92.2 (5c3e80d, 2017-08-06)"
   sodipodi:docname="img3-nodetype.svg">
  <defs
     id="defs858" />
  <sodipodi:namedview
     id="base"
     pagecolor="#ffffff"
     bordercolor="#666666"
     borderopacity="1.0"
     inkscape:pageopacity="0.0"
     inkscape:pageshadow="2"
     inkscape:zoom="1.6396038"
     inkscape:cx="371.53463"
     inkscape:cy="-55.453361"
     inkscape:document-units="px"
     inkscape:current-layer="layer1"
     showgrid="false"
     units="px"
     fit-margin-top="5"
     fit-margin-left="5"
     fit-margin-right="5"
     fit-margin-bottom="5"
     inkscape:window-width="1920"
     inkscape:window-height="1018"
     inkscape:window-x="-8"
     inkscape:window-y="-8"
     inkscape:window-maximized="1" />
  <metadata
     id="metadata861">
    <rdf:RDF>
      <cc:Work
         rdf:about="">
        <dc:format>image/svg+xml</dc:format>
        <dc:type
           rdf:resource="http://purl.org/dc/dcmitype/StillImage" />
        <dc:title></dc:title>
      </cc:Work>
    </rdf:RDF>
  </metadata>
  <g
     inkscape:label="Layer 1"
     inkscape:groupmode="layer"
     id="layer1"
     transform="translate(-3.0179181,-85.27787)">
    <path
       style="fill:none;stroke:#000000;stroke-width:0.26458332px;stroke-linecap:butt;stroke-linejoin:miter;stroke-opacity:1"
       d="m 8.8217302,99.920314 c 1.7563098,-5.36309 4.4691998,-10.32568 7.8134598,-6.69727 5.11858,-4.11075 5.8016,1.86037 6.07715,6.821286"
       id="path2662"
       inkscape:connector-curvature="0"
       sodipodi:nodetypes="ccc" />
    <path
       transform="rotate(-45)"
       style="fill:none;stroke:#000000;stroke-width:0.13229166;stroke-opacity:1"
       d="m -54.631546,77.205879 h 0.951395 v 0.951395 h -0.951395 z"
       id="rect2668" />
    <path
       style="opacity:1;vector-effect:none;fill:none;fill-opacity:1;stroke:#9b9bff;stroke-width:0.13229169;stroke-linecap:butt;stroke-linejoin:miter;stroke-miterlimit:4;stroke-dasharray:none;stroke-dashoffset:0;stroke-opacity:1"
       d="m 13.29093,89.594634 3.34426,3.62841 5.11858,-4.11075"
       id="path2670"
       inkscape:connector-curvature="0" />
    <path
       style="fill:none;stroke:#9b9bff;stroke-width:0.13229166;stroke-opacity:1"
       d="m 13.797628,89.594681 a 0.50672102,0.50672102 0 0 1 -0.506721,0.506721 0.50672102,0.50672102 0 0 1 -0.506721,-0.506721 0.50672102,0.50672102 0 0 1 0.506721,-0.506721 0.50672102,0.50672102 0 0 1 0.506721,0.506721 z"
       id="circle2686" />
    <path
       style="fill:none;stroke:#9b9bff;stroke-width:0.13229166;stroke-opacity:1"
       d="m 22.260473,89.112343 a 0.50672102,0.50672102 0 0 1 -0.506721,0.506721 0.50672102,0.50672102 0 0 1 -0.506721,-0.506721 0.50672102,0.50672102 0 0 1 0.506721,-0.506721 0.50672102,0.50672102 0 0 1 0.506721,0.506721 z"
       id="circle2688" />
    <path
       transform="rotate(-45)"
       style="fill:none;stroke:#000000;stroke-width:0.13229166;stroke-opacity:1"
       d="m -64.773254,76.535515 h 0.713546 v 0.713546 h -0.713546 z"
       id="rect2692" />
    <path
       transform="rotate(-45)"
       style="fill:none;stroke:#000000;stroke-width:0.13229166;stroke-opacity:1"
       d="m -55.038803,86.445351 h 0.713546 v 0.713546 h -0.713546 z"
       id="rect2694" />
    <path
       sodipodi:nodetypes="csc"
       inkscape:connector-curvature="0"
       id="path2704"
       d="m 35.941581,99.920314 c 1.756309,-5.36309 2.596189,-6.43782 7.813461,-6.69727 8.618029,-0.42853 5.801598,1.86037 6.077148,6.821286"
       style="fill:none;stroke:#000000;stroke-width:0.26458332px;stroke-linecap:butt;stroke-linejoin:miter;stroke-opacity:1" />
    <path
       transform="rotate(-90)"
       style="fill:none;stroke:#000000;stroke-width:0.13229166;stroke-opacity:1"
       d="m -93.698776,43.27919 h 0.951394 v 0.951395 h -0.951394 z"
       id="rect2706" />
    <path
       transform="rotate(-45)"
       style="fill:none;stroke:#000000;stroke-width:0.13229166;stroke-opacity:1"
       d="m -45.596695,95.71209 h 0.713546 v 0.713545 h -0.713546 z"
       id="rect2708" />
    <path
       transform="rotate(-45)"
       style="fill:none;stroke:#000000;stroke-width:0.13229166;stroke-opacity:1"
       d="m -35.862221,105.62195 h 0.713546 v 0.71354 h -0.713546 z"
       id="rect2710" />
    <path
       style="opacity:1;vector-effect:none;fill:none;fill-opacity:1;stroke:#9b9bff;stroke-width:0.13229169;stroke-linecap:butt;stroke-linejoin:miter;stroke-miterlimit:4;stroke-dasharray:none;stroke-dashoffset:0;stroke-opacity:1"
       d="m 43.755042,93.223044 -5.217311,0.25943"
       id="path2712"
       inkscape:connector-curvature="0"
       sodipodi:nodetypes="cc" />
    <path
       inkscape:connector-curvature="0"
       id="path2714"
       d="m 52.373071,92.794514 -8.618029,0.42853"
       style="opacity:1;vector-effect:none;fill:none;fill-opacity:1;stroke:#9b9bff;stroke-width:0.13229169;stroke-linecap:butt;stroke-linejoin:miter;stroke-miterlimit:4;stroke-dasharray:none;stroke-dashoffset:0;stroke-opacity:1"
       sodipodi:nodetypes="cc" />
    <path
       style="fill:none;stroke:#9b9bff;stroke-width:0.13229166;stroke-opacity:1"
       d="m 52.879585,92.794586 a 0.50672102,0.50672102 0 0 1 -0.506721,0.506721 0.50672102,0.50672102 0 0 1 -0.506721,-0.506721 0.50672102,0.50672102 0 0 1 0.506721,-0.506721 0.50672102,0.50672102 0 0 1 0.506721,0.506721 z"
       id="circle2730" />
    <path
       style="fill:none;stroke:#9b9bff;stroke-width:0.13229166;stroke-opacity:1"
       d="m 39.044288,93.482513 a 0.50672102,0.50672102 0 0 1 -0.506721,0.506721 0.50672102,0.50672102 0 0 1 -0.506721,-0.506721 0.50672102,0.50672102 0 0 1 0.506721,-0.506721 0.50672102,0.50672102 0 0 1 0.506721,0.506721 z"
       id="circle2732" />
    <path
       style="fill:none;stroke:#000000;stroke-width:0.26458332px;stroke-linecap:butt;stroke-linejoin:miter;stroke-opacity:1"
       d="m 8.5077602,118.07807 c 1.7563098,-5.36309 1.9932198,-6.21859 7.8134598,-6.69726 5.82025,-0.47867 5.8016,1.86036 6.07715,6.82127"
       id="path2734"
       inkscape:connector-curvature="0"
       sodipodi:nodetypes="czc" />
    <path
       transform="rotate(-90)"
       style="fill:none;stroke:#000000;stroke-width:0.13229166;stroke-opacity:1"
       d="m -111.85637,15.846373 h 0.9514 v 0.951394 h -0.9514 z"
       id="rect2736" />
    <path
       transform="rotate(-45)"
       style="fill:none;stroke:#000000;stroke-width:0.13229166;stroke-opacity:1"
       d="m -77.834335,89.15313 h 0.713546 v 0.713545 h -0.713546 z"
       id="rect2738" />
    <path
       transform="rotate(-45)"
       style="fill:none;stroke:#000000;stroke-width:0.13229166;stroke-opacity:1"
       d="m -68.099869,99.062965 h 0.713546 v 0.713546 h -0.713546 z"
       id="rect2740" />
    <path
       sodipodi:nodetypes="cc"
       inkscape:connector-curvature="0"
       id="path2742"
       d="m 16.32122,111.38081 -5.82024,0.47867"
       style="opacity:1;vector-effect:none;fill:none;fill-opacity:1;stroke:#9b9bff;stroke-width:0.13229169;stroke-linecap:butt;stroke-linejoin:miter;stroke-miterlimit:4;stroke-dasharray:none;stroke-dashoffset:0;stroke-opacity:1" />
    <path
       style="fill:none;stroke:#9b9bff;stroke-width:0.13229166;stroke-opacity:1"
       d="m 22.648946,110.90208 a 0.50672102,0.50672102 0 0 1 -0.506721,0.50672 0.50672102,0.50672102 0 0 1 -0.506721,-0.50672 0.50672102,0.50672102 0 0 1 0.506721,-0.50672 0.50672102,0.50672102 0 0 1 0.506721,0.50672 z"
       id="circle2746" />
    <path
       style="fill:none;stroke:#9b9bff;stroke-width:0.13229166;stroke-opacity:1"
       d="m 11.008459,111.85941 a 0.50672102,0.50672102 0 0 1 -0.506721,0.50672 0.50672102,0.50672102 0 0 1 -0.5067214,-0.50672 0.50672102,0.50672102 0 0 1 0.5067214,-0.50672 0.50672102,0.50672102 0 0 1 0.506721,0.50672 z"
       id="circle2748" />
    <path
       style="opacity:1;vector-effect:none;fill:none;fill-opacity:1;stroke:#9b9bff;stroke-width:0.13229169;stroke-linecap:butt;stroke-linejoin:miter;stroke-miterlimit:4;stroke-dasharray:none;stroke-dashoffset:0;stroke-opacity:1"
       d="m 22.14147,110.90212 -5.82025,0.47869"
       id="path2750"
       inkscape:connector-curvature="0"
       sodipodi:nodetypes="cc" />
    <path
       sodipodi:nodetypes="cac"
       inkscape:connector-curvature="0"
       id="path2752"
       d="m 36.818251,118.07807 c 1.75631,-5.36309 4.390898,-6.9276 7.81348,-6.69726 3.038369,0.20449 5.8016,1.86036 6.077151,6.82127"
       style="fill:none;stroke:#000000;stroke-width:0.26458332px;stroke-linecap:butt;stroke-linejoin:miter;stroke-opacity:1" />
    <path
       transform="rotate(-45)"
       style="fill:none;stroke:#000000;stroke-width:0.13229166;stroke-opacity:1"
       d="m -57.815857,109.17158 h 0.713546 v 0.71354 h -0.713546 z"
       id="rect2756" />
    <path
       transform="rotate(-45)"
       style="fill:none;stroke:#000000;stroke-width:0.13229166;stroke-opacity:1"
       d="m -48.081383,119.0814 h 0.713546 v 0.71354 h -0.713546 z"
       id="rect2758" />
    <path
       style="opacity:1;vector-effect:none;fill:none;fill-opacity:1;stroke:#9b9bff;stroke-width:0.13229169;stroke-linecap:butt;stroke-linejoin:miter;stroke-miterlimit:4;stroke-dasharray:none;stroke-dashoffset:0;stroke-opacity:1"
       d="m 44.631731,111.38081 -3.525819,-0.20345"
       id="path2760"
       inkscape:connector-curvature="0"
       sodipodi:nodetypes="cc" />
    <path
       style="fill:none;stroke:#9b9bff;stroke-width:0.13229166;stroke-opacity:1"
       d="m 48.664924,111.5842 a 0.50672102,0.50672102 0 0 1 -0.506721,0.50672 0.50672102,0.50672102 0 0 1 -0.506721,-0.50672 0.50672102,0.50672102 0 0 1 0.506721,-0.50672 0.50672102,0.50672102 0 0 1 0.506721,0.50672 z"
       id="circle2762" />
    <path
       style="fill:none;stroke:#9b9bff;stroke-width:0.13229166;stroke-opacity:1"
       d="m 41.613315,111.17731 a 0.50672102,0.50672102 0 0 1 -0.506721,0.50672 0.50672102,0.50672102 0 0 1 -0.506721,-0.50672 0.50672102,0.50672102 0 0 1 0.506721,-0.50672 0.50672102,0.50672102 0 0 1 0.506721,0.50672 z"
       id="circle2764" />
    <path
       sodipodi:nodetypes="cc"
       inkscape:connector-curvature="0"
       id="path2768"
       d="m 48.157531,111.58424 -3.5258,-0.20343"
       style="opacity:1;vector-effect:none;fill:none;fill-opacity:1;stroke:#9b9bff;stroke-width:0.13229169;stroke-linecap:butt;stroke-linejoin:miter;stroke-miterlimit:4;stroke-dasharray:none;stroke-dashoffset:0;stroke-opacity:1" />
    <path
       style="fill:none;stroke:#000000;stroke-width:0.26458332px;stroke-linecap:butt;stroke-linejoin:miter;stroke-opacity:1"
       d="m 62.0412,99.920414 7.813461,-6.69727 c 3.839638,-3.2911 5.801601,1.86037 6.077151,6.821286"
       id="path2770"
       inkscape:connector-curvature="0"
       sodipodi:nodetypes="csc" />
    <path
       transform="rotate(-90)"
       style="fill:none;stroke:#000000;stroke-width:0.13229166;stroke-opacity:1"
       d="m -93.698883,69.378433 h 0.951395 v 0.951395 h -0.951395 z"
       id="rect2772" />
    <path
       transform="rotate(-45)"
       style="fill:none;stroke:#000000;stroke-width:0.13229166;stroke-opacity:1"
       d="m -27.141588,114.16718 h 0.713546 v 0.71355 h -0.713546 z"
       id="rect2774" />
    <path
       transform="rotate(-45)"
       style="fill:none;stroke:#000000;stroke-width:0.13229166;stroke-opacity:1"
       d="m -17.407133,124.07704 h 0.713546 v 0.71355 h -0.713546 z"
       id="rect2776" />
    <path
       sodipodi:nodetypes="cc"
       inkscape:connector-curvature="0"
       id="path2778"
       d="m 73.555121,90.051344 -3.70041,3.17175"
       style="opacity:1;vector-effect:none;fill:none;fill-opacity:1;stroke:#9b9bff;stroke-width:0.13229169;stroke-linecap:butt;stroke-linejoin:miter;stroke-miterlimit:4;stroke-dasharray:none;stroke-dashoffset:0;stroke-opacity:1" />
    <path
       style="fill:none;stroke:#9b9bff;stroke-width:0.13229166;stroke-opacity:1"
       d="m 74.061256,90.051422 a 0.50672102,0.50672102 0 0 1 -0.506721,0.506721 0.50672102,0.50672102 0 0 1 -0.506721,-0.506721 0.50672102,0.50672102 0 0 1 0.506721,-0.506721 0.50672102,0.50672102 0 0 1 0.506721,0.506721 z"
       id="circle2782" />
    <path
       style="opacity:1;vector-effect:none;fill:none;fill-opacity:1;fill-rule:evenodd;stroke:#808080;stroke-width:0.26458332;stroke-linecap:square;stroke-linejoin:miter;stroke-miterlimit:4;stroke-dasharray:none;stroke-dashoffset:0;stroke-opacity:1;paint-order:markers stroke fill"
       d="M 7.0131266,86.733078 H 78.794599 c 1.40716,0 2.54,1.13284 2.54,2.54 v 33.883332 c 0,1.40716 -1.13284,2.54 -2.54,2.54 H 7.0131266 c -1.4071601,0 -2.5400002,-1.13284 -2.5400002,-2.54 V 89.273078 c 0,-1.40716 1.1328401,-2.54 2.5400002,-2.54 z"
       id="rect2788" />
    <g
       aria-label="Corner"
       style="font-style:normal;font-variant:normal;font-weight:normal;font-stretch:normal;font-size:3.17499995px;line-height:1.25;font-family:Roboto;-inkscape-font-specification:'Roboto, Normal';font-variant-ligatures:normal;font-variant-position:normal;font-variant-caps:normal;font-variant-numeric:normal;font-variant-alternates:normal;font-feature-settings:normal;text-indent:0;text-align:start;text-decoration:none;text-decoration-line:none;text-decoration-style:solid;text-decoration-color:#000000;letter-spacing:0px;word-spacing:0px;text-transform:none;writing-mode:lr-tb;direction:ltr;text-orientation:mixed;dominant-baseline:auto;baseline-shift:baseline;text-anchor:start;white-space:normal;shape-padding:0;opacity:1;vector-effect:none;fill:#000000;fill-opacity:1;stroke:none;stroke-width:0.26458332;stroke-linecap:butt;stroke-linejoin:miter;stroke-miterlimit:4;stroke-dasharray:none;stroke-dashoffset:0;stroke-opacity:1"
       id="text2792">
      <path
         d="m 12.891249,104.22809 q -0.04186,0.35811 -0.2651,0.55345 -0.221692,0.19379 -0.590662,0.19379 -0.399976,0 -0.641821,-0.28681 -0.240296,-0.2868 -0.240296,-0.76739 v -0.21704 q 0,-0.31471 0.111621,-0.55346 0.113172,-0.23874 0.319361,-0.36587 0.206189,-0.12867 0.47749,-0.12867 0.359668,0 0.576709,0.20154 0.217041,0.19998 0.252698,0.555 h -0.299207 q -0.03876,-0.26975 -0.168982,-0.39067 -0.128674,-0.12093 -0.361218,-0.12093 -0.285254,0 -0.448035,0.21084 -0.16123,0.21084 -0.16123,0.59997 v 0.21859 q 0,0.36742 0.153479,0.58446 0.153479,0.21704 0.429431,0.21704 0.248047,0 0.379822,-0.11162 0.133325,-0.11317 0.176733,-0.39222 z"
         style="stroke-width:0.26458332"
         id="path2882" />
      <path
         d="m 13.174952,104.09011 q 0,-0.2465 0.09612,-0.44338 0.09767,-0.19689 0.26975,-0.30386 0.173633,-0.10697 0.395325,-0.10697 0.342615,0 0.553455,0.23719 0.21239,0.2372 0.21239,0.63097 v 0.0202 q 0,0.24494 -0.09457,0.44028 -0.09302,0.19379 -0.268201,0.30231 -0.173632,0.10852 -0.399975,0.10852 -0.341065,0 -0.553455,-0.2372 -0.21084,-0.23719 -0.21084,-0.62787 z m 0.288355,0.0341 q 0,0.27905 0.128674,0.44803 0.130225,0.16898 0.347266,0.16898 0.218591,0 0.347265,-0.17053 0.128675,-0.17208 0.128675,-0.48059 0,-0.27595 -0.131775,-0.44649 -0.130225,-0.17208 -0.347266,-0.17208 -0.21239,0 -0.342615,0.16898 -0.130224,0.16899 -0.130224,0.4837 z"
         style="stroke-width:0.26458332"
         id="path2884" />
      <path
         d="m 15.872462,103.52425 q -0.06511,-0.0108 -0.141077,-0.0108 -0.282153,0 -0.382922,0.2403 v 1.19062 h -0.286804 v -1.67742 h 0.279053 l 0.0046,0.19379 q 0.141077,-0.22479 0.399976,-0.22479 0.08372,0 0.127124,0.0217 z"
         style="stroke-width:0.26458332"
         id="path2886" />
      <path
         d="m 16.405763,103.2669 0.0093,0.21084 q 0.192237,-0.24184 0.502295,-0.24184 0.531751,0 0.536402,0.59996 v 1.10846 h -0.286804 v -1.11001 q -0.0016,-0.18138 -0.08372,-0.2682 -0.08062,-0.0868 -0.252698,-0.0868 -0.139526,0 -0.244946,0.0744 -0.10542,0.0744 -0.164331,0.19533 v 1.19528 h -0.286805 v -1.67742 z"
         style="stroke-width:0.26458332"
         id="path2888" />
      <path
         d="m 18.585474,104.97533 q -0.341064,0 -0.555004,-0.22325 -0.213941,-0.22479 -0.213941,-0.59996 v -0.0527 q 0,-0.2496 0.09457,-0.44493 0.09612,-0.19689 0.26665,-0.30696 0.172083,-0.11162 0.372071,-0.11162 0.327111,0 0.508496,0.21549 0.181384,0.21549 0.181384,0.61702 v 0.11937 h -1.136365 q 0.0062,0.24804 0.144178,0.40152 0.139526,0.15193 0.353466,0.15193 0.151929,0 0.257349,-0.062 0.10542,-0.062 0.184485,-0.16433 l 0.175183,0.13643 q -0.21084,0.32401 -0.63252,0.32401 z m -0.03566,-1.50379 q -0.173633,0 -0.291455,0.12713 -0.117823,0.12557 -0.145728,0.35346 h 0.840259 v -0.0217 q -0.0124,-0.21859 -0.117822,-0.33796 -0.10542,-0.12093 -0.285254,-0.12093 z"
         style="stroke-width:0.26458332"
         id="path2890" />
      <path
         d="m 20.380714,103.52425 q -0.06511,-0.0108 -0.141076,-0.0108 -0.282154,0 -0.382923,0.2403 v 1.19062 h -0.286804 v -1.67742 h 0.279053 l 0.0047,0.19379 q 0.141076,-0.22479 0.399975,-0.22479 0.08372,0 0.127124,0.0217 z"
         style="stroke-width:0.26458332"
         id="path2892" />
    </g>
    <g
       aria-label="Smooth"
       style="font-style:normal;font-variant:normal;font-weight:normal;font-stretch:normal;font-size:3.17499995px;line-height:1.25;font-family:Roboto;-inkscape-font-specification:'Roboto, Normal';font-variant-ligatures:normal;font-variant-position:normal;font-variant-caps:normal;font-variant-numeric:normal;font-variant-alternates:normal;font-feature-settings:normal;text-indent:0;text-align:start;text-decoration:none;text-decoration-line:none;text-decoration-style:solid;text-decoration-color:#000000;letter-spacing:0px;word-spacing:0px;text-transform:none;writing-mode:lr-tb;direction:ltr;text-orientation:mixed;dominant-baseline:auto;baseline-shift:baseline;text-anchor:start;white-space:normal;shape-padding:0;opacity:1;vector-effect:none;fill:#000000;fill-opacity:1;stroke:none;stroke-width:0.26458332;stroke-linecap:butt;stroke-linejoin:miter;stroke-miterlimit:4;stroke-dasharray:none;stroke-dashoffset:0;stroke-opacity:1"
       id="text2798">
      <path
         d="m 38.434686,104.0822 q -0.382923,-0.11007 -0.558106,-0.26975 -0.173633,-0.16123 -0.173633,-0.39688 0,-0.26665 0.21239,-0.44028 0.213941,-0.17518 0.555005,-0.17518 0.232544,0 0.413928,0.0899 0.182935,0.0899 0.282154,0.24804 0.100769,0.15813 0.100769,0.34572 h -0.299207 q 0,-0.20464 -0.130224,-0.32091 -0.130225,-0.11783 -0.36742,-0.11783 -0.220141,0 -0.344165,0.0977 -0.122473,0.0961 -0.122473,0.2682 0,0.13798 0.116272,0.2341 0.117822,0.0946 0.398425,0.17363 0.282154,0.0791 0.440284,0.17518 0.15968,0.0946 0.235644,0.2217 0.07751,0.12712 0.07751,0.2992 0,0.2744 -0.213941,0.44029 -0.21394,0.16433 -0.572058,0.16433 -0.232544,0 -0.434082,-0.0884 -0.201538,-0.0899 -0.311609,-0.24495 -0.10852,-0.15503 -0.10852,-0.35191 h 0.299206 q 0,0.20464 0.150379,0.32401 0.151928,0.11782 0.404626,0.11782 0.235645,0 0.361218,-0.0961 0.125574,-0.0961 0.125574,-0.262 0,-0.16588 -0.116272,-0.2558 -0.116272,-0.0915 -0.421679,-0.17983 z"
         style="stroke-width:0.26458332"
         id="path2869" />
      <path
         d="m 39.879559,103.41092 0.0078,0.18604 q 0.184485,-0.21704 0.497644,-0.21704 0.351917,0 0.479041,0.26975 0.08371,-0.12092 0.217041,-0.19534 0.134875,-0.0744 0.31781,-0.0744 0.551904,0 0.561206,0.58446 v 1.12396 h -0.286804 v -1.10691 q 0,-0.17983 -0.08217,-0.2682 -0.08217,-0.0899 -0.275952,-0.0899 -0.15968,0 -0.2651,0.0961 -0.10542,0.0946 -0.122473,0.2558 v 1.11311 h -0.288355 v -1.09916 q 0,-0.36587 -0.358118,-0.36587 -0.282153,0 -0.386022,0.2403 v 1.22473 h -0.286805 v -1.67742 z"
         style="stroke-width:0.26458332"
         id="path2871" />
      <path
         d="m 42.318169,104.23413 q 0,-0.2465 0.09612,-0.44338 0.09767,-0.19689 0.269751,-0.30386 0.173633,-0.10697 0.395325,-0.10697 0.342615,0 0.553455,0.23719 0.21239,0.2372 0.21239,0.63097 v 0.0202 q 0,0.24494 -0.09457,0.44028 -0.09302,0.19379 -0.268201,0.30231 -0.173633,0.10852 -0.399975,0.10852 -0.341065,0 -0.553455,-0.2372 -0.21084,-0.23719 -0.21084,-0.62787 z m 0.288355,0.0341 q 0,0.27905 0.128674,0.44803 0.130225,0.16898 0.347266,0.16898 0.218591,0 0.347265,-0.17053 0.128675,-0.17208 0.128675,-0.48059 0,-0.27595 -0.131775,-0.44649 -0.130225,-0.17208 -0.347266,-0.17208 -0.21239,0 -0.342615,0.16898 -0.130224,0.16899 -0.130224,0.4837 z"
         style="stroke-width:0.26458332"
         id="path2873" />
      <path
         d="m 44.128912,104.23413 q 0,-0.2465 0.09612,-0.44338 0.09767,-0.19689 0.269751,-0.30386 0.173633,-0.10697 0.395324,-0.10697 0.342615,0 0.553455,0.23719 0.21239,0.2372 0.21239,0.63097 v 0.0202 q 0,0.24494 -0.09457,0.44028 -0.09302,0.19379 -0.2682,0.30231 -0.173633,0.10852 -0.399976,0.10852 -0.341064,0 -0.553455,-0.2372 -0.210839,-0.23719 -0.210839,-0.62787 z m 0.288354,0.0341 q 0,0.27905 0.128674,0.44803 0.130225,0.16898 0.347266,0.16898 0.218591,0 0.347266,-0.17053 0.128674,-0.17208 0.128674,-0.48059 0,-0.27595 -0.131775,-0.44649 -0.130225,-0.17208 -0.347266,-0.17208 -0.21239,0 -0.342614,0.16898 -0.130225,0.16899 -0.130225,0.4837 z"
         style="stroke-width:0.26458332"
         id="path2875" />
      <path
         d="m 46.404742,103.00475 v 0.40617 h 0.313159 v 0.2217 h -0.313159 v 1.04024 q 0,0.10077 0.04186,0.15193 0.04186,0.0496 0.142627,0.0496 0.04961,0 0.136425,-0.0186 v 0.23254 q -0.113171,0.031 -0.220141,0.031 -0.192236,0 -0.289905,-0.11628 -0.09767,-0.11627 -0.09767,-0.33021 v -1.04024 H 45.81253 v -0.2217 h 0.305408 v -0.40617 z"
         style="stroke-width:0.26458332"
         id="path2877" />
      <path
         d="m 47.338017,103.61401 q 0.190686,-0.23409 0.496094,-0.23409 0.531751,0 0.536402,0.59996 v 1.10846 h -0.286805 v -1.11001 q -0.0016,-0.18138 -0.08371,-0.2682 -0.08062,-0.0868 -0.252698,-0.0868 -0.139527,0 -0.244946,0.0744 -0.10542,0.0744 -0.164332,0.19533 v 1.19528 h -0.286804 v -2.38125 h 0.286804 z"
         style="stroke-width:0.26458332"
         id="path2879" />
    </g>
    <g
       aria-label=" (Half-smooth)"
       style="font-style:normal;font-variant:normal;font-weight:normal;font-stretch:normal;font-size:3.17499995px;line-height:1.25;font-family:Roboto;-inkscape-font-specification:'Roboto, Normal';font-variant-ligatures:normal;font-variant-position:normal;font-variant-caps:normal;font-variant-numeric:normal;font-variant-alternates:normal;font-feature-settings:normal;text-indent:0;text-align:start;text-decoration:none;text-decoration-line:none;text-decoration-style:solid;text-decoration-color:#000000;letter-spacing:0px;word-spacing:0px;text-transform:none;writing-mode:lr-tb;direction:ltr;text-orientation:mixed;dominant-baseline:auto;baseline-shift:baseline;text-anchor:start;white-space:normal;shape-padding:0;opacity:1;vector-effect:none;fill:#000000;fill-opacity:1;stroke:none;stroke-width:0.26458332;stroke-linecap:butt;stroke-linejoin:miter;stroke-miterlimit:4;stroke-dasharray:none;stroke-dashoffset:0;stroke-opacity:1"
       id="text2806">
      <path
         d="m 60.908701,104.17212 q 0,-0.35037 0.09302,-0.67283 0.09457,-0.32246 0.280603,-0.58601 0.186035,-0.26355 0.386023,-0.37207 l 0.05891,0.18914 q -0.226343,0.17363 -0.37207,0.5302 -0.144177,0.35656 -0.15813,0.7984 l -0.0016,0.13177 q 0,0.59841 0.218591,1.0387 0.131775,0.26355 0.313159,0.41238 l -0.05891,0.17518 q -0.206189,-0.11472 -0.393774,-0.38447 -0.365869,-0.5271 -0.365869,-1.26039 z"
         style="stroke-width:0.26458332"
         id="path2842" />
      <path
         d="m 63.784494,105.08834 h -0.299207 v -1.04335 h -1.137915 v 1.04335 h -0.297656 v -2.25723 h 0.297656 v 0.97049 h 1.137915 v -0.97049 h 0.299207 z"
         style="stroke-width:0.26458332"
         id="path2844" />
      <path
         d="m 65.303781,105.08834 q -0.0248,-0.0496 -0.04031,-0.17673 -0.199988,0.20774 -0.477491,0.20774 -0.248046,0 -0.407727,-0.13953 -0.158129,-0.14108 -0.158129,-0.35657 0,-0.262 0.198437,-0.40617 0.199988,-0.14573 0.561206,-0.14573 h 0.279053 v -0.13178 q 0,-0.15037 -0.08992,-0.23874 -0.08992,-0.0899 -0.2651,-0.0899 -0.153479,0 -0.257349,0.0775 -0.10387,0.0775 -0.10387,0.18758 h -0.288354 q 0,-0.12557 0.08837,-0.24184 0.08992,-0.11783 0.241845,-0.18604 0.153479,-0.0682 0.336414,-0.0682 0.289905,0 0.454236,0.14573 0.164331,0.14417 0.170532,0.39842 v 0.77205 q 0,0.23099 0.05891,0.36742 v 0.0248 z m -0.47594,-0.21859 q 0.134876,0 0.255799,-0.0698 0.120923,-0.0698 0.175183,-0.18139 v -0.34416 H 65.03403 q -0.527099,0 -0.527099,0.30851 0,0.13487 0.08992,0.21084 0.08992,0.076 0.230993,0.076 z"
         style="stroke-width:0.26458332"
         id="path2846" />
      <path
         d="m 66.309921,105.08834 h -0.286804 v -2.38125 h 0.286804 z"
         style="stroke-width:0.26458332"
         id="path2848" />
      <path
         d="m 66.908334,105.08834 v -1.45572 h -0.2651 v -0.2217 h 0.2651 v -0.17208 q 0,-0.26975 0.144178,-0.41703 0.144177,-0.14728 0.407727,-0.14728 0.09922,0 0.196887,0.0264 l -0.0155,0.23254 q -0.07286,-0.014 -0.155029,-0.014 -0.139527,0 -0.215491,0.0822 -0.07596,0.0806 -0.07596,0.23254 v 0.17673 h 0.358117 v 0.2217 h -0.358117 v 1.45572 z"
         style="stroke-width:0.26458332"
         id="path2850" />
      <path
         d="m 68.467929,104.24653 h -0.756543 v -0.23409 h 0.756543 z"
         style="stroke-width:0.26458332"
         id="path2852" />
      <path
         d="m 69.722116,104.64341 q 0,-0.11628 -0.08837,-0.17984 -0.08682,-0.0651 -0.305408,-0.11162 -0.217041,-0.0465 -0.345715,-0.11162 -0.127124,-0.0651 -0.189136,-0.15503 -0.06046,-0.0899 -0.06046,-0.21394 0,-0.20619 0.173632,-0.34882 0.175183,-0.14262 0.446485,-0.14262 0.285254,0 0.461987,0.14728 0.178284,0.14727 0.178284,0.37672 h -0.288355 q 0,-0.11783 -0.100769,-0.20309 -0.09922,-0.0853 -0.251147,-0.0853 -0.15658,0 -0.244947,0.0682 -0.08837,0.0682 -0.08837,0.17828 0,0.10387 0.08217,0.15658 0.08217,0.0527 0.296106,0.10077 0.215491,0.0481 0.348816,0.11472 0.133325,0.0667 0.196887,0.16123 0.06511,0.093 0.06511,0.22789 0,0.2248 -0.179834,0.36122 -0.179834,0.13488 -0.466639,0.13488 -0.201538,0 -0.356567,-0.0713 -0.155029,-0.0713 -0.243396,-0.19843 -0.08682,-0.12868 -0.08682,-0.27751 h 0.286804 q 0.0078,0.14418 0.114722,0.22945 0.10852,0.0837 0.285253,0.0837 0.162781,0 0.26045,-0.0651 0.09922,-0.0667 0.09922,-0.17673 z"
         style="stroke-width:0.26458332"
         id="path2854" />
      <path
         d="m 70.652292,103.41092 0.0078,0.18604 q 0.184485,-0.21704 0.497644,-0.21704 0.351917,0 0.479041,0.26975 0.08372,-0.12092 0.217041,-0.19534 0.134875,-0.0744 0.31781,-0.0744 0.551904,0 0.561206,0.58446 v 1.12396 h -0.286804 v -1.10691 q 0,-0.17983 -0.08217,-0.2682 -0.08217,-0.0899 -0.275952,-0.0899 -0.15968,0 -0.2651,0.0961 -0.10542,0.0946 -0.122473,0.2558 v 1.11311 h -0.288355 v -1.09916 q 0,-0.36587 -0.358117,-0.36587 -0.282154,0 -0.386023,0.2403 v 1.22473 H 70.38099 v -1.67742 z"
         style="stroke-width:0.26458332"
         id="path2856" />
      <path
         d="m 73.090903,104.23413 q 0,-0.2465 0.09612,-0.44338 0.09767,-0.19689 0.269751,-0.30386 0.173633,-0.10697 0.395325,-0.10697 0.342614,0 0.553454,0.23719 0.21239,0.2372 0.21239,0.63097 v 0.0202 q 0,0.24494 -0.09457,0.44028 -0.09302,0.19379 -0.268201,0.30231 -0.173633,0.10852 -0.399976,0.10852 -0.341064,0 -0.553454,-0.2372 -0.21084,-0.23719 -0.21084,-0.62787 z m 0.288354,0.0341 q 0,0.27905 0.128675,0.44803 0.130224,0.16898 0.347265,0.16898 0.218592,0 0.347266,-0.17053 0.128674,-0.17208 0.128674,-0.48059 0,-0.27595 -0.131775,-0.44649 -0.130224,-0.17208 -0.347265,-0.17208 -0.21239,0 -0.342615,0.16898 -0.130225,0.16899 -0.130225,0.4837 z"
         style="stroke-width:0.26458332"
         id="path2858" />
      <path
         d="m 74.901644,104.23413 q 0,-0.2465 0.09612,-0.44338 0.09767,-0.19689 0.269751,-0.30386 0.173633,-0.10697 0.395325,-0.10697 0.342615,0 0.553455,0.23719 0.21239,0.2372 0.21239,0.63097 v 0.0202 q 0,0.24494 -0.09457,0.44028 -0.09302,0.19379 -0.268201,0.30231 -0.173632,0.10852 -0.399975,0.10852 -0.341065,0 -0.553455,-0.2372 -0.21084,-0.23719 -0.21084,-0.62787 z m 0.288355,0.0341 q 0,0.27905 0.128674,0.44803 0.130225,0.16898 0.347266,0.16898 0.218591,0 0.347265,-0.17053 0.128675,-0.17208 0.128675,-0.48059 0,-0.27595 -0.131775,-0.44649 -0.130225,-0.17208 -0.347266,-0.17208 -0.21239,0 -0.342615,0.16898 -0.130224,0.16899 -0.130224,0.4837 z"
         style="stroke-width:0.26458332"
         id="path2860" />
      <path
         d="m 77.177475,103.00475 v 0.40617 h 0.313159 v 0.2217 h -0.313159 v 1.04024 q 0,0.10077 0.04186,0.15193 0.04186,0.0496 0.142627,0.0496 0.04961,0 0.136426,-0.0186 v 0.23254 q -0.113171,0.031 -0.220141,0.031 -0.192237,0 -0.289905,-0.11628 -0.09767,-0.11627 -0.09767,-0.33021 v -1.04024 h -0.305407 v -0.2217 h 0.305407 v -0.40617 z"
         style="stroke-width:0.26458332"
         id="path2862" />
      <path
         d="m 78.11075,103.61401 q 0.190686,-0.23409 0.496094,-0.23409 0.53175,0 0.536401,0.59996 v 1.10846 h -0.286804 v -1.11001 q -0.0016,-0.18138 -0.08372,-0.2682 -0.08061,-0.0868 -0.252697,-0.0868 -0.139527,0 -0.244947,0.0744 -0.10542,0.0744 -0.164331,0.19533 v 1.19528 h -0.286804 v -2.38125 h 0.286804 z"
         style="stroke-width:0.26458332"
         id="path2864" />
      <path
         d="m 80.234653,104.18762 q 0,0.34572 -0.09147,0.66353 -0.08992,0.31626 -0.277502,0.58446 -0.186035,0.2682 -0.390674,0.38137 l -0.06046,-0.17518 q 0.238745,-0.18294 0.382922,-0.56741 0.145728,-0.38602 0.148828,-0.85576 v -0.0496 q 0,-0.32556 -0.06821,-0.60462 -0.06821,-0.2806 -0.190686,-0.50229 -0.120923,-0.22169 -0.272851,-0.34572 l 0.06046,-0.17518 q 0.204639,0.11317 0.389124,0.37827 0.186035,0.2651 0.277502,0.58446 0.09302,0.31936 0.09302,0.68368 z"
         style="stroke-width:0.26458332"
         id="path2866" />
    </g>
    <g
       aria-label="Auto"
       style="font-style:normal;font-variant:normal;font-weight:normal;font-stretch:normal;font-size:3.17499995px;line-height:1.25;font-family:Roboto;-inkscape-font-specification:'Roboto, Normal';font-variant-ligatures:normal;font-variant-position:normal;font-variant-caps:normal;font-variant-numeric:normal;font-variant-alternates:normal;font-feature-settings:normal;text-indent:0;text-align:start;text-decoration:none;text-decoration-line:none;text-decoration-style:solid;text-decoration-color:#000000;letter-spacing:0px;word-spacing:0px;text-transform:none;writing-mode:lr-tb;direction:ltr;text-orientation:mixed;dominant-baseline:auto;baseline-shift:baseline;text-anchor:start;white-space:normal;shape-padding:0;opacity:1;vector-effect:none;fill:#000000;fill-opacity:1;stroke:none;stroke-width:0.26458332;stroke-linecap:butt;stroke-linejoin:miter;stroke-miterlimit:4;stroke-dasharray:none;stroke-dashoffset:0;stroke-opacity:1"
       id="text2818">
      <path
         d="m 42.013287,121.96167 h -0.945678 l -0.21239,0.58911 H 40.54826 l 0.861963,-2.25723 h 0.26045 l 0.863513,2.25723 h -0.305408 z m -0.855761,-0.24495 h 0.767395 l -0.384473,-1.05575 z"
         style="stroke-width:0.26458332"
         id="path2833" />
      <path
         d="m 43.810077,122.3849 q -0.167432,0.19689 -0.491443,0.19689 -0.268201,0 -0.409277,-0.15503 -0.139527,-0.15658 -0.141077,-0.46199 v -1.09141 h 0.286804 v 1.08366 q 0,0.38137 0.310059,0.38137 0.328662,0 0.437182,-0.24495 v -1.22008 h 0.286804 v 1.67742 h -0.272851 z"
         style="stroke-width:0.26458332"
         id="path2835" />
      <path
         d="m 44.912335,120.46719 v 0.40617 h 0.313159 v 0.2217 h -0.313159 v 1.04024 q 0,0.10077 0.04186,0.15193 0.04186,0.0496 0.142627,0.0496 0.04961,0 0.136426,-0.0186 v 0.23254 q -0.113172,0.031 -0.220142,0.031 -0.192236,0 -0.289905,-0.11627 -0.09767,-0.11628 -0.09767,-0.33022 v -1.04024 h -0.305408 v -0.2217 h 0.305408 v -0.40617 z"
         style="stroke-width:0.26458332"
         id="path2837" />
      <path
         d="m 45.451837,121.69657 q 0,-0.2465 0.09612,-0.44338 0.09767,-0.19689 0.269751,-0.30386 0.173633,-0.10697 0.395325,-0.10697 0.342615,0 0.553455,0.23719 0.21239,0.2372 0.21239,0.63097 v 0.0202 q 0,0.24494 -0.09457,0.44028 -0.09302,0.19379 -0.268201,0.30231 -0.173633,0.10852 -0.399975,0.10852 -0.341065,0 -0.553455,-0.2372 -0.21084,-0.23719 -0.21084,-0.62787 z m 0.288355,0.0341 q 0,0.27905 0.128674,0.44803 0.130225,0.16898 0.347266,0.16898 0.218591,0 0.347265,-0.17053 0.128675,-0.17208 0.128675,-0.48059 0,-0.27595 -0.131775,-0.44648 -0.130225,-0.17209 -0.347266,-0.17209 -0.21239,0 -0.342615,0.16898 -0.130224,0.16899 -0.130224,0.4837 z"
         style="stroke-width:0.26458332"
         id="path2839" />
    </g>
    <path
       style="fill:none;stroke:#000000;stroke-width:0.13229166;stroke-opacity:1"
       d="m 45.138446,111.38083 a 0.50672102,0.50672102 0 0 1 -0.506721,0.50672 0.50672102,0.50672102 0 0 1 -0.506721,-0.50672 0.50672102,0.50672102 0 0 1 0.506721,-0.50672 0.50672102,0.50672102 0 0 1 0.506721,0.50672 z"
       id="circle2824" />
    <g
       aria-label="Symmetric"
       style="font-style:normal;font-variant:normal;font-weight:normal;font-stretch:normal;font-size:3.17499995px;line-height:1.25;font-family:Roboto;-inkscape-font-specification:'Roboto, Normal';font-variant-ligatures:normal;font-variant-position:normal;font-variant-caps:normal;font-variant-numeric:normal;font-variant-alternates:normal;font-feature-settings:normal;text-indent:0;text-align:start;text-decoration:none;text-decoration-line:none;text-decoration-style:solid;text-decoration-color:#000000;letter-spacing:0px;word-spacing:0px;text-transform:none;writing-mode:lr-tb;direction:ltr;text-orientation:mixed;dominant-baseline:auto;baseline-shift:baseline;text-anchor:start;white-space:normal;shape-padding:0;opacity:1;vector-effect:none;fill:#000000;fill-opacity:1;stroke:none;stroke-width:0.26458332;stroke-linecap:butt;stroke-linejoin:miter;stroke-miterlimit:4;stroke-dasharray:none;stroke-dashoffset:0;stroke-opacity:1"
       id="text11338">
      <path
         d="m 9.0976808,121.54464 q -0.3829223,-0.11007 -0.5581054,-0.26975 -0.1736328,-0.16123 -0.1736328,-0.39687 0,-0.26666 0.2123901,-0.44029 0.2139404,-0.17518 0.5550049,-0.17518 0.2325439,0 0.4139282,0.0899 0.1829346,0.0899 0.2821533,0.24804 0.1007691,0.15813 0.1007691,0.34572 H 9.6309816 q 0,-0.20464 -0.1302246,-0.32091 -0.1302246,-0.11782 -0.3674194,-0.11782 -0.2201416,0 -0.3441651,0.0977 -0.1224731,0.0961 -0.1224731,0.2682 0,0.13798 0.116272,0.2341 0.1178222,0.0946 0.3984253,0.17363 0.2821533,0.0791 0.4402832,0.17518 0.1596801,0.0946 0.2356445,0.2217 0.077515,0.12712 0.077515,0.2992 0,0.2744 -0.2139404,0.44029 -0.2139404,0.16433 -0.5720581,0.16433 -0.2325439,0 -0.434082,-0.0884 -0.2015381,-0.0899 -0.3116089,-0.24495 -0.1085205,-0.15503 -0.1085205,-0.35191 h 0.2992065 q 0,0.20464 0.1503784,0.32401 0.1519288,0.11782 0.4046265,0.11782 0.2356445,0 0.3612183,-0.0961 0.1255737,-0.0961 0.1255737,-0.262 0,-0.16588 -0.116272,-0.25579 -0.1162719,-0.0915 -0.4216797,-0.17984 z"
         style="stroke-width:0.26458332"
         id="path2813" />
      <path
         d="m 10.821607,122.13065 0.390673,-1.25729 h 0.306958 l -0.674377,1.93632 q -0.15658,0.41858 -0.497644,0.41858 l -0.05426,-0.005 -0.10697,-0.0202 v -0.23254 l 0.07751,0.006 q 0.145728,0 0.226343,-0.0589 0.08216,-0.0589 0.134875,-0.21549 l 0.06356,-0.17053 -0.598413,-1.65882 h 0.31316 z"
         style="stroke-width:0.26458332"
         id="path2815" />
      <path
         d="m 12.043238,120.87336 0.0078,0.18604 q 0.184485,-0.21704 0.497644,-0.21704 0.351917,0 0.479041,0.26975 0.08372,-0.12092 0.217041,-0.19534 0.134875,-0.0744 0.31781,-0.0744 0.551904,0 0.561206,0.58446 v 1.12396 h -0.286804 v -1.10691 q 0,-0.17983 -0.08217,-0.2682 -0.08217,-0.0899 -0.275952,-0.0899 -0.15968,0 -0.2651,0.0961 -0.10542,0.0946 -0.122473,0.2558 v 1.11311 h -0.288355 v -1.09916 q 0,-0.36587 -0.358118,-0.36587 -0.282153,0 -0.386022,0.2403 v 1.22473 h -0.286805 v -1.67742 z"
         style="stroke-width:0.26458332"
         id="path2817" />
      <path
         d="m 14.827564,120.87336 0.0078,0.18604 q 0.184485,-0.21704 0.497644,-0.21704 0.351917,0 0.479041,0.26975 0.08371,-0.12092 0.217041,-0.19534 0.134875,-0.0744 0.31781,-0.0744 0.551904,0 0.561206,0.58446 v 1.12396 h -0.286804 v -1.10691 q 0,-0.17983 -0.08217,-0.2682 -0.08216,-0.0899 -0.275952,-0.0899 -0.15968,0 -0.2651,0.0961 -0.10542,0.0946 -0.122473,0.2558 v 1.11311 h -0.288355 v -1.09916 q 0,-0.36587 -0.358117,-0.36587 -0.282154,0 -0.386023,0.2403 v 1.22473 h -0.286805 v -1.67742 z"
         style="stroke-width:0.26458332"
         id="path2819" />
      <path
         d="m 18.03822,122.58179 q -0.341065,0 -0.555005,-0.22325 -0.21394,-0.22479 -0.21394,-0.59996 v -0.0527 q 0,-0.2496 0.09457,-0.44493 0.09612,-0.19689 0.266651,-0.30696 0.172082,-0.11162 0.37207,-0.11162 0.327112,0 0.508496,0.21549 0.181384,0.21549 0.181384,0.61702 v 0.11937 h -1.136364 q 0.0062,0.24805 0.144177,0.40152 0.139526,0.15193 0.353467,0.15193 0.151928,0 0.257348,-0.062 0.10542,-0.062 0.184485,-0.16433 l 0.175183,0.13643 q -0.210839,0.32401 -0.632519,0.32401 z m -0.03566,-1.50379 q -0.173633,0 -0.291455,0.12713 -0.117822,0.12557 -0.145728,0.35346 h 0.840259 v -0.0217 q -0.0124,-0.21859 -0.117822,-0.33796 -0.10542,-0.12093 -0.285254,-0.12093 z"
         style="stroke-width:0.26458332"
         id="path2821" />
      <path
         d="m 19.41178,120.46719 v 0.40617 h 0.313159 v 0.2217 H 19.41178 v 1.04024 q 0,0.10077 0.04186,0.15193 0.04186,0.0496 0.142627,0.0496 0.04961,0 0.136426,-0.0186 v 0.23254 q -0.113172,0.031 -0.220142,0.031 -0.192236,0 -0.289905,-0.11627 -0.09767,-0.11628 -0.09767,-0.33022 v -1.04024 h -0.305408 v -0.2217 h 0.305408 v -0.40617 z"
         style="stroke-width:0.26458332"
         id="path2823" />
      <path
         d="m 20.869055,121.13071 q -0.06511,-0.0108 -0.141077,-0.0108 -0.282153,0 -0.382922,0.2403 v 1.19062 h -0.286805 v -1.67742 h 0.279053 l 0.0047,0.19379 q 0.141077,-0.22479 0.399976,-0.22479 0.08371,0 0.127124,0.0217 z"
         style="stroke-width:0.26458332"
         id="path2825" />
      <path
         d="M 21.442664,122.55078 H 21.15586 v -1.67742 h 0.286804 z m -0.310059,-2.12235 q 0,-0.0698 0.04186,-0.11782 0.04341,-0.0481 0.127124,-0.0481 0.08372,0 0.127124,0.0481 0.04341,0.0481 0.04341,0.11782 0,0.0698 -0.04341,0.11627 -0.04341,0.0465 -0.127124,0.0465 -0.08372,0 -0.127124,-0.0465 -0.04186,-0.0465 -0.04186,-0.11627 z"
         style="stroke-width:0.26458332"
         id="path2827" />
      <path
         d="m 22.572827,122.34769 q 0.153479,0 0.2682,-0.093 0.114722,-0.093 0.127124,-0.23255 h 0.271302 q -0.0078,0.14418 -0.09922,0.2744 -0.09147,0.13023 -0.244946,0.20774 -0.151929,0.0775 -0.322461,0.0775 -0.342615,0 -0.545703,-0.2279 -0.201538,-0.22944 -0.201538,-0.62631 v -0.0481 q 0,-0.24495 0.08992,-0.43564 0.08992,-0.19068 0.257348,-0.2961 0.168982,-0.10542 0.398425,-0.10542 0.282154,0 0.468189,0.16898 0.187585,0.16898 0.199988,0.43873 h -0.271302 q -0.0124,-0.16278 -0.124023,-0.26665 -0.110071,-0.10542 -0.272852,-0.10542 -0.218591,0 -0.339514,0.15813 -0.119372,0.15658 -0.119372,0.45424 v 0.0543 q 0,0.2899 0.119372,0.44648 0.119373,0.15658 0.341065,0.15658 z"
         style="stroke-width:0.26458332"
         id="path2829" />
    </g>
  </g>
</svg>
