<?xml version="1.0" encoding="UTF-8" standalone="no"?>
<svg
   xmlns:dc="http://purl.org/dc/elements/1.1/"
   xmlns:cc="http://creativecommons.org/ns#"
   xmlns:rdf="http://www.w3.org/1999/02/22-rdf-syntax-ns#"
   xmlns:svg="http://www.w3.org/2000/svg"
   xmlns="http://www.w3.org/2000/svg"
   xmlns:sodipodi="http://sodipodi.sourceforge.net/DTD/sodipodi-0.dtd"
   xmlns:inkscape="http://www.inkscape.org/namespaces/inkscape"
   viewBox="0 0 238.96906 19.66102"
   version="1.1"
   id="svg4"
   sodipodi:docname="email.svg"
   inkscape:version="0.92.4 (unknown)"
   width="238.96906"
   height="19.66102">
  <metadata
     id="metadata10">
    <rdf:RDF>
      <cc:Work
         rdf:about="">
        <dc:format>image/svg+xml</dc:format>
        <dc:type
           rdf:resource="http://purl.org/dc/dcmitype/StillImage" />
        <dc:title></dc:title>
      </cc:Work>
    </rdf:RDF>
  </metadata>
  <defs
     id="defs8" />
  <sodipodi:namedview
     pagecolor="#ffffff"
     bordercolor="#666666"
     borderopacity="1"
     objecttolerance="10"
     gridtolerance="10"
     guidetolerance="10"
     inkscape:pageopacity="0"
     inkscape:pageshadow="2"
     inkscape:window-width="1851"
     inkscape:window-height="933"
     id="namedview6"
     showgrid="false"
     inkscape:zoom="3.6875"
     inkscape:cx="90.258129"
     inkscape:cy="27.808997"
     inkscape:window-x="2115"
     inkscape:window-y="344"
     inkscape:window-maximized="0"
     inkscape:current-layer="svg4"
     fit-margin-top="2"
     fit-margin-left="5"
     fit-margin-bottom="2"
     fit-margin-right="5" />
  <path
     d="M 23.92373,2 H 6.95763 C 5.87644,2 5,2.87644 5,3.95763 v 11.74576 c 0,1.08118 0.87644,1.95763 1.95763,1.95763 h 16.9661 c 1.08118,0 1.95763,-0.87645 1.95763,-1.95763 V 3.95763 C 25.88136,2.87644 25.00491,2 23.92373,2 Z m 0,1.95763 v 1.66418 c -0.91446,0.74468 -2.37232,1.90261 -5.48898,4.34308 -0.68684,0.54027 -2.0474,1.83821 -2.99407,1.82308 -0.94652,0.0153 -2.30751,-1.28302 -2.99407,-1.82308 C 9.33044,7.52479 7.87221,6.36661 6.95763,5.62181 V 3.95763 Z M 6.95763,15.70339 V 8.13382 c 0.93452,0.74434 2.25979,1.78886 4.27978,3.37062 0.89141,0.70169 2.4525,2.2507 4.20327,2.24128 1.74216,0.009 3.28347,-1.51712 4.2029,-2.24095 2.01995,-1.58172 3.34559,-2.62653 4.28015,-3.37091 v 7.56953 z"
     id="path2"
     inkscape:connector-curvature="0"
     style="stroke-width:0.0407839" />
  <g
     aria-label="georgexyz19@gmail.com"
     style="font-style:normal;font-variant:normal;font-weight:normal;font-stretch:normal;font-size:16px;line-height:1.25;font-family:'Roboto Mono';-inkscape-font-specification:'Roboto Mono, Normal';font-variant-ligatures:normal;font-variant-caps:normal;font-variant-numeric:normal;font-feature-settings:normal;text-align:start;letter-spacing:0px;word-spacing:0px;writing-mode:lr-tb;text-anchor:start;fill:#000000;fill-opacity:1;stroke:none"
     id="text14"
     transform="translate(-156.62711,-159.18644)">
    <path
       d="m 190.92424,169.01305 q 0,-0.94532 0.22656,-1.73438 0.23438,-0.79687 0.67188,-1.36719 0.4375,-0.57031 1.0625,-0.89062 0.625,-0.32031 1.41406,-0.32031 0.78125,0 1.36719,0.28125 0.59375,0.27343 1.00781,0.79687 l 0.0703,-0.92187 h 1.3125 v 8.27343 q 0,0.83594 -0.26562,1.48438 -0.25781,0.64844 -0.73438,1.10156 -0.46875,0.45313 -1.125,0.6875 -0.65625,0.23438 -1.45312,0.23438 -0.32813,0 -0.75,-0.0781 -0.42188,-0.0703 -0.85938,-0.24219 -0.42968,-0.16406 -0.83593,-0.44531 -0.39844,-0.28125 -0.6875,-0.69531 l 0.75,-0.86719 q 0.26562,0.32031 0.54687,0.53906 0.28125,0.22657 0.57031,0.35938 0.28907,0.13281 0.57813,0.1875 0.28906,0.0625 0.57812,0.0625 0.51563,0 0.92969,-0.14844 0.41406,-0.14844 0.70313,-0.4375 0.29687,-0.28125 0.45312,-0.70312 0.15625,-0.42188 0.15625,-0.96875 v -0.72657 q -0.42187,0.48438 -1,0.74219 -0.57031,0.25 -1.32812,0.25 -0.77344,0 -1.39844,-0.32812 -0.625,-0.32813 -1.0625,-0.90625 -0.42969,-0.57813 -0.66406,-1.35938 -0.23438,-0.78906 -0.23438,-1.69531 z m 1.44531,0.16406 q 0,0.61719 0.125,1.17187 0.13282,0.55469 0.40625,0.97657 0.28125,0.42187 0.71094,0.67187 0.42969,0.24219 1.03125,0.24219 0.375,0 0.67188,-0.0859 0.30468,-0.0937 0.53906,-0.25781 0.24219,-0.16406 0.42969,-0.39063 0.1875,-0.22656 0.32812,-0.5 v -3.875 q -0.14062,-0.26562 -0.32812,-0.48437 -0.1875,-0.21875 -0.42969,-0.375 -0.24219,-0.16406 -0.53906,-0.25 -0.29688,-0.0937 -0.65625,-0.0937 -0.60938,0 -1.04688,0.25 -0.42969,0.25 -0.71094,0.67969 -0.27343,0.42187 -0.40625,0.98437 -0.125,0.55469 -0.125,1.17188 z"
       id="path16"
       inkscape:connector-curvature="0" />
    <path
       d="m 204.51799,173.46617 q -0.89062,0 -1.64062,-0.30469 -0.74219,-0.30468 -1.27344,-0.85156 -0.53125,-0.54687 -0.82813,-1.29687 -0.29687,-0.75 -0.29687,-1.63282 v -0.32812 q 0,-1.02344 0.32812,-1.82813 0.32813,-0.8125 0.86719,-1.36718 0.54688,-0.5625 1.23438,-0.85938 0.69531,-0.29687 1.42187,-0.29687 0.91406,0 1.59375,0.32031 0.6875,0.3125 1.14063,0.875 0.45312,0.55469 0.67187,1.3125 0.22656,0.75781 0.22656,1.64062 v 0.64844 h -6.03906 q 0.0234,0.57813 0.21875,1.08594 0.20313,0.50781 0.54688,0.89062 0.35156,0.375 0.83593,0.59375 0.48438,0.21875 1.07032,0.21875 0.77343,0 1.375,-0.3125 0.60156,-0.3125 1,-0.82812 l 0.88281,0.6875 q -0.21094,0.32031 -0.53125,0.61719 -0.3125,0.28906 -0.72656,0.51562 -0.41407,0.22656 -0.9375,0.35938 -0.52344,0.14062 -1.14063,0.14062 z m -0.1875,-7.57812 q -0.4375,0 -0.82812,0.16406 -0.39063,0.15625 -0.70313,0.46875 -0.3125,0.30469 -0.53125,0.75781 -0.21094,0.44531 -0.29687,1.03125 h 4.54687 v -0.10937 q -0.0234,-0.42188 -0.16406,-0.83594 -0.13281,-0.41406 -0.39844,-0.74219 -0.26562,-0.32812 -0.67187,-0.53125 -0.39844,-0.20312 -0.95313,-0.20312 z"
       id="path18"
       inkscape:connector-curvature="0" />
    <path
       d="m 209.97112,169.00523 q 0,-0.91406 0.26562,-1.69531 0.26563,-0.78906 0.75781,-1.36719 0.5,-0.57812 1.21094,-0.90625 0.71094,-0.33593 1.60156,-0.33593 0.89844,0 1.60938,0.33593 0.71875,0.32813 1.21094,0.90625 0.5,0.57813 0.76562,1.36719 0.26563,0.78125 0.26563,1.69531 v 0.17188 q 0,0.91406 -0.26563,1.69531 -0.26562,0.78125 -0.76562,1.35938 -0.49219,0.57812 -1.20313,0.90625 -0.71094,0.32812 -1.60156,0.32812 -0.89844,0 -1.61719,-0.32812 -0.71094,-0.32813 -1.21094,-0.90625 -0.49218,-0.57813 -0.75781,-1.35938 -0.26562,-0.78125 -0.26562,-1.69531 z m 1.44531,0.17188 q 0,0.625 0.14844,1.19531 0.14843,0.5625 0.44531,0.99219 0.30469,0.42969 0.75781,0.67969 0.45313,0.25 1.05469,0.25 0.59375,0 1.03906,-0.25 0.45313,-0.25 0.75,-0.67969 0.30469,-0.42969 0.45313,-0.99219 0.14843,-0.57031 0.14843,-1.19531 v -0.17188 q 0,-0.61718 -0.15625,-1.17968 -0.14843,-0.57032 -0.45312,-1 -0.29688,-0.42969 -0.75,-0.67969 -0.44531,-0.25781 -1.04688,-0.25781 -0.60156,0 -1.04687,0.25781 -0.44531,0.25 -0.75,0.67969 -0.29688,0.42968 -0.44531,1 -0.14844,0.5625 -0.14844,1.17968 z"
       id="path20"
       inkscape:connector-curvature="0" />
    <path
       d="m 225.51018,164.70055 q 0.20312,0 0.42187,0.0156 0.21875,0.008 0.41407,0.0391 0.20312,0.0234 0.36718,0.0625 0.17188,0.0391 0.28125,0.0859 l -0.19531,1.41406 q -0.42187,-0.0937 -0.80469,-0.13281 -0.375,-0.0469 -0.78906,-0.0469 -1.01562,0 -1.64844,0.46093 -0.625,0.46094 -0.92187,1.28907 v 5.42187 h -1.45313 v -8.45312 h 1.375 l 0.0703,1.34375 q 0.51562,-0.69532 1.23437,-1.09375 0.72656,-0.40625 1.64844,-0.40625 z"
       id="path22"
       inkscape:connector-curvature="0" />
    <path
       d="m 229.29924,169.01305 q 0,-0.94532 0.22656,-1.73438 0.23438,-0.79687 0.67188,-1.36719 0.4375,-0.57031 1.0625,-0.89062 0.625,-0.32031 1.41406,-0.32031 0.78125,0 1.36719,0.28125 0.59375,0.27343 1.00781,0.79687 l 0.0703,-0.92187 h 1.3125 v 8.27343 q 0,0.83594 -0.26562,1.48438 -0.25781,0.64844 -0.73438,1.10156 -0.46875,0.45313 -1.125,0.6875 -0.65625,0.23438 -1.45312,0.23438 -0.32813,0 -0.75,-0.0781 -0.42188,-0.0703 -0.85938,-0.24219 -0.42968,-0.16406 -0.83593,-0.44531 -0.39844,-0.28125 -0.6875,-0.69531 l 0.75,-0.86719 q 0.26562,0.32031 0.54687,0.53906 0.28125,0.22657 0.57031,0.35938 0.28907,0.13281 0.57813,0.1875 0.28906,0.0625 0.57812,0.0625 0.51563,0 0.92969,-0.14844 0.41406,-0.14844 0.70313,-0.4375 0.29687,-0.28125 0.45312,-0.70312 0.15625,-0.42188 0.15625,-0.96875 v -0.72657 q -0.42187,0.48438 -1,0.74219 -0.57031,0.25 -1.32812,0.25 -0.77344,0 -1.39844,-0.32812 -0.625,-0.32813 -1.0625,-0.90625 -0.42969,-0.57813 -0.66406,-1.35938 -0.23438,-0.78906 -0.23438,-1.69531 z m 1.44531,0.16406 q 0,0.61719 0.125,1.17187 0.13282,0.55469 0.40625,0.97657 0.28125,0.42187 0.71094,0.67187 0.42969,0.24219 1.03125,0.24219 0.375,0 0.67188,-0.0859 0.30468,-0.0937 0.53906,-0.25781 0.24219,-0.16406 0.42969,-0.39063 0.1875,-0.22656 0.32812,-0.5 v -3.875 q -0.14062,-0.26562 -0.32812,-0.48437 -0.1875,-0.21875 -0.42969,-0.375 -0.24219,-0.16406 -0.53906,-0.25 -0.29688,-0.0937 -0.65625,-0.0937 -0.60938,0 -1.04688,0.25 -0.42969,0.25 -0.71094,0.67969 -0.27343,0.42187 -0.40625,0.98437 -0.125,0.55469 -0.125,1.17188 z"
       id="path24"
       inkscape:connector-curvature="0" />
    <path
       d="m 242.89299,173.46617 q -0.89062,0 -1.64062,-0.30469 -0.74219,-0.30468 -1.27344,-0.85156 -0.53125,-0.54687 -0.82813,-1.29687 -0.29687,-0.75 -0.29687,-1.63282 v -0.32812 q 0,-1.02344 0.32812,-1.82813 0.32813,-0.8125 0.86719,-1.36718 0.54688,-0.5625 1.23438,-0.85938 0.69531,-0.29687 1.42187,-0.29687 0.91406,0 1.59375,0.32031 0.6875,0.3125 1.14063,0.875 0.45312,0.55469 0.67187,1.3125 0.22656,0.75781 0.22656,1.64062 v 0.64844 h -6.03906 q 0.0234,0.57813 0.21875,1.08594 0.20313,0.50781 0.54688,0.89062 0.35156,0.375 0.83593,0.59375 0.48438,0.21875 1.07032,0.21875 0.77343,0 1.375,-0.3125 0.60156,-0.3125 1,-0.82812 l 0.88281,0.6875 q -0.21094,0.32031 -0.53125,0.61719 -0.3125,0.28906 -0.72656,0.51562 -0.41407,0.22656 -0.9375,0.35938 -0.52344,0.14062 -1.14063,0.14062 z m -0.1875,-7.57812 q -0.4375,0 -0.82812,0.16406 -0.39063,0.15625 -0.70313,0.46875 -0.3125,0.30469 -0.53125,0.75781 -0.21094,0.44531 -0.29687,1.03125 h 4.54687 v -0.10937 q -0.0234,-0.42188 -0.16406,-0.83594 -0.13281,-0.41406 -0.39844,-0.74219 -0.26562,-0.32812 -0.67187,-0.53125 -0.39844,-0.20312 -0.95313,-0.20312 z"
       id="path26"
       inkscape:connector-curvature="0" />
    <path
       d="m 252.24455,167.98961 2.25782,-3.13281 h 1.69531 l -3.14844,4.17968 3.23438,4.27344 h -1.67188 l -2.33594,-3.21875 -2.33593,3.21875 h -1.6875 l 3.23437,-4.27344 -3.14844,-4.17968 h 1.67188 z"
       id="path28"
       inkscape:connector-curvature="0" />
    <path
       d="m 261.45549,170.30992 0.375,1.02344 2.57813,-6.47656 h 1.61718 l -4.28906,9.75781 q -0.14844,0.32812 -0.38281,0.69531 -0.22656,0.36719 -0.55469,0.67969 -0.32812,0.3125 -0.76562,0.52344 -0.4375,0.21093 -1.00782,0.21093 -0.10156,0 -0.22656,-0.0156 -0.125,-0.008 -0.25,-0.0312 -0.125,-0.0156 -0.23437,-0.0391 -0.10938,-0.0234 -0.17969,-0.0391 l 0.23437,-1.17968 q 0.0547,0 0.14844,0.008 0.0937,0.008 0.19531,0.0156 0.10157,0.008 0.19532,0.008 0.0937,0.008 0.14843,0.008 0.29688,0 0.53907,-0.16406 0.25,-0.16407 0.4375,-0.39063 0.19531,-0.22656 0.32812,-0.46875 0.14063,-0.24219 0.21875,-0.39844 l 0.57813,-1.125 -3.64063,-8.05468 h 1.61719 z"
       id="path30"
       inkscape:connector-curvature="0" />
    <path
       d="m 269.67424,172.13023 h 5.38281 v 1.17969 h -7.22656 v -1.0625 l 5.04688,-6.19531 h -4.97657 v -1.19531 h 6.875 v 1.02343 z"
       id="path32"
       inkscape:connector-curvature="0" />
    <path
       d="m 282.22112,173.30992 h -1.44532 v -9.53125 l -2.97656,1.13281 v -1.32031 l 4.30469,-1.65625 h 0.11719 z"
       id="path34"
       inkscape:connector-curvature="0" />
    <path
       d="m 288.68205,172.02867 q 0.77344,0 1.35938,-0.13281 0.58594,-0.14063 1.01562,-0.39063 0.4375,-0.25 0.72657,-0.58593 0.28906,-0.34375 0.46875,-0.75 0.1875,-0.41407 0.27343,-0.86719 0.0859,-0.46094 0.10938,-0.9375 -0.1875,0.23437 -0.42969,0.44531 -0.24219,0.20313 -0.54687,0.35938 -0.30469,0.15625 -0.67969,0.25 -0.36719,0.0859 -0.80469,0.0859 -0.84375,0 -1.46094,-0.32812 -0.60937,-0.33594 -1.00781,-0.875 -0.39844,-0.53906 -0.58594,-1.21875 -0.1875,-0.67969 -0.1875,-1.36719 0,-0.80469 0.21875,-1.51562 0.22657,-0.71875 0.66407,-1.25 0.44531,-0.53907 1.10156,-0.85157 0.66406,-0.32031 1.53906,-0.32031 0.65625,0 1.17969,0.1875 0.53125,0.17969 0.92969,0.50781 0.40625,0.32032 0.69531,0.76563 0.28906,0.4375 0.46875,0.95312 0.1875,0.50782 0.27344,1.07032 0.0859,0.55468 0.0859,1.11718 v 0.52344 q 0,0.72656 -0.0703,1.49219 -0.0703,0.75781 -0.28125,1.46875 -0.20312,0.71094 -0.57812,1.34375 -0.375,0.625 -0.97657,1.09375 -0.60156,0.46875 -1.46093,0.74219 -0.85938,0.27343 -2.03907,0.27343 h -0.14843 v -1.28906 z m 1.72657,-3.71875 q 0.36718,0 0.71093,-0.11719 0.35157,-0.125 0.64063,-0.34375 0.29687,-0.22656 0.52344,-0.52343 0.23437,-0.30469 0.36718,-0.67188 v -0.46875 q 0,-0.75781 -0.17968,-1.35156 -0.17188,-0.59375 -0.47657,-1 -0.29687,-0.41406 -0.69531,-0.63281 -0.39062,-0.21875 -0.83594,-0.21875 -0.50781,0 -0.89843,0.20312 -0.39063,0.20313 -0.66407,0.5625 -0.26562,0.35156 -0.40625,0.84375 -0.14062,0.48438 -0.14062,1.04688 0,0.5 0.125,0.98437 0.125,0.47656 0.375,0.85156 0.25781,0.375 0.64062,0.60938 0.39063,0.22656 0.91407,0.22656 z"
       id="path36"
       inkscape:connector-curvature="0" />
    <path
       d="m 304.41643,167.14586 q -0.0234,0.625 -0.14844,1.28125 -0.125,0.64844 -0.38281,1.17969 -0.25,0.53125 -0.64844,0.86718 -0.39844,0.33594 -0.97656,0.33594 -0.47656,0 -0.79688,-0.25 -0.3125,-0.25 -0.44531,-0.69531 -0.27344,0.4375 -0.67969,0.69531 -0.39843,0.25 -0.88281,0.25 -0.38281,0 -0.66406,-0.20312 -0.28125,-0.20313 -0.46094,-0.57032 -0.17187,-0.36718 -0.24219,-0.875 -0.0625,-0.50781 -0.0156,-1.11718 0.0703,-0.86719 0.28906,-1.5625 0.21875,-0.70313 0.5625,-1.1875 0.35156,-0.49219 0.8125,-0.75 0.46094,-0.26563 1.01563,-0.26563 0.52343,0 0.86718,0.21094 0.34375,0.20312 0.54688,0.48437 l -0.34375,3.9375 q -0.0234,0.32032 0.0156,0.52344 0.0391,0.19531 0.10938,0.3125 0.0781,0.10938 0.1875,0.14844 0.10937,0.0391 0.23437,0.0391 0.28907,0 0.50782,-0.21875 0.22656,-0.22656 0.375,-0.60156 0.14843,-0.38281 0.22656,-0.89063 0.0781,-0.50781 0.0859,-1.07812 0.0312,-0.99219 -0.16407,-1.78125 -0.19531,-0.78906 -0.60156,-1.33594 -0.39844,-0.54687 -0.98437,-0.83594 -0.58594,-0.28906 -1.33594,-0.28906 -0.78906,0 -1.44531,0.375 -0.64844,0.36719 -1.125,1.03125 -0.47657,0.66406 -0.75,1.58594 -0.27344,0.92187 -0.30469,2.01562 -0.0391,1.0625 0.14844,1.89063 0.1875,0.82812 0.60156,1.40625 0.41406,0.57031 1.05469,0.875 0.64843,0.29687 1.52343,0.29687 0.23438,0 0.47657,-0.0312 0.24218,-0.0391 0.47656,-0.10156 0.23437,-0.0703 0.44531,-0.16406 0.21094,-0.0937 0.38281,-0.21094 l 0.25,0.91406 q -0.19531,0.14844 -0.44531,0.25782 -0.25,0.10937 -0.52344,0.1875 -0.27343,0.0703 -0.55468,0.10156 -0.28125,0.0391 -0.53125,0.0391 -1.14844,0 -1.97657,-0.39844 -0.82031,-0.40625 -1.34375,-1.13281 -0.51562,-0.72656 -0.75,-1.72656 -0.22656,-1.00781 -0.1875,-2.20313 0.0312,-0.80468 0.19532,-1.5625 0.16406,-0.76562 0.44531,-1.42968 0.28906,-0.66407 0.6875,-1.21094 0.40625,-0.55469 0.90625,-0.95313 0.5,-0.39843 1.09375,-0.61718 0.60156,-0.21875 1.27344,-0.21875 0.95312,0 1.69531,0.375 0.74219,0.36718 1.24219,1.05468 0.50781,0.6875 0.75781,1.65625 0.25,0.96094 0.21875,2.14063 z m -5.38281,0.89844 q -0.0391,0.79687 0.13281,1.24218 0.17187,0.44532 0.54687,0.44532 0.38282,0 0.69532,-0.21094 0.3125,-0.21094 0.54687,-0.70313 l 0.30469,-3.47656 q -0.21875,-0.10156 -0.45313,-0.10156 -0.41406,0 -0.72656,0.20312 -0.30469,0.19532 -0.51562,0.5625 -0.21094,0.35938 -0.34375,0.88282 -0.125,0.51562 -0.1875,1.15625 z"
       id="path38"
       inkscape:connector-curvature="0" />
    <path
       d="m 306.04924,169.01305 q 0,-0.94532 0.22656,-1.73438 0.23438,-0.79687 0.67188,-1.36719 0.4375,-0.57031 1.0625,-0.89062 0.625,-0.32031 1.41406,-0.32031 0.78125,0 1.36719,0.28125 0.59375,0.27343 1.00781,0.79687 l 0.0703,-0.92187 h 1.3125 v 8.27343 q 0,0.83594 -0.26562,1.48438 -0.25781,0.64844 -0.73438,1.10156 -0.46875,0.45313 -1.125,0.6875 -0.65625,0.23438 -1.45312,0.23438 -0.32813,0 -0.75,-0.0781 -0.42188,-0.0703 -0.85938,-0.24219 -0.42968,-0.16406 -0.83593,-0.44531 -0.39844,-0.28125 -0.6875,-0.69531 l 0.75,-0.86719 q 0.26562,0.32031 0.54687,0.53906 0.28125,0.22657 0.57031,0.35938 0.28907,0.13281 0.57813,0.1875 0.28906,0.0625 0.57812,0.0625 0.51563,0 0.92969,-0.14844 0.41406,-0.14844 0.70313,-0.4375 0.29687,-0.28125 0.45312,-0.70312 0.15625,-0.42188 0.15625,-0.96875 v -0.72657 q -0.42187,0.48438 -1,0.74219 -0.57031,0.25 -1.32812,0.25 -0.77344,0 -1.39844,-0.32812 -0.625,-0.32813 -1.0625,-0.90625 -0.42969,-0.57813 -0.66406,-1.35938 -0.23438,-0.78906 -0.23438,-1.69531 z m 1.44531,0.16406 q 0,0.61719 0.125,1.17187 0.13282,0.55469 0.40625,0.97657 0.28125,0.42187 0.71094,0.67187 0.42969,0.24219 1.03125,0.24219 0.375,0 0.67188,-0.0859 0.30468,-0.0937 0.53906,-0.25781 0.24219,-0.16406 0.42969,-0.39063 0.1875,-0.22656 0.32812,-0.5 v -3.875 q -0.14062,-0.26562 -0.32812,-0.48437 -0.1875,-0.21875 -0.42969,-0.375 -0.24219,-0.16406 -0.53906,-0.25 -0.29688,-0.0937 -0.65625,-0.0937 -0.60938,0 -1.04688,0.25 -0.42969,0.25 -0.71094,0.67969 -0.27343,0.42187 -0.40625,0.98437 -0.125,0.55469 -0.125,1.17188 z"
       id="path40"
       inkscape:connector-curvature="0" />
    <path
       d="m 316.57268,164.8568 0.0391,0.79687 q 0.25781,-0.44531 0.67188,-0.69531 0.42187,-0.25 1.01562,-0.25781 1.16406,0 1.55469,0.90625 0.25,-0.40625 0.65625,-0.64844 0.41406,-0.25 1,-0.25781 0.92969,0 1.42969,0.57031 0.5,0.57031 0.5,1.72656 v 6.3125 h -1.375 v -6.32812 q 0,-1.0625 -0.97657,-1.05469 -0.25781,0 -0.44531,0.0703 -0.1875,0.0703 -0.3125,0.19531 -0.125,0.11719 -0.19531,0.28125 -0.0703,0.15625 -0.0937,0.32813 v 6.50781 h -1.375 v -6.33594 q 0,-0.50781 -0.22656,-0.78125 -0.22657,-0.27343 -0.71875,-0.26562 -0.45313,0 -0.70313,0.17969 -0.25,0.17968 -0.36719,0.47656 v 6.72656 h -1.375 v -8.45312 z"
       id="path42"
       inkscape:connector-curvature="0" />
    <path
       d="m 331.05705,173.30992 q -0.0859,-0.16406 -0.14062,-0.40625 -0.0469,-0.25 -0.0703,-0.51562 -0.21875,0.21875 -0.49219,0.41406 -0.26563,0.19531 -0.59375,0.34375 -0.32031,0.14844 -0.6875,0.23437 -0.36719,0.0859 -0.78125,0.0859 -0.67188,0 -1.21875,-0.19531 -0.53906,-0.19531 -0.92188,-0.52344 -0.375,-0.33594 -0.58593,-0.78906 -0.20313,-0.46094 -0.20313,-0.99219 0,-0.69531 0.27344,-1.21875 0.28125,-0.52344 0.78906,-0.86719 0.50781,-0.35156 1.21875,-0.52343 0.71875,-0.17188 1.60156,-0.17188 h 1.57813 v -0.66406 q 0,-0.38281 -0.14063,-0.6875 -0.14062,-0.30469 -0.39843,-0.51563 -0.25782,-0.21875 -0.63282,-0.33593 -0.36718,-0.11719 -0.82812,-0.11719 -0.42969,0 -0.77344,0.10937 -0.33594,0.10938 -0.57031,0.28907 -0.23438,0.17968 -0.36719,0.42968 -0.125,0.24219 -0.125,0.50782 h -1.45312 q 0.008,-0.46094 0.23437,-0.90625 0.23438,-0.44532 0.66406,-0.79688 0.4375,-0.35937 1.05469,-0.57812 0.625,-0.21875 1.41406,-0.21875 0.71875,0 1.33594,0.17968 0.61719,0.17188 1.0625,0.53125 0.45313,0.35157 0.71094,0.88282 0.25781,0.53125 0.25781,1.24218 v 3.92969 q 0,0.42188 0.0781,0.89844 0.0781,0.46875 0.21875,0.82031 v 0.125 z m -2.55468,-1.10156 q 0.42187,0 0.78906,-0.10938 0.36719,-0.10937 0.66406,-0.28906 0.30469,-0.17969 0.52344,-0.40625 0.21875,-0.23437 0.34375,-0.48437 v -1.71094 h -1.34375 q -1.26563,0 -1.96875,0.375 -0.70313,0.375 -0.70313,1.17969 0,0.3125 0.10157,0.57812 0.10937,0.26563 0.32031,0.46094 0.21094,0.1875 0.53125,0.29687 0.32031,0.10938 0.74219,0.10938 z"
       id="path44"
       inkscape:connector-curvature="0" />
    <path
       d="m 335.32268,164.8568 h 4.32031 v 7.20312 h 2.75781 v 1.25 h -7.07812 v -1.25 h 2.875 v -5.94531 h -2.875 z m 2.6875,-2.21875 q 0,-0.35938 0.21094,-0.60157 0.21875,-0.25 0.65625,-0.25 0.42968,0 0.64843,0.25 0.21875,0.24219 0.21875,0.60157 0,0.35156 -0.21875,0.58593 -0.21875,0.23438 -0.64843,0.23438 -0.4375,0 -0.65625,-0.23438 -0.21094,-0.23437 -0.21094,-0.58593 z"
       id="path46"
       inkscape:connector-curvature="0" />
    <path
       d="m 344.91643,161.30992 h 4.32031 v 10.75 h 2.75781 v 1.25 h -7.07812 v -1.25 h 2.875 v -9.49219 h -2.875 z"
       id="path48"
       inkscape:connector-curvature="0" />
    <path
       d="m 356.79924,172.37242 q 0,-0.23437 0.0703,-0.4375 0.0781,-0.20312 0.21875,-0.35156 0.14063,-0.15625 0.35157,-0.24219 0.21093,-0.0859 0.49218,-0.0859 0.28125,0 0.49219,0.0859 0.21875,0.0859 0.35938,0.24219 0.14843,0.14844 0.21875,0.35156 0.0781,0.20313 0.0781,0.4375 0,0.22656 -0.0781,0.42969 -0.0703,0.19531 -0.21875,0.34375 -0.14063,0.14844 -0.35938,0.22656 -0.21094,0.0859 -0.49219,0.0859 -0.28125,0 -0.49218,-0.0859 -0.21094,-0.0781 -0.35157,-0.22656 -0.14062,-0.14844 -0.21875,-0.34375 -0.0703,-0.20313 -0.0703,-0.42969 z"
       id="path50"
       inkscape:connector-curvature="0" />
    <path
       d="m 367.47893,172.2943 q 0.39062,0 0.75781,-0.125 0.375,-0.125 0.66406,-0.34375 0.28907,-0.22657 0.46094,-0.52344 0.17969,-0.30469 0.1875,-0.65625 h 1.36719 q -0.008,0.5625 -0.29688,1.07812 -0.28125,0.50782 -0.75781,0.89844 -0.47656,0.38281 -1.09375,0.61719 -0.61719,0.22656 -1.28906,0.22656 -0.96094,0 -1.67969,-0.34375 -0.71875,-0.34375 -1.20312,-0.92187 -0.47657,-0.58594 -0.71875,-1.34375 -0.24219,-0.76563 -0.24219,-1.60938 v -0.32812 q 0,-0.83594 0.24219,-1.60157 0.24218,-0.76562 0.71875,-1.34375 0.48437,-0.58593 1.20312,-0.92968 0.71875,-0.34375 1.67969,-0.34375 0.75,0 1.375,0.24218 0.63281,0.23438 1.08594,0.64844 0.46093,0.40625 0.71875,0.96875 0.25781,0.5625 0.25781,1.20313 h -1.36719 q -0.008,-0.38282 -0.17187,-0.71875 -0.15625,-0.34375 -0.42969,-0.60157 -0.27344,-0.25781 -0.65625,-0.40625 -0.375,-0.14843 -0.8125,-0.14843 -0.67188,0 -1.13281,0.27343 -0.45313,0.26563 -0.73438,0.70313 -0.28125,0.42969 -0.40625,0.96875 -0.11719,0.53906 -0.11719,1.08594 v 0.32812 q 0,0.55469 0.11719,1.10156 0.125,0.53907 0.39844,0.97657 0.28125,0.42968 0.73437,0.70312 0.46094,0.26563 1.14063,0.26563 z"
       id="path52"
       inkscape:connector-curvature="0" />
    <path
       d="m 373.06487,169.00523 q 0,-0.91406 0.26562,-1.69531 0.26563,-0.78906 0.75781,-1.36719 0.5,-0.57812 1.21094,-0.90625 0.71094,-0.33593 1.60156,-0.33593 0.89844,0 1.60938,0.33593 0.71875,0.32813 1.21094,0.90625 0.5,0.57813 0.76562,1.36719 0.26563,0.78125 0.26563,1.69531 v 0.17188 q 0,0.91406 -0.26563,1.69531 -0.26562,0.78125 -0.76562,1.35938 -0.49219,0.57812 -1.20313,0.90625 -0.71094,0.32812 -1.60156,0.32812 -0.89844,0 -1.61719,-0.32812 -0.71094,-0.32813 -1.21094,-0.90625 -0.49218,-0.57813 -0.75781,-1.35938 -0.26562,-0.78125 -0.26562,-1.69531 z m 1.44531,0.17188 q 0,0.625 0.14844,1.19531 0.14843,0.5625 0.44531,0.99219 0.30469,0.42969 0.75781,0.67969 0.45313,0.25 1.05469,0.25 0.59375,0 1.03906,-0.25 0.45313,-0.25 0.75,-0.67969 0.30469,-0.42969 0.45313,-0.99219 0.14843,-0.57031 0.14843,-1.19531 v -0.17188 q 0,-0.61718 -0.15625,-1.17968 -0.14843,-0.57032 -0.45312,-1 -0.29688,-0.42969 -0.75,-0.67969 -0.44531,-0.25781 -1.04688,-0.25781 -0.60156,0 -1.04687,0.25781 -0.44531,0.25 -0.75,0.67969 -0.29688,0.42968 -0.44531,1 -0.14844,0.5625 -0.14844,1.17968 z"
       id="path54"
       inkscape:connector-curvature="0" />
    <path
       d="m 383.72893,164.8568 0.0391,0.79687 q 0.25781,-0.44531 0.67188,-0.69531 0.42187,-0.25 1.01562,-0.25781 1.16406,0 1.55469,0.90625 0.25,-0.40625 0.65625,-0.64844 0.41406,-0.25 1,-0.25781 0.92969,0 1.42969,0.57031 0.5,0.57031 0.5,1.72656 v 6.3125 h -1.375 v -6.32812 q 0,-1.0625 -0.97657,-1.05469 -0.25781,0 -0.44531,0.0703 -0.1875,0.0703 -0.3125,0.19531 -0.125,0.11719 -0.19531,0.28125 -0.0703,0.15625 -0.0937,0.32813 v 6.50781 h -1.375 v -6.33594 q 0,-0.50781 -0.22656,-0.78125 -0.22657,-0.27343 -0.71875,-0.26562 -0.45313,0 -0.70313,0.17969 -0.25,0.17968 -0.36719,0.47656 v 6.72656 h -1.375 v -8.45312 z"
       id="path56"
       inkscape:connector-curvature="0" />
  </g>
</svg>
