<?xml version="1.0" encoding="UTF-8" standalone="no"?>
<!-- Created with Inkscape (http://www.inkscape.org/) -->

<svg
   xmlns:dc="http://purl.org/dc/elements/1.1/"
   xmlns:cc="http://creativecommons.org/ns#"
   xmlns:rdf="http://www.w3.org/1999/02/22-rdf-syntax-ns#"
   xmlns:svg="http://www.w3.org/2000/svg"
   xmlns="http://www.w3.org/2000/svg"
   xmlns:sodipodi="http://sodipodi.sourceforge.net/DTD/sodipodi-0.dtd"
   xmlns:inkscape="http://www.inkscape.org/namespaces/inkscape"
   width="298.05319"
   height="171.86679"
   viewBox="0 0 78.859907 45.473088"
   version="1.1"
   id="svg864"
   inkscape:version="0.92.2 (5c3e80d, 2017-08-06)"
   sodipodi:docname="img2-svgcode.svg">
  <defs
     id="defs858" />
  <sodipodi:namedview
     id="base"
     pagecolor="#ffffff"
     bordercolor="#666666"
     borderopacity="1.0"
     inkscape:pageopacity="0.0"
     inkscape:pageshadow="2"
     inkscape:zoom="1.6396038"
     inkscape:cx="333.17933"
     inkscape:cy="13.176355"
     inkscape:document-units="px"
     inkscape:current-layer="layer1"
     showgrid="false"
     units="px"
     fit-margin-top="5"
     fit-margin-left="5"
     fit-margin-right="5"
     fit-margin-bottom="5"
     inkscape:window-width="1920"
     inkscape:window-height="1018"
     inkscape:window-x="-8"
     inkscape:window-y="-8"
     inkscape:window-maximized="1" />
  <metadata
     id="metadata861">
    <rdf:RDF>
      <cc:Work
         rdf:about="">
        <dc:format>image/svg+xml</dc:format>
        <dc:type
           rdf:resource="http://purl.org/dc/dcmitype/StillImage" />
        <dc:title></dc:title>
      </cc:Work>
    </rdf:RDF>
  </metadata>
  <g
     inkscape:label="Layer 1"
     inkscape:groupmode="layer"
     id="layer1"
     transform="translate(-3.4739103,-84.847465)">
    <path
       style="opacity:1;vector-effect:none;fill:none;fill-opacity:1;stroke:#000000;stroke-width:0.1984375;stroke-linecap:butt;stroke-linejoin:miter;stroke-miterlimit:4;stroke-dasharray:none;stroke-dashoffset:0;stroke-opacity:1"
       d="m 14.33336,92.896477 h 15 v 10.000003 h -15 z"
       id="rect5368" />
    <path
       style="fill:#000000;stroke:none;stroke-width:1"
       d="m 14.83336,92.896477 a 0.5,0.5 0 0 1 -0.5,0.5 0.5,0.5 0 0 1 -0.5,-0.5 0.5,0.5 0 0 1 0.5,-0.5 0.5,0.5 0 0 1 0.5,0.5 z"
       id="path5376" />
    <g
       aria-label="    &lt;rect id=&quot;rect5368&quot;
       style=&quot;opacity:1; ... &quot;
       width=&quot;15&quot; height=&quot;10&quot;
       x=&quot;20&quot; y=&quot;141&quot; /&gt;"
       style="font-style:normal;font-variant:normal;font-weight:normal;font-stretch:condensed;font-size:3.17499995px;line-height:1.20000005;font-family:Arial;-inkscape-font-specification:'Arial, Condensed';font-variant-ligatures:normal;font-variant-position:normal;font-variant-caps:normal;font-variant-numeric:normal;font-variant-alternates:normal;font-feature-settings:normal;text-indent:0;text-align:start;text-decoration:none;text-decoration-line:none;text-decoration-style:solid;text-decoration-color:#000000;letter-spacing:0px;word-spacing:0px;text-transform:none;writing-mode:lr-tb;direction:ltr;text-orientation:mixed;dominant-baseline:auto;baseline-shift:baseline;text-anchor:start;white-space:normal;shape-padding:0;opacity:1;vector-effect:none;fill:#000000;fill-opacity:1;stroke:none;stroke-width:0.99999994;stroke-linecap:butt;stroke-linejoin:miter;stroke-miterlimit:4;stroke-dasharray:none;stroke-dashoffset:0;stroke-opacity:1"
       id="text5436">
      <path
         d="m 36.668771,90.493994 v -0.260449 l 1.234033,-0.63562 v 0.277502 l -0.978235,0.489893 0.978235,0.494543 v 0.277503 z"
         style="font-style:italic;stroke-width:0.99999994"
         id="path1376" />
      <path
         d="m 38.133797,91.487732 0.282154,-1.646411 h 0.203088 l -0.05736,0.336413 q 0.203088,-0.37362 0.407727,-0.37362 0.06976,0 0.170532,0.06046 l -0.09457,0.260449 q -0.06046,-0.05271 -0.127125,-0.05271 -0.127124,0 -0.254248,0.167432 -0.125573,0.165881 -0.196887,0.587561 l -0.114721,0.660425 z"
         style="font-style:italic;stroke-width:0.99999994"
         id="path1378" />
      <path
         d="m 39.992599,90.928076 0.224792,0.0279 q -0.05581,0.240296 -0.258899,0.41858 -0.168982,0.150378 -0.376721,0.150378 -0.147278,0 -0.268201,-0.07906 -0.120923,-0.08062 -0.192236,-0.238745 -0.07131,-0.15968 -0.07131,-0.379822 0,-0.289905 0.108521,-0.541052 0.110071,-0.251148 0.268201,-0.365869 0.158129,-0.116272 0.342614,-0.116272 0.234095,0 0.381372,0.178283 0.148829,0.178284 0.148829,0.503846 0,0.120923 -0.01705,0.248047 h -0.995288 q -0.0047,0.04961 -0.0047,0.08837 0,0.232544 0.08837,0.353467 0.08837,0.119373 0.21239,0.119373 0.117822,0 0.230994,-0.09457 0.114722,-0.09457 0.178284,-0.272852 z m -0.668177,-0.407727 h 0.758094 v -0.05736 q 0,-0.220141 -0.08682,-0.330212 -0.08682,-0.110071 -0.221692,-0.110071 -0.145727,0 -0.2682,0.124024 -0.120923,0.124023 -0.181385,0.37362 z"
         style="font-style:italic;stroke-width:0.99999994"
         id="path1380" />
      <path
         d="m 41.383212,90.887769 0.230993,0.02945 q -0.08682,0.308508 -0.248047,0.458887 -0.16123,0.148828 -0.359667,0.148828 -0.213941,0 -0.355018,-0.168982 -0.139526,-0.168982 -0.139526,-0.489893 0,-0.314709 0.102319,-0.572058 0.10387,-0.257348 0.26045,-0.37362 0.158129,-0.116272 0.350366,-0.116272 0.207739,0 0.339514,0.145727 0.131775,0.145728 0.130225,0.399976 l -0.226343,0.0186 q 0,-0.16123 -0.07596,-0.246496 -0.07441,-0.08682 -0.184484,-0.08682 -0.122474,0 -0.221692,0.08217 -0.09767,0.08062 -0.170533,0.300757 -0.07131,0.218591 -0.07131,0.485241 0,0.198438 0.07752,0.302308 0.07906,0.102319 0.187585,0.102319 0.111621,0 0.213941,-0.10387 0.102319,-0.103869 0.15968,-0.316259 z"
         style="font-style:italic;stroke-width:0.99999994"
         id="path1382" />
      <path
         d="m 42.293234,91.259839 -0.04031,0.229443 q -0.08217,0.02635 -0.15968,0.02635 -0.128674,0 -0.204639,-0.06821 -0.07441,-0.06821 -0.07441,-0.182934 0,-0.05426 0.03411,-0.249597 l 0.16278,-0.956531 h -0.181384 l 0.03721,-0.217041 h 0.181384 l 0.06976,-0.404627 0.263549,-0.193786 -0.102319,0.598413 h 0.224793 l -0.03721,0.217041 h -0.224792 l -0.15658,0.910022 q -0.02945,0.175183 -0.02945,0.206189 0,0.05426 0.02481,0.07906 0.0248,0.0248 0.07596,0.0248 0.07596,0 0.136426,-0.0186 z"
         style="font-style:italic;stroke-width:0.99999994"
         id="path1384" />
      <path
         d="m 43.531917,89.532813 0.05426,-0.317811 h 0.229444 l -0.05426,0.317811 z m -0.334863,1.954919 0.282153,-1.646411 h 0.229444 l -0.282154,1.646411 z"
         style="font-style:italic;stroke-width:0.99999994"
         id="path1386" />
      <path
         d="m 44.691537,91.248987 q -0.195337,0.275952 -0.412378,0.275952 -0.186035,0 -0.31626,-0.168982 -0.130224,-0.168982 -0.130224,-0.506946 0,-0.302307 0.103869,-0.553454 0.10387,-0.252698 0.255799,-0.372071 0.151928,-0.119372 0.302307,-0.119372 0.249597,0 0.376721,0.296106 L 45.0233,89.215002 h 0.229443 l -0.389123,2.27273 h -0.212391 z m -0.629419,-0.451135 -0.0015,0.06666 q 0,0.204639 0.09457,0.334863 0.07286,0.100769 0.192236,0.100769 0.155029,0 0.283704,-0.198437 0.168982,-0.2651 0.168982,-0.651123 0,-0.198438 -0.08682,-0.306958 -0.08682,-0.108521 -0.206189,-0.108521 -0.116272,0 -0.218591,0.10387 -0.102319,0.10387 -0.164331,0.311609 -0.06201,0.207739 -0.06201,0.347266 z"
         style="font-style:italic;stroke-width:0.99999994"
         id="path1388" />
      <path
         d="M 46.522432,90.151379 H 45.2915 V 89.89093 h 1.230932 z m 0,0.689881 H 45.2915 v -0.260449 h 1.230932 z"
         style="font-style:italic;stroke-width:0.99999994"
         id="path1390" />
      <path
         d="m 47.006124,90.019605 0.0124,-0.432532 0.06356,-0.372071 h 0.262 l -0.06511,0.372071 -0.133325,0.432532 z m 0.420129,0 0.01395,-0.432532 0.06511,-0.372071 h 0.260449 l -0.06511,0.372071 -0.136426,0.432532 z"
         style="font-style:italic;stroke-width:0.99999994"
         id="path1392" />
      <path
         d="m 47.677401,91.487732 0.282153,-1.646411 h 0.203089 l -0.05736,0.336413 q 0.203088,-0.37362 0.407727,-0.37362 0.06976,0 0.170532,0.06046 l -0.09457,0.260449 q -0.06046,-0.05271 -0.127124,-0.05271 -0.127124,0 -0.254248,0.167432 -0.125573,0.165881 -0.196887,0.587561 l -0.114722,0.660425 z"
         style="font-style:italic;stroke-width:0.99999994"
         id="path1394" />
      <path
         d="m 49.536202,90.928076 0.224793,0.0279 q -0.05581,0.240296 -0.258899,0.41858 -0.168982,0.150378 -0.376721,0.150378 -0.147278,0 -0.268201,-0.07906 -0.120923,-0.08062 -0.192236,-0.238745 -0.07131,-0.15968 -0.07131,-0.379822 0,-0.289905 0.108521,-0.541052 0.110071,-0.251148 0.2682,-0.365869 0.15813,-0.116272 0.342615,-0.116272 0.234094,0 0.381372,0.178283 0.148828,0.178284 0.148828,0.503846 0,0.120923 -0.01705,0.248047 h -0.995288 q -0.0047,0.04961 -0.0047,0.08837 0,0.232544 0.08837,0.353467 0.08837,0.119373 0.21239,0.119373 0.117822,0 0.230994,-0.09457 0.114721,-0.09457 0.178283,-0.272852 z m -0.668176,-0.407727 h 0.758093 v -0.05736 q 0,-0.220141 -0.08682,-0.330212 -0.08682,-0.110071 -0.221692,-0.110071 -0.145727,0 -0.268201,0.124024 -0.120922,0.124023 -0.181384,0.37362 z"
         style="font-style:italic;stroke-width:0.99999994"
         id="path1396" />
      <path
         d="m 50.926815,90.887769 0.230993,0.02945 q -0.08682,0.308508 -0.248047,0.458887 -0.16123,0.148828 -0.359668,0.148828 -0.21394,0 -0.355017,-0.168982 -0.139526,-0.168982 -0.139526,-0.489893 0,-0.314709 0.102319,-0.572058 0.10387,-0.257348 0.26045,-0.37362 0.158129,-0.116272 0.350366,-0.116272 0.207739,0 0.339514,0.145727 0.131775,0.145728 0.130225,0.399976 l -0.226343,0.0186 q 0,-0.16123 -0.07597,-0.246496 -0.07441,-0.08682 -0.184484,-0.08682 -0.122474,0 -0.221692,0.08217 -0.09767,0.08062 -0.170533,0.300757 -0.07131,0.218591 -0.07131,0.485241 0,0.198438 0.07751,0.302308 0.07906,0.102319 0.187585,0.102319 0.111621,0 0.21394,-0.10387 0.10232,-0.103869 0.159681,-0.316259 z"
         style="font-style:italic;stroke-width:0.99999994"
         id="path1398" />
      <path
         d="m 51.836837,91.259839 -0.04031,0.229443 q -0.08217,0.02635 -0.15968,0.02635 -0.128674,0 -0.204639,-0.06821 -0.07441,-0.06821 -0.07441,-0.182934 0,-0.05426 0.03411,-0.249597 l 0.16278,-0.956531 h -0.181384 l 0.03721,-0.217041 h 0.181384 l 0.06976,-0.404627 0.263549,-0.193786 -0.102319,0.598413 h 0.224792 l -0.03721,0.217041 h -0.224792 l -0.15658,0.910022 q -0.02945,0.175183 -0.02945,0.206189 0,0.05426 0.0248,0.07906 0.02481,0.0248 0.07597,0.0248 0.07596,0 0.136426,-0.0186 z"
         style="font-style:italic;stroke-width:0.99999994"
         id="path1400" />
      <path
         d="m 52.120541,90.838159 0.234095,-0.02791 -0.0031,0.07286 q 0,0.113171 0.04651,0.217041 0.04806,0.103869 0.117822,0.153479 0.07131,0.04961 0.150378,0.04961 0.09767,0 0.204639,-0.08217 0.10697,-0.08217 0.182935,-0.254248 0.07596,-0.172083 0.07596,-0.356568 0,-0.196887 -0.09457,-0.308508 -0.09457,-0.111621 -0.238745,-0.111621 -0.201538,0 -0.358118,0.235644 l -0.199987,-0.01705 0.279052,-1.16272 h 0.910022 l -0.04341,0.257349 h -0.708484 l -0.139526,0.578259 q 0.156579,-0.139526 0.333313,-0.139526 0.206189,0 0.347265,0.168982 0.141077,0.167431 0.141077,0.474389 0,0.42323 -0.226343,0.702283 -0.193786,0.238745 -0.482141,0.238745 -0.147278,0 -0.2651,-0.07441 -0.116272,-0.07596 -0.190686,-0.229443 -0.07441,-0.155029 -0.07441,-0.336414 z"
         style="font-style:italic;stroke-width:0.99999994"
         id="path1402" />
      <path
         d="m 53.531306,90.892419 0.224793,-0.03411 q 0.02481,0.243396 0.113171,0.344165 0.08837,0.100769 0.226343,0.100769 0.162781,0 0.289905,-0.144177 0.128674,-0.144177 0.128674,-0.342615 0,-0.178284 -0.09612,-0.283704 -0.09612,-0.105419 -0.246497,-0.105419 -0.0186,0 -0.07286,0.0062 l 0.03876,-0.234095 q 0.03256,0.0062 0.06356,0.0062 0.186035,0 0.297656,-0.111621 0.111621,-0.113172 0.111621,-0.294556 0,-0.161231 -0.08992,-0.2651 -0.08992,-0.10387 -0.206189,-0.10387 -0.124023,0 -0.224792,0.108521 -0.09922,0.10697 -0.127124,0.310058 l -0.226343,-0.05581 q 0.05736,-0.288355 0.218591,-0.437183 0.162781,-0.150378 0.372071,-0.150378 0.218591,0 0.365869,0.16278 0.147278,0.162781 0.147278,0.42323 0,0.178284 -0.07751,0.31316 -0.07596,0.133325 -0.230994,0.221692 0.108521,0.07906 0.162781,0.193786 0.05426,0.113172 0.05426,0.260449 0,0.311609 -0.192236,0.52865 -0.192236,0.217041 -0.443384,0.217041 -0.240295,0 -0.401526,-0.165881 -0.16123,-0.165881 -0.179834,-0.468189 z"
         style="font-style:italic;stroke-width:0.99999994"
         id="path1404" />
      <path
         d="m 55.363753,90.169983 q 0.09767,-0.09767 0.192236,-0.145728 0.09612,-0.04961 0.189136,-0.04961 0.207739,0 0.348816,0.173633 0.141077,0.172082 0.141077,0.47904 0,0.396875 -0.213941,0.671277 -0.178283,0.227893 -0.42323,0.227893 -0.224792,0 -0.382922,-0.201538 -0.15813,-0.203088 -0.15813,-0.595312 0,-0.350367 0.108521,-0.744141 0.11007,-0.395325 0.313159,-0.606164 0.168982,-0.173633 0.390674,-0.173633 0.186035,0 0.308508,0.141076 0.122473,0.141077 0.141077,0.418579 l -0.213941,0.02481 q -0.03566,-0.348816 -0.252698,-0.348816 -0.09457,0 -0.176733,0.07131 -0.124023,0.10542 -0.203088,0.300757 -0.07906,0.195336 -0.108521,0.356567 z m -0.08062,0.679028 q 0,0.196887 0.09922,0.325562 0.09922,0.128674 0.220141,0.128674 0.139527,0 0.262,-0.170532 0.151928,-0.207739 0.151928,-0.479041 0,-0.207739 -0.09457,-0.330212 -0.09457,-0.124024 -0.223243,-0.124024 -0.151928,0 -0.283703,0.179834 -0.131775,0.178284 -0.131775,0.469739 z"
         style="font-style:italic;stroke-width:0.99999994"
         id="path1406" />
      <path
         d="M 56.876839,90.238196 Q 56.77297,90.168433 56.72026,90.066113 56.6691,89.962244 56.6691,89.824268 q 0,-0.218592 0.147278,-0.418579 0.148828,-0.199988 0.417029,-0.199988 0.232544,0 0.378271,0.153479 0.147278,0.153479 0.147278,0.399975 0,0.172083 -0.07906,0.303858 -0.07751,0.130224 -0.235644,0.207739 0.117822,0.08992 0.170532,0.203088 0.05271,0.111621 0.05271,0.262 0,0.350366 -0.190686,0.572058 -0.190686,0.220142 -0.458887,0.220142 -0.226343,0 -0.379822,-0.170533 -0.153479,-0.172082 -0.153479,-0.446484 0,-0.165881 0.05271,-0.313159 0.05426,-0.147278 0.134876,-0.230994 0.08062,-0.08527 0.204638,-0.128674 z m 0.0186,-0.401526 q 0,0.151929 0.07906,0.238745 0.07906,0.08527 0.209289,0.08527 0.150379,0 0.252698,-0.113171 0.10232,-0.113172 0.10232,-0.291455 0,-0.150379 -0.08062,-0.237195 -0.08062,-0.08837 -0.207739,-0.08837 -0.09612,0 -0.176733,0.05116 -0.08062,0.04961 -0.130225,0.147278 -0.04806,0.09767 -0.04806,0.207739 z m -0.179834,1.096057 q 0,0.167432 0.09147,0.269751 0.09302,0.100769 0.234094,0.100769 0.176734,0 0.285254,-0.182934 0.108521,-0.184485 0.108521,-0.389124 0,-0.167432 -0.08682,-0.2651 -0.08682,-0.09767 -0.218591,-0.09767 -0.168982,0 -0.291455,0.15503 -0.122473,0.153479 -0.122473,0.409277 z"
         style="font-style:italic;stroke-width:0.99999994"
         id="path1408" />
      <path
         d="m 58.081417,90.019605 0.0124,-0.432532 0.06356,-0.372071 h 0.261999 l -0.06511,0.372071 -0.133325,0.432532 z m 0.42013,0 0.01395,-0.432532 0.06511,-0.372071 h 0.260449 l -0.06511,0.372071 -0.136426,0.432532 z"
         style="font-style:italic;stroke-width:0.99999994"
         id="path1410" />
      <path
         d="m 38.803524,94.742689 0.230994,-0.01705 q -0.0016,0.201539 0.08837,0.300757 0.08992,0.09922 0.244947,0.09922 0.141076,0 0.223242,-0.06976 0.08216,-0.07131 0.08216,-0.181384 0,-0.07906 -0.05116,-0.142627 -0.05271,-0.06356 -0.227893,-0.15503 -0.201539,-0.10542 -0.266651,-0.16123 -0.06356,-0.05736 -0.09922,-0.137976 -0.03566,-0.08217 -0.03566,-0.182935 0,-0.206189 0.133325,-0.339514 0.133325,-0.133325 0.350366,-0.133325 0.240295,0 0.379822,0.137976 0.139526,0.136426 0.145727,0.382922 l -0.226342,0.0186 q -0.0047,-0.155029 -0.08992,-0.238745 -0.08372,-0.08372 -0.226343,-0.08372 -0.111621,0 -0.181384,0.06356 -0.06976,0.06201 -0.06976,0.144177 0,0.07131 0.04186,0.122473 0.04186,0.05271 0.21239,0.141077 0.262,0.137976 0.333313,0.220142 0.108521,0.128674 0.108521,0.313159 0,0.204638 -0.145728,0.351916 -0.144177,0.147278 -0.401525,0.147278 -0.258899,0 -0.406177,-0.148828 -0.147278,-0.148828 -0.147278,-0.420129 z"
         style="font-style:italic;stroke-width:0.99999994"
         id="path1412" />
      <path
         d="m 40.631319,95.077552 -0.04031,0.229443 q -0.08217,0.02635 -0.15968,0.02635 -0.128675,0 -0.204639,-0.06821 -0.07441,-0.06821 -0.07441,-0.182934 0,-0.05426 0.03411,-0.249597 l 0.162781,-0.956531 h -0.181384 l 0.03721,-0.217041 h 0.181384 l 0.06976,-0.404627 0.26355,-0.193786 -0.102319,0.598413 h 0.224792 l -0.03721,0.217041 H 40.58016 l -0.15658,0.910022 q -0.02945,0.175183 -0.02945,0.206189 0,0.05426 0.0248,0.07907 0.02481,0.0248 0.07597,0.0248 0.07596,0 0.136425,-0.0186 z"
         style="font-style:italic;stroke-width:0.99999994"
         id="path1414" />
      <path
         d="m 40.732089,95.941065 0.01395,-0.26355 q 0.07131,0.02481 0.137976,0.02481 0.06976,0 0.111621,-0.03721 0.05891,-0.05271 0.124024,-0.193787 l 0.07286,-0.16123 -0.224793,-1.651062 h 0.226343 l 0.102319,0.832507 q 0.03101,0.249597 0.05271,0.492993 l 0.603064,-1.3255 h 0.240296 l -0.860413,1.865002 q -0.128674,0.282154 -0.227893,0.365869 -0.09767,0.08372 -0.215491,0.08372 -0.08062,0 -0.156579,-0.03256 z"
         style="font-style:italic;stroke-width:0.99999994"
         id="path1416" />
      <path
         d="m 42.102547,95.305445 0.389124,-2.272729 h 0.230993 l -0.389123,2.272729 z"
         style="font-style:italic;stroke-width:0.99999994"
         id="path1418" />
      <path
         d="m 43.688498,94.745789 0.224792,0.02791 q -0.05581,0.240295 -0.258899,0.418579 -0.168982,0.150378 -0.376721,0.150378 -0.147278,0 -0.268201,-0.07906 -0.120923,-0.08061 -0.192236,-0.238745 -0.07131,-0.15968 -0.07131,-0.379822 0,-0.289905 0.108521,-0.541052 0.110071,-0.251147 0.268201,-0.365869 0.158129,-0.116272 0.342614,-0.116272 0.234095,0 0.381372,0.178284 0.148829,0.178283 0.148829,0.503845 0,0.120923 -0.01705,0.248047 h -0.995288 q -0.0047,0.04961 -0.0047,0.08837 0,0.232544 0.08837,0.353467 0.08837,0.119373 0.21239,0.119373 0.117822,0 0.230994,-0.09457 0.114722,-0.09457 0.178284,-0.272852 z m -0.668177,-0.407727 h 0.758094 v -0.05736 q 0,-0.220141 -0.08682,-0.330212 -0.08682,-0.110071 -0.221692,-0.110071 -0.145727,0 -0.2682,0.124024 -0.120923,0.124023 -0.181385,0.37362 z"
         style="font-style:italic;stroke-width:0.99999994"
         id="path1420" />
      <path
         d="m 45.437227,93.969093 h -1.230932 v -0.26045 h 1.230932 z m 0,0.68988 h -1.230932 v -0.260449 h 1.230932 z"
         style="font-style:italic;stroke-width:0.99999994"
         id="path1422" />
      <path
         d="m 45.920919,93.837318 0.0124,-0.432532 0.06356,-0.37207 h 0.262 l -0.06511,0.37207 -0.133325,0.432532 z m 0.420129,0 0.01395,-0.432532 0.06511,-0.37207 h 0.260449 l -0.06511,0.37207 -0.136426,0.432532 z"
         style="font-style:italic;stroke-width:0.99999994"
         id="path1424" />
      <path
         d="m 46.632504,94.680677 q 0,-0.444934 0.199987,-0.751892 0.199988,-0.306958 0.536402,-0.306958 0.235644,0 0.389123,0.181384 0.153479,0.179834 0.153479,0.513147 0,0.305408 -0.10542,0.545703 -0.103869,0.240296 -0.271301,0.361219 -0.165881,0.119372 -0.348816,0.119372 -0.240295,0 -0.396875,-0.176733 -0.156579,-0.178284 -0.156579,-0.485242 z m 0.230993,-0.02791 q 0,0.234094 0.09302,0.353466 0.09302,0.119373 0.232544,0.119373 0.110071,0 0.220141,-0.08837 0.110071,-0.08992 0.192237,-0.296106 0.08217,-0.206189 0.08217,-0.42323 0,-0.235644 -0.09302,-0.356567 -0.09302,-0.122473 -0.229444,-0.122473 -0.119372,0 -0.232544,0.08837 -0.111621,0.08837 -0.189135,0.293005 -0.07596,0.203088 -0.07596,0.432532 z"
         style="font-style:italic;stroke-width:0.99999994"
         id="path1426" />
      <path
         d="m 47.930098,95.936414 0.390674,-2.27738 h 0.21239 l -0.04031,0.229443 q 0.122473,-0.155029 0.21549,-0.21084 0.09302,-0.05581 0.195337,-0.05581 0.187586,0 0.31626,0.168982 0.130225,0.168982 0.130225,0.494543 0,0.306958 -0.10542,0.559656 -0.10387,0.252698 -0.275952,0.390674 -0.133326,0.10697 -0.279053,0.10697 -0.243396,0 -0.376721,-0.300757 l -0.153479,0.894519 z m 0.452686,-1.249536 q 0,0.207739 0.08372,0.31781 0.08527,0.108521 0.21239,0.108521 0.100769,0 0.176733,-0.06666 0.108521,-0.09612 0.187586,-0.31626 0.07906,-0.221692 0.07906,-0.446484 0,-0.21084 -0.08527,-0.322461 -0.08372,-0.113171 -0.204639,-0.113171 -0.09612,0 -0.195337,0.08682 -0.09922,0.08527 -0.176733,0.302307 -0.07751,0.217041 -0.07751,0.449585 z"
         style="font-style:italic;stroke-width:0.99999994"
         id="path1428" />
      <path
         d="m 50.404366,95.100806 q -0.127124,0.133326 -0.238745,0.187586 -0.111621,0.05426 -0.226343,0.05426 -0.179834,0 -0.299206,-0.128674 -0.117822,-0.128675 -0.117822,-0.350366 0,-0.15813 0.06821,-0.275953 0.06821,-0.117822 0.190687,-0.179834 0.124023,-0.06356 0.353466,-0.07441 0.193787,-0.01085 0.2651,-0.02325 0.07286,-0.0124 0.124024,-0.03721 0.02791,-0.117822 0.02791,-0.192236 0,-0.10387 -0.07596,-0.165882 -0.07441,-0.06356 -0.217041,-0.06356 -0.286804,0 -0.372071,0.300757 l -0.232543,-0.02481 q 0.147277,-0.505395 0.618566,-0.505395 0.232544,0 0.36897,0.122473 0.136426,0.120923 0.136426,0.305408 0,0.130224 -0.03101,0.305407 l -0.07441,0.409278 q -0.03566,0.195337 -0.03566,0.31626 0,0.08527 0.02636,0.224792 h -0.230993 q -0.02015,-0.07752 -0.02791,-0.204639 z m 0.08527,-0.629419 q -0.08527,0.04031 -0.288354,0.06201 -0.207739,0.0217 -0.285254,0.05581 -0.07751,0.03411 -0.120923,0.103869 -0.04341,0.06976 -0.04341,0.161231 0,0.125574 0.06976,0.198437 0.06976,0.07286 0.186035,0.07286 0.110071,0 0.21239,-0.06821 0.10232,-0.06821 0.165882,-0.196887 0.06511,-0.128674 0.103869,-0.389124 z"
         style="font-style:italic;stroke-width:0.99999994"
         id="path1430" />
      <path
         d="m 51.875595,94.705482 0.230993,0.02945 q -0.08682,0.308509 -0.248047,0.458887 -0.16123,0.148828 -0.359667,0.148828 -0.213941,0 -0.355018,-0.168982 -0.139526,-0.168982 -0.139526,-0.489892 0,-0.31471 0.102319,-0.572059 0.10387,-0.257348 0.26045,-0.37362 0.158129,-0.116272 0.350366,-0.116272 0.207739,0 0.339514,0.145727 0.131775,0.145728 0.130225,0.399976 l -0.226343,0.0186 q 0,-0.161231 -0.07597,-0.246497 -0.07441,-0.08682 -0.184484,-0.08682 -0.122474,0 -0.221692,0.08216 -0.09767,0.08062 -0.170533,0.300757 -0.07131,0.218591 -0.07131,0.485242 0,0.198437 0.07751,0.302307 0.07906,0.102319 0.187585,0.102319 0.111621,0 0.213941,-0.10387 0.102319,-0.103869 0.15968,-0.316259 z"
         style="font-style:italic;stroke-width:0.99999994"
         id="path1432" />
      <path
         d="m 52.573227,93.350526 0.05426,-0.31781 h 0.229443 l -0.05426,0.31781 z m -0.334864,1.954919 0.282154,-1.646411 h 0.229443 l -0.282153,1.646411 z"
         style="font-style:italic;stroke-width:0.99999994"
         id="path1434" />
      <path
         d="m 53.362325,95.077552 -0.04031,0.229443 q -0.08217,0.02635 -0.15968,0.02635 -0.128675,0 -0.204639,-0.06821 -0.07441,-0.06821 -0.07441,-0.182934 0,-0.05426 0.03411,-0.249597 l 0.162781,-0.956531 h -0.181384 l 0.03721,-0.217041 h 0.181384 l 0.06976,-0.404627 0.26355,-0.193786 -0.102319,0.598413 h 0.224792 l -0.03721,0.217041 h -0.224792 l -0.15658,0.910022 q -0.02945,0.175183 -0.02945,0.206189 0,0.05426 0.0248,0.07907 0.02481,0.0248 0.07596,0.0248 0.07596,0 0.136426,-0.0186 z"
         style="font-style:italic;stroke-width:0.99999994"
         id="path1436" />
      <path
         d="m 53.463095,95.941065 0.01395,-0.26355 q 0.07131,0.02481 0.137976,0.02481 0.06976,0 0.111622,-0.03721 0.05891,-0.05271 0.124023,-0.193787 l 0.07286,-0.16123 -0.224793,-1.651062 h 0.226343 l 0.102319,0.832507 q 0.03101,0.249597 0.05271,0.492993 l 0.603064,-1.3255 h 0.240296 l -0.860413,1.865002 q -0.128674,0.282154 -0.227893,0.365869 -0.09767,0.08372 -0.215491,0.08372 -0.08062,0 -0.156579,-0.03256 z"
         style="font-style:italic;stroke-width:0.99999994"
         id="path1438" />
      <path
         d="m 55.142062,93.976844 0.05426,-0.31781 h 0.260449 l -0.05426,0.31781 z m -0.227893,1.328601 0.05426,-0.31781 h 0.260449 l -0.05426,0.31781 z"
         style="font-style:italic;stroke-width:0.99999994"
         id="path1440" />
      <path
         d="m 56.118746,95.305445 0.294555,-1.716174 q -0.189135,0.182934 -0.536401,0.293005 l 0.04341,-0.254248 q 0.221692,-0.10852 0.443384,-0.308508 0.168982,-0.150379 0.241846,-0.296106 h 0.134875 l -0.390674,2.282031 z"
         style="font-style:italic;stroke-width:0.99999994"
         id="path1442" />
      <path
         d="m 57.312472,93.976844 0.05426,-0.31781 h 0.258899 l -0.05426,0.31781 z m -0.227893,1.328601 0.05426,-0.31781 h 0.261999 l -0.04651,0.277502 q -0.07906,0.460437 -0.348816,0.499195 l 0.0217,-0.122473 q 0.150378,-0.05116 0.199988,-0.336414 z"
         style="font-style:italic;stroke-width:0.99999994"
         id="path1444" />
      <path
         d="m 58.543405,95.305445 0.05426,-0.31781 h 0.260449 l -0.05426,0.31781 z"
         style="font-style:italic;stroke-width:0.99999994"
         id="path1446" />
      <path
         d="m 59.268941,95.305445 0.05426,-0.31781 h 0.26045 l -0.05426,0.31781 z"
         style="font-style:italic;stroke-width:0.99999994"
         id="path1448" />
      <path
         d="m 59.994479,95.305445 0.05426,-0.31781 h 0.260449 l -0.05426,0.31781 z"
         style="font-style:italic;stroke-width:0.99999994"
         id="path1450" />
      <path
         d="m 61.63469,93.837318 0.0124,-0.432532 0.06356,-0.37207 h 0.262 l -0.06511,0.37207 -0.133325,0.432532 z m 0.420129,0 0.01395,-0.432532 0.06511,-0.37207 h 0.260449 l -0.06511,0.37207 -0.136426,0.432532 z"
         style="font-style:italic;stroke-width:0.99999994"
         id="path1452" />
      <path
         d="m 39.04692,99.123158 -0.141077,-1.646411 h 0.220142 l 0.06201,0.73949 q 0.0217,0.2682 0.03101,0.603064 0.06201,-0.246497 0.150379,-0.483692 l 0.32091,-0.858862 h 0.251148 l 0.04496,0.823206 q 0.0093,0.175183 0.0124,0.500744 0.06356,-0.209289 0.206189,-0.576709 l 0.289905,-0.747241 h 0.230993 l -0.660425,1.646411 h -0.238745 l -0.04961,-0.965832 q -0.0062,-0.100769 -0.0078,-0.350367 -0.05271,0.167432 -0.124023,0.358118 l -0.356567,0.958081 z"
         style="font-style:italic;stroke-width:0.99999994"
         id="path1454" />
      <path
         d="m 40.995638,97.168239 0.05426,-0.31781 h 0.229443 l -0.05426,0.31781 z m -0.334863,1.954919 0.282153,-1.646411 h 0.229444 l -0.282153,1.646411 z"
         style="font-style:italic;stroke-width:0.99999994"
         id="path1456" />
      <path
         d="m 42.155257,98.884413 q -0.195337,0.275952 -0.412378,0.275952 -0.186035,0 -0.316259,-0.168982 -0.130225,-0.168982 -0.130225,-0.506946 0,-0.302307 0.10387,-0.553454 0.103869,-0.252698 0.255798,-0.37207 0.151929,-0.119373 0.302307,-0.119373 0.249597,0 0.376721,0.296106 l 0.151929,-0.885217 h 0.229443 l -0.389123,2.272729 h -0.21239 z m -0.629419,-0.451135 -0.0016,0.06666 q 0,0.204639 0.09457,0.334864 0.07286,0.100769 0.192236,0.100769 0.15503,0 0.283704,-0.198438 0.168982,-0.2651 0.168982,-0.651123 0,-0.198437 -0.08682,-0.306958 -0.08682,-0.10852 -0.206189,-0.10852 -0.116272,0 -0.218592,0.103869 -0.102319,0.10387 -0.164331,0.311609 -0.06201,0.207739 -0.06201,0.347266 z"
         style="font-style:italic;stroke-width:0.99999994"
         id="path1458" />
      <path
         d="m 43.235812,98.895265 -0.04031,0.229443 q -0.08216,0.02635 -0.15968,0.02635 -0.128674,0 -0.204638,-0.06821 -0.07442,-0.06821 -0.07442,-0.182935 0,-0.05426 0.03411,-0.249597 l 0.162781,-0.956531 h -0.181385 l 0.03721,-0.217041 h 0.181385 l 0.06976,-0.404626 0.26355,-0.193787 -0.10232,0.598413 h 0.224793 l -0.03721,0.217041 h -0.224793 l -0.156579,0.910022 q -0.02946,0.175183 -0.02946,0.206189 0,0.05426 0.0248,0.07906 0.02481,0.02481 0.07596,0.02481 0.07596,0 0.136426,-0.0186 z"
         style="font-style:italic;stroke-width:0.99999994"
         id="path1460" />
      <path
         d="m 43.423397,99.123158 0.389123,-2.272729 h 0.230994 l -0.150379,0.872815 q 0.134876,-0.159681 0.244947,-0.221692 0.111621,-0.06201 0.223242,-0.06201 0.15968,0 0.255798,0.10387 0.09612,0.103869 0.09612,0.285254 0,0.08992 -0.04031,0.32246 l -0.165882,0.972034 H 44.276058 L 44.44814,98.12632 q 0.03721,-0.215491 0.03721,-0.272852 0,-0.08372 -0.04961,-0.133325 -0.04806,-0.04961 -0.128674,-0.04961 -0.119373,0 -0.229444,0.07286 -0.11007,0.07286 -0.178283,0.212391 -0.06821,0.137976 -0.124024,0.460437 l -0.122473,0.706933 z"
         style="font-style:italic;stroke-width:0.99999994"
         id="path1462" />
      <path
         d="m 46.162765,97.786806 h -1.230933 v -0.26045 h 1.230933 z m 0,0.68988 h -1.230933 v -0.260449 h 1.230933 z"
         style="font-style:italic;stroke-width:0.99999994"
         id="path1464" />
      <path
         d="m 46.646456,97.655031 0.0124,-0.432532 0.06356,-0.37207 h 0.262 l -0.06511,0.37207 -0.133325,0.432532 z m 0.42013,0 0.01395,-0.432532 0.06511,-0.37207 h 0.26045 l -0.06511,0.37207 -0.136425,0.432532 z"
         style="font-style:italic;stroke-width:0.99999994"
         id="path1466" />
      <path
         d="m 47.858786,99.123158 0.294555,-1.716174 q -0.189135,0.182934 -0.536401,0.293005 l 0.04341,-0.254248 q 0.221692,-0.10852 0.443384,-0.308508 0.168982,-0.150379 0.241846,-0.296106 h 0.134875 l -0.390674,2.282031 z"
         style="font-style:italic;stroke-width:0.99999994"
         id="path1468" />
      <path
         d="m 48.864925,98.473585 0.234094,-0.02791 -0.0031,0.07286 q 0,0.113171 0.04651,0.217041 0.04806,0.10387 0.117822,0.153479 0.07131,0.04961 0.150378,0.04961 0.09767,0 0.204639,-0.08216 0.10697,-0.08217 0.182935,-0.254248 0.07596,-0.172083 0.07596,-0.356568 0,-0.196887 -0.09457,-0.308508 -0.09457,-0.111621 -0.238745,-0.111621 -0.201538,0 -0.358118,0.235644 l -0.199988,-0.01705 0.279053,-1.162719 h 0.910022 l -0.04341,0.257348 H 49.41993 l -0.139526,0.578259 q 0.156579,-0.139526 0.333313,-0.139526 0.206189,0 0.347265,0.168982 0.141077,0.167432 0.141077,0.47439 0,0.42323 -0.226343,0.702282 -0.193786,0.238745 -0.482141,0.238745 -0.147278,0 -0.2651,-0.07441 -0.116272,-0.07596 -0.190686,-0.229443 -0.07441,-0.155029 -0.07441,-0.336414 z"
         style="font-style:italic;stroke-width:0.99999994"
         id="path1470" />
      <path
         d="m 50.472578,97.655031 0.0124,-0.432532 0.06356,-0.37207 h 0.261999 l -0.06511,0.37207 -0.133325,0.432532 z m 0.42013,0 0.01395,-0.432532 0.06511,-0.37207 h 0.260449 l -0.06511,0.37207 -0.136426,0.432532 z"
         style="font-style:italic;stroke-width:0.99999994"
         id="path1472" />
      <path
         d="m 51.869394,99.123158 0.389123,-2.272729 h 0.230994 l -0.150378,0.872815 q 0.134875,-0.159681 0.244946,-0.221692 0.111621,-0.06201 0.223242,-0.06201 0.15968,0 0.255798,0.10387 0.09612,0.103869 0.09612,0.285254 0,0.08992 -0.04031,0.32246 l -0.165881,0.972034 h -0.230994 l 0.172083,-0.996838 q 0.03721,-0.215491 0.03721,-0.272852 0,-0.08372 -0.04961,-0.133325 -0.04806,-0.04961 -0.128674,-0.04961 -0.119373,0 -0.229443,0.07286 -0.110071,0.07286 -0.178284,0.212391 -0.06821,0.137976 -0.124024,0.460437 l -0.122473,0.706933 z"
         style="font-style:italic;stroke-width:0.99999994"
         id="path1474" />
      <path
         d="m 54.311104,98.563502 0.224792,0.02791 q -0.05581,0.240295 -0.258899,0.418579 -0.168982,0.150378 -0.376721,0.150378 -0.147278,0 -0.268201,-0.07906 -0.120922,-0.08061 -0.192236,-0.238745 -0.07131,-0.15968 -0.07131,-0.379822 0,-0.289904 0.10852,-0.541052 0.110071,-0.251147 0.268201,-0.365869 0.15813,-0.116272 0.342615,-0.116272 0.234094,0 0.381372,0.178284 0.148828,0.178283 0.148828,0.503845 0,0.120923 -0.01705,0.248047 h -0.995288 q -0.0047,0.04961 -0.0047,0.08837 0,0.232544 0.08837,0.353467 0.08837,0.119373 0.21239,0.119373 0.117823,0 0.230994,-0.09457 0.114722,-0.09457 0.178284,-0.272852 z m -0.668176,-0.407727 h 0.758093 v -0.05736 q 0,-0.220141 -0.08682,-0.330212 -0.08682,-0.110071 -0.221692,-0.110071 -0.145727,0 -0.2682,0.124024 -0.120923,0.124023 -0.181384,0.37362 z"
         style="font-style:italic;stroke-width:0.99999994"
         id="path1476" />
      <path
         d="m 55.097103,97.168239 0.05426,-0.31781 h 0.229443 l -0.05426,0.31781 z m -0.334864,1.954919 0.282154,-1.646411 h 0.229443 l -0.282153,1.646411 z"
         style="font-style:italic;stroke-width:0.99999994"
         id="path1478" />
      <path
         d="m 55.335849,99.271986 0.232544,0.02635 v 0.03721 q 0,0.10697 0.06046,0.161231 0.06046,0.05426 0.189136,0.05426 0.199988,0 0.293005,-0.122473 0.06511,-0.08992 0.117822,-0.393775 l 0.02325,-0.133325 q -0.179834,0.221692 -0.381372,0.221692 -0.199988,0 -0.341065,-0.179834 -0.139526,-0.181384 -0.139526,-0.523999 0,-0.269751 0.10697,-0.506946 0.108521,-0.238745 0.260449,-0.355017 0.153479,-0.117822 0.308509,-0.117822 0.2651,0 0.409277,0.306958 l 0.04651,-0.269751 h 0.209289 l -0.271301,1.58905 q -0.06201,0.359668 -0.187585,0.517798 -0.15813,0.198438 -0.429432,0.198438 -0.257348,0 -0.386023,-0.114722 -0.127124,-0.113171 -0.127124,-0.311609 0,-0.03721 0.0062,-0.08372 z m 0.286804,-0.877466 q 0,0.184485 0.03876,0.288355 0.04031,0.10387 0.108521,0.15813 0.06976,0.05271 0.147277,0.05271 0.10387,0 0.21084,-0.08527 0.106971,-0.08682 0.184485,-0.286805 0.07751,-0.201538 0.07751,-0.412377 0,-0.20774 -0.09457,-0.325562 -0.09302,-0.117822 -0.224793,-0.117822 -0.10697,0 -0.21239,0.09612 -0.103869,0.09457 -0.170532,0.291455 -0.06511,0.195337 -0.06511,0.341064 z"
         style="font-style:italic;stroke-width:0.99999994"
         id="path1480" />
      <path
         d="m 56.799326,99.123158 0.389123,-2.272729 h 0.230994 l -0.150379,0.872815 q 0.134876,-0.159681 0.244947,-0.221692 0.111621,-0.06201 0.223242,-0.06201 0.15968,0 0.255798,0.10387 0.09612,0.103869 0.09612,0.285254 0,0.08992 -0.04031,0.32246 l -0.165882,0.972034 h -0.230993 l 0.172082,-0.996838 q 0.03721,-0.215491 0.03721,-0.272852 0,-0.08372 -0.04961,-0.133325 -0.04806,-0.04961 -0.128674,-0.04961 -0.119373,0 -0.229444,0.07286 -0.110071,0.07286 -0.178284,0.212391 -0.06821,0.137976 -0.124023,0.460437 l -0.122473,0.706933 z"
         style="font-style:italic;stroke-width:0.99999994"
         id="path1482" />
      <path
         d="m 58.78835,98.895265 -0.04031,0.229443 q -0.08216,0.02635 -0.15968,0.02635 -0.128674,0 -0.204639,-0.06821 -0.07441,-0.06821 -0.07441,-0.182935 0,-0.05426 0.03411,-0.249597 l 0.162781,-0.956531 h -0.181385 l 0.03721,-0.217041 h 0.181385 l 0.06976,-0.404626 0.26355,-0.193787 -0.10232,0.598413 h 0.224793 l -0.03721,0.217041 H 58.73719 l -0.156579,0.910022 q -0.02946,0.175183 -0.02946,0.206189 0,0.05426 0.02481,0.07906 0.0248,0.02481 0.07596,0.02481 0.07596,0 0.136426,-0.0186 z"
         style="font-style:italic;stroke-width:0.99999994"
         id="path1484" />
      <path
         d="m 60.26423,97.786806 h -1.230933 v -0.26045 h 1.230933 z m 0,0.68988 h -1.230933 v -0.260449 h 1.230933 z"
         style="font-style:italic;stroke-width:0.99999994"
         id="path1486" />
      <path
         d="m 60.747921,97.655031 0.0124,-0.432532 0.06356,-0.37207 h 0.261999 l -0.06511,0.37207 -0.133325,0.432532 z m 0.42013,0 0.01395,-0.432532 0.06511,-0.37207 h 0.260449 l -0.06511,0.37207 -0.136426,0.432532 z"
         style="font-style:italic;stroke-width:0.99999994"
         id="path1488" />
      <path
         d="m 61.960251,99.123158 0.294556,-1.716174 q -0.189136,0.182934 -0.536402,0.293005 l 0.04341,-0.254248 q 0.221692,-0.10852 0.443384,-0.308508 0.168982,-0.150379 0.241846,-0.296106 h 0.134875 l -0.390674,2.282031 z"
         style="font-style:italic;stroke-width:0.99999994"
         id="path1490" />
      <path
         d="m 62.96794,98.377467 q 0,-0.429431 0.137976,-0.829406 0.137976,-0.401526 0.333313,-0.575159 0.147278,-0.131775 0.31626,-0.131775 0.209289,0 0.355017,0.190686 0.145727,0.189136 0.145727,0.559656 0,0.365869 -0.09302,0.723987 -0.117823,0.454235 -0.331763,0.679028 -0.15968,0.167431 -0.365869,0.167431 -0.204639,0 -0.351917,-0.196887 -0.145727,-0.198437 -0.145727,-0.587561 z m 0.223242,0.07131 q 0,0.254248 0.08062,0.37207 0.08217,0.117822 0.206189,0.117822 0.128674,0 0.230994,-0.131775 0.170532,-0.217041 0.249597,-0.626318 0.07907,-0.409277 0.07907,-0.654224 0,-0.246496 -0.07907,-0.353466 -0.07751,-0.106971 -0.203088,-0.106971 -0.136426,0 -0.241846,0.130225 -0.148828,0.186035 -0.235645,0.606165 -0.08682,0.418579 -0.08682,0.646472 z"
         style="font-style:italic;stroke-width:0.99999994"
         id="path1492" />
      <path
         d="m 64.574044,97.655031 0.0124,-0.432532 0.06356,-0.37207 h 0.262 l -0.06511,0.37207 -0.133325,0.432532 z m 0.420129,0 0.01395,-0.432532 0.06511,-0.37207 h 0.260449 l -0.06511,0.37207 -0.136426,0.432532 z"
         style="font-style:italic;stroke-width:0.99999994"
         id="path1494" />
      <path
         d="m 38.699654,102.94087 0.587561,-0.83561 -0.336413,-0.8108 h 0.254248 l 0.113171,0.29301 q 0.06511,0.16588 0.114722,0.3147 l 0.389123,-0.60771 h 0.282154 l -0.567408,0.83251 0.339515,0.8139 h -0.254248 l -0.133326,-0.33486 q -0.04496,-0.11317 -0.09922,-0.2651 l -0.401526,0.59996 z"
         style="font-style:italic;stroke-width:0.99999994"
         id="path1496" />
      <path
         d="m 41.381661,101.60452 h -1.230932 v -0.26045 h 1.230932 z m 0,0.68988 h -1.230932 v -0.26045 h 1.230932 z"
         style="font-style:italic;stroke-width:0.99999994"
         id="path1498" />
      <path
         d="m 41.865353,101.47274 0.0124,-0.43253 0.06356,-0.37207 h 0.261999 l -0.06511,0.37207 -0.133325,0.43253 z m 0.420129,0 0.01395,-0.43253 0.06511,-0.37207 h 0.260449 l -0.06511,0.37207 -0.136426,0.43253 z"
         style="font-style:italic;stroke-width:0.99999994"
         id="path1500" />
      <path
         d="m 42.603292,102.94087 q 0.04961,-0.29145 0.179834,-0.48679 0.09767,-0.14728 0.486792,-0.5271 0.237195,-0.22944 0.325561,-0.37207 0.08992,-0.14418 0.08992,-0.29611 0,-0.16278 -0.09457,-0.2682 -0.09302,-0.10697 -0.220141,-0.10697 -0.130225,0 -0.227893,0.11007 -0.09767,0.11007 -0.139527,0.35657 l -0.224792,-0.0403 q 0.03411,-0.31316 0.195337,-0.48214 0.162781,-0.16898 0.392224,-0.16898 0.252698,0 0.399976,0.17518 0.147277,0.17519 0.147277,0.43409 0,0.23099 -0.134875,0.43873 -0.08372,0.13022 -0.47439,0.50849 -0.293005,0.28216 -0.379821,0.46819 h 0.834057 l -0.04496,0.25735 z"
         style="font-style:italic;stroke-width:0.99999994"
         id="path1502" />
      <path
         d="m 44.085372,102.19518 q 0,-0.42943 0.137976,-0.82941 0.137976,-0.40152 0.333313,-0.57516 0.147278,-0.13177 0.31626,-0.13177 0.20929,0 0.355017,0.19069 0.145728,0.18913 0.145728,0.55965 0,0.36587 -0.09302,0.72399 -0.117822,0.45423 -0.331762,0.67903 -0.159681,0.16743 -0.36587,0.16743 -0.204638,0 -0.351916,-0.19689 -0.145728,-0.19844 -0.145728,-0.58756 z m 0.223243,0.0713 q 0,0.25425 0.08061,0.37207 0.08217,0.11783 0.206189,0.11783 0.128674,0 0.230993,-0.13178 0.170533,-0.21704 0.249598,-0.62632 0.07906,-0.40927 0.07906,-0.65422 0,-0.2465 -0.07906,-0.35347 -0.07751,-0.10697 -0.203089,-0.10697 -0.136426,0 -0.241846,0.13023 -0.148828,0.18603 -0.235644,0.60616 -0.08682,0.41858 -0.08682,0.64647 z"
         style="font-style:italic;stroke-width:0.99999994"
         id="path1504" />
      <path
         d="m 45.691475,101.47274 0.0124,-0.43253 0.06356,-0.37207 h 0.261999 l -0.06511,0.37207 -0.133325,0.43253 z m 0.42013,0 0.01395,-0.43253 0.06511,-0.37207 h 0.260449 l -0.06511,0.37207 -0.136426,0.43253 z"
         style="font-style:italic;stroke-width:0.99999994"
         id="path1506" />
      <path
         d="m 47.001473,103.57649 0.01395,-0.26355 q 0.07131,0.0248 0.137976,0.0248 0.06976,0 0.111621,-0.0372 0.05891,-0.0527 0.124024,-0.19379 l 0.07286,-0.16123 -0.224792,-1.65106 h 0.226343 l 0.102319,0.83251 q 0.03101,0.24959 0.05271,0.49299 l 0.603064,-1.3255 h 0.240295 l -0.860412,1.865 q -0.128675,0.28216 -0.227893,0.36587 -0.09767,0.0837 -0.215491,0.0837 -0.08062,0 -0.15658,-0.0326 z"
         style="font-style:italic;stroke-width:0.99999994"
         id="path1508" />
      <path
         d="m 49.678829,101.60452 h -1.230932 v -0.26045 h 1.230932 z m 0,0.68988 h -1.230932 v -0.26045 h 1.230932 z"
         style="font-style:italic;stroke-width:0.99999994"
         id="path1510" />
      <path
         d="m 50.16252,101.47274 0.0124,-0.43253 0.06356,-0.37207 h 0.262 l -0.06511,0.37207 -0.133325,0.43253 z m 0.420129,0 0.01395,-0.43253 0.06511,-0.37207 h 0.260449 l -0.06511,0.37207 -0.136426,0.43253 z"
         style="font-style:italic;stroke-width:0.99999994"
         id="path1512" />
      <path
         d="m 51.374849,102.94087 0.294556,-1.71617 q -0.189136,0.18293 -0.536401,0.293 l 0.04341,-0.25425 q 0.221692,-0.10852 0.443384,-0.3085 0.168982,-0.15038 0.241845,-0.29611 h 0.134876 l -0.390674,2.28203 z"
         style="font-style:italic;stroke-width:0.99999994"
         id="path1514" />
      <path
         d="m 52.977853,102.94087 0.09922,-0.57981 h -0.759643 l 0.04806,-0.2775 1.043347,-1.41542 h 0.189136 l -0.248047,1.44487 h 0.261999 l -0.04186,0.24805 h -0.26355 l -0.09922,0.57981 z m 0.142627,-0.82786 0.16123,-0.94877 -0.692981,0.94877 z"
         style="font-style:italic;stroke-width:0.99999994"
         id="path1516" />
      <path
         d="m 54.276999,102.94087 0.294555,-1.71617 q -0.189136,0.18293 -0.536401,0.293 l 0.04341,-0.25425 q 0.221692,-0.10852 0.443384,-0.3085 0.168982,-0.15038 0.241845,-0.29611 h 0.134876 l -0.390674,2.28203 z"
         style="font-style:italic;stroke-width:0.99999994"
         id="path1518" />
      <path
         d="m 55.439719,101.47274 0.0124,-0.43253 0.06356,-0.37207 h 0.261999 l -0.06511,0.37207 -0.133325,0.43253 z m 0.420129,0 0.01395,-0.43253 0.06511,-0.37207 h 0.260449 l -0.06511,0.37207 -0.136426,0.43253 z"
         style="font-style:italic;stroke-width:0.99999994"
         id="path1520" />
      <path
         d="m 56.616391,102.97808 1.001489,-2.3487 h 0.199988 l -1.00149,2.3487 z"
         style="font-style:italic;stroke-width:0.99999994"
         id="path1522" />
      <path
         d="m 58.850362,101.94713 -1.234033,0.64338 V 102.313 l 0.978235,-0.49454 -0.978235,-0.48989 v -0.27751 l 1.234033,0.63562 z"
         style="font-style:italic;stroke-width:0.99999994"
         id="path1524" />
    </g>
    <g
       aria-label="(20,141)"
       style="font-style:normal;font-variant:normal;font-weight:normal;font-stretch:condensed;font-size:3.17499995px;line-height:1.20000005;font-family:Arial;-inkscape-font-specification:'Arial, Condensed';font-variant-ligatures:normal;font-variant-position:normal;font-variant-caps:normal;font-variant-numeric:normal;font-variant-alternates:normal;font-feature-settings:normal;text-indent:0;text-align:start;text-decoration:none;text-decoration-line:none;text-decoration-style:solid;text-decoration-color:#000000;letter-spacing:0px;word-spacing:0px;text-transform:none;writing-mode:lr-tb;direction:ltr;text-orientation:mixed;dominant-baseline:auto;baseline-shift:baseline;text-anchor:start;white-space:normal;shape-padding:0;opacity:1;vector-effect:none;fill:#000000;fill-opacity:1;stroke:none;stroke-width:0.99999994;stroke-linecap:butt;stroke-linejoin:miter;stroke-miterlimit:4;stroke-dasharray:none;stroke-dashoffset:0;stroke-opacity:1"
       id="text5467">
      <path
         d="m 12.055004,92.352876 q -0.170532,-0.26665 -0.311609,-0.657324 -0.139526,-0.390674 -0.139526,-0.835608 0,-0.753442 0.451135,-1.486731 h 0.164331 q -0.173632,0.364319 -0.240295,0.565857 -0.06511,0.199988 -0.10387,0.440283 -0.03721,0.240296 -0.03721,0.483692 0,0.74414 0.381372,1.489831 z"
         style="stroke-width:0.99999994"
         id="path1359" />
      <path
         d="M 13.625451,91.416499 V 91.6847 h -1.232483 q -0.0047,-0.162781 0.09767,-0.364319 0.103869,-0.201538 0.378271,-0.47594 0.320911,-0.31936 0.420129,-0.492993 0.09922,-0.175183 0.09922,-0.325561 0,-0.173633 -0.102319,-0.282154 -0.100769,-0.110071 -0.249597,-0.110071 -0.15968,0 -0.262,0.117823 -0.102319,0.117822 -0.102319,0.337964 l -0.235645,-0.02946 q 0.02481,-0.327112 0.184485,-0.491443 0.161231,-0.165881 0.42323,-0.165881 0.285254,0 0.430982,0.192236 0.147277,0.192236 0.147277,0.437183 0,0.217041 -0.114721,0.417029 -0.114722,0.198437 -0.435633,0.5302 -0.204638,0.209289 -0.2651,0.285254 -0.05891,0.07596 -0.09612,0.151928 z"
         style="stroke-width:0.99999994"
         id="path1361" />
      <path
         d="m 13.870397,90.563838 q 0,-0.572058 0.153479,-0.866614 0.15503,-0.294555 0.455786,-0.294555 0.266651,0 0.42013,0.238745 0.186035,0.288354 0.186035,0.922424 0,0.568958 -0.153479,0.865064 -0.153479,0.294555 -0.455786,0.294555 -0.266651,0 -0.437183,-0.260449 -0.168982,-0.260449 -0.168982,-0.89917 z m 0.234095,0 q 0,0.553455 0.105419,0.742591 0.106971,0.187585 0.272852,0.187585 0.15658,0 0.262,-0.190686 0.105419,-0.190686 0.105419,-0.73949 0,-0.555005 -0.10697,-0.74259 -0.10542,-0.187586 -0.274402,-0.187586 -0.155029,0 -0.260449,0.190686 -0.103869,0.190687 -0.103869,0.73949 z"
         style="stroke-width:0.99999994"
         id="path1363" />
      <path
         d="m 15.453247,91.6847 v -0.31781 h 0.260449 v 0.31781 q 0,0.184485 -0.05426,0.288355 -0.05426,0.105419 -0.15813,0.16123 l -0.06356,-0.119373 q 0.06976,-0.03721 0.10542,-0.111621 0.03566,-0.07286 0.03876,-0.218591 z"
         style="stroke-width:0.99999994"
         id="path1365" />
      <path
         d="m 16.908972,91.6847 h -0.229444 v -1.778186 q -0.07906,0.09302 -0.21239,0.190686 -0.133325,0.09612 -0.244946,0.145728 v -0.269751 q 0.189136,-0.108521 0.333313,-0.2651 0.145727,-0.15658 0.204638,-0.305408 h 0.148829 z"
         style="stroke-width:0.99999994"
         id="path1367" />
      <path
         d="m 18.231371,91.6847 v -0.544153 h -0.807702 v -0.255798 l 0.851111,-1.472778 h 0.186035 v 1.472778 h 0.252697 v 0.255798 H 18.460815 V 91.6847 Z m 0,-0.799951 v -1.024744 l -0.58291,1.024744 z"
         style="stroke-width:0.99999994"
         id="path1369" />
      <path
         d="m 19.81112,91.6847 h -0.229443 v -1.778186 q -0.07906,0.09302 -0.21239,0.190686 -0.133325,0.09612 -0.244946,0.145728 v -0.269751 q 0.189135,-0.108521 0.333313,-0.2651 0.145727,-0.15658 0.204638,-0.305408 h 0.148828 z"
         style="stroke-width:0.99999994"
         id="path1371" />
      <path
         d="M 20.555261,92.352876 H 20.39093 q 0.379822,-0.745691 0.379822,-1.489831 0,-0.243396 -0.03876,-0.483692 -0.03721,-0.240295 -0.102319,-0.440283 -0.06511,-0.201538 -0.238745,-0.565857 h 0.164331 q 0.451135,0.733289 0.451135,1.486731 0,0.432532 -0.134875,0.823206 -0.134876,0.389123 -0.31626,0.669726 z"
         style="stroke-width:0.99999994"
         id="path1373" />
    </g>
    <path
       transform="matrix(1.1535715,-0.68369423,0.68369423,1.1535715,-132.62762,-49.579551)"
       style="opacity:1;vector-effect:none;fill:none;fill-opacity:1;stroke:#000000;stroke-width:0.14798203;stroke-linecap:butt;stroke-linejoin:miter;stroke-miterlimit:4;stroke-dasharray:none;stroke-dashoffset:0;stroke-opacity:1"
       inkscape:transform-center-x="-0.0030383106"
       inkscape:transform-center-y="-0.64353937"
       d="m 36.115624,170.78853 -1.753148,-2.85751 -3.347832,-0.17576 2.175898,-2.55036 -0.867376,-3.23829 3.097927,1.28129 2.811764,-1.82561 -0.261275,3.34225 2.605142,2.11 -3.259402,0.78432 z"
       id="path5479" />
    <g
       aria-label="    &lt;path id=&quot;path5479&quot;
       sodipodi:type=&quot;star&quot;
       sodipodi:sides=&quot;5&quot;
       ......
       d=&quot;m 36.115624,170.25937 ...&quot; /&gt;"
       style="font-style:normal;font-variant:normal;font-weight:normal;font-stretch:condensed;font-size:3.17499995px;line-height:1.20000005;font-family:Arial;-inkscape-font-specification:'Arial, Condensed';font-variant-ligatures:normal;font-variant-position:normal;font-variant-caps:normal;font-variant-numeric:normal;font-variant-alternates:normal;font-feature-settings:normal;text-indent:0;text-align:start;text-decoration:none;text-decoration-line:none;text-decoration-style:solid;text-decoration-color:#000000;letter-spacing:0px;word-spacing:0px;text-transform:none;writing-mode:lr-tb;direction:ltr;text-orientation:mixed;dominant-baseline:auto;baseline-shift:baseline;text-anchor:start;white-space:normal;shape-padding:0;opacity:1;vector-effect:none;fill:#000000;fill-opacity:1;stroke:none;stroke-width:0.99999994;stroke-linecap:butt;stroke-linejoin:miter;stroke-miterlimit:4;stroke-dasharray:none;stroke-dashoffset:0;stroke-opacity:1"
       id="text5489">
      <path
         d="m 36.668771,109.01485 v -0.26045 l 1.234033,-0.63562 v 0.27751 l -0.978235,0.48989 0.978235,0.49454 v 0.2775 z"
         style="font-style:italic;stroke-width:0.99999994"
         id="path1175" />
      <path
         d="m 38.020626,110.63956 0.390674,-2.27738 h 0.21239 l -0.04031,0.22944 q 0.122473,-0.15503 0.215491,-0.21084 0.09302,-0.0558 0.195337,-0.0558 0.187585,0 0.31626,0.16898 0.130224,0.16899 0.130224,0.49455 0,0.30696 -0.10542,0.55965 -0.103869,0.2527 -0.275952,0.39068 -0.133325,0.10697 -0.279053,0.10697 -0.243396,0 -0.376721,-0.30076 l -0.153479,0.89452 z m 0.452685,-1.24954 q 0,0.20774 0.08372,0.31781 0.08527,0.10852 0.21239,0.10852 0.100769,0 0.176734,-0.0667 0.10852,-0.0961 0.187585,-0.31626 0.07906,-0.22169 0.07906,-0.44648 0,-0.21084 -0.08527,-0.32246 -0.08372,-0.11317 -0.204639,-0.11317 -0.09612,0 -0.195337,0.0868 -0.09922,0.0853 -0.176733,0.30231 -0.07751,0.21704 -0.07751,0.44958 z"
         style="font-style:italic;stroke-width:0.99999994"
         id="path1177" />
      <path
         d="m 40.494894,109.80395 q -0.127124,0.13333 -0.238745,0.18759 -0.111621,0.0543 -0.226343,0.0543 -0.179834,0 -0.299207,-0.12868 -0.117822,-0.12867 -0.117822,-0.35036 0,-0.15813 0.06821,-0.27595 0.06821,-0.11783 0.190686,-0.17984 0.124023,-0.0636 0.353467,-0.0744 0.193786,-0.0109 0.2651,-0.0233 0.07286,-0.0124 0.124023,-0.0372 0.02791,-0.11783 0.02791,-0.19224 0,-0.10387 -0.07597,-0.16588 -0.07441,-0.0636 -0.217041,-0.0636 -0.286804,0 -0.37207,0.30075 l -0.232544,-0.0248 q 0.147278,-0.5054 0.618567,-0.5054 0.232544,0 0.36897,0.12248 0.136425,0.12092 0.136425,0.3054 0,0.13023 -0.03101,0.30541 l -0.07441,0.40928 q -0.03566,0.19534 -0.03566,0.31626 0,0.0853 0.02636,0.22479 h -0.230994 q -0.02015,-0.0775 -0.0279,-0.20464 z m 0.08527,-0.62942 q -0.08527,0.0403 -0.288355,0.062 -0.207739,0.0217 -0.285253,0.0558 -0.07751,0.0341 -0.120923,0.10386 -0.04341,0.0698 -0.04341,0.16124 0,0.12557 0.06976,0.19843 0.06976,0.0729 0.186035,0.0729 0.110071,0 0.21239,-0.0682 0.102319,-0.0682 0.165881,-0.19688 0.06511,-0.12868 0.10387,-0.38913 z"
         style="font-style:italic;stroke-width:0.99999994"
         id="path1179" />
      <path
         d="m 41.573898,109.7807 -0.04031,0.22944 q -0.08217,0.0264 -0.15968,0.0264 -0.128674,0 -0.204639,-0.0682 -0.07441,-0.0682 -0.07441,-0.18293 0,-0.0543 0.03411,-0.2496 l 0.16278,-0.95653 H 41.11036 l 0.03721,-0.21704 h 0.181384 l 0.06976,-0.40463 0.263549,-0.19378 -0.102319,0.59841 h 0.224792 l -0.03721,0.21704 h -0.224792 l -0.15658,0.91002 q -0.02945,0.17519 -0.02945,0.20619 0,0.0543 0.02481,0.0791 0.0248,0.0248 0.07596,0.0248 0.07596,0 0.136426,-0.0186 z"
         style="font-style:italic;stroke-width:0.99999994"
         id="path1181" />
      <path
         d="m 41.761483,110.00859 0.389123,-2.27273 H 42.3816 l -0.150378,0.87282 q 0.134875,-0.15968 0.244946,-0.2217 0.111621,-0.062 0.223242,-0.062 0.15968,0 0.255798,0.10387 0.09612,0.10387 0.09612,0.28526 0,0.0899 -0.04031,0.32246 l -0.165881,0.97203 h -0.230994 l 0.172082,-0.99684 q 0.03721,-0.21549 0.03721,-0.27285 0,-0.0837 -0.04961,-0.13332 -0.04806,-0.0496 -0.128674,-0.0496 -0.119373,0 -0.229444,0.0729 -0.11007,0.0729 -0.178283,0.21239 -0.06821,0.13798 -0.124024,0.46044 l -0.122473,0.70693 z"
         style="font-style:italic;stroke-width:0.99999994"
         id="path1183" />
      <path
         d="m 44.263656,108.05367 0.05426,-0.31781 h 0.229444 l -0.05426,0.31781 z m -0.334863,1.95492 0.282153,-1.64641 h 0.229444 l -0.282154,1.64641 z"
         style="font-style:italic;stroke-width:0.99999994"
         id="path1185" />
      <path
         d="m 45.423275,109.76985 q -0.195337,0.27595 -0.412378,0.27595 -0.186035,0 -0.31626,-0.16898 -0.130224,-0.16899 -0.130224,-0.50695 0,-0.30231 0.10387,-0.55345 0.103869,-0.2527 0.255798,-0.37207 0.151929,-0.11938 0.302307,-0.11938 0.249597,0 0.376721,0.29611 l 0.151929,-0.88522 h 0.229443 l -0.389123,2.27273 h -0.21239 z m -0.629419,-0.45114 -0.0015,0.0667 q 0,0.20464 0.09457,0.33487 0.07286,0.10077 0.192236,0.10077 0.155029,0 0.283704,-0.19844 0.168982,-0.2651 0.168982,-0.65113 0,-0.19843 -0.08682,-0.30695 -0.08682,-0.10852 -0.206189,-0.10852 -0.116272,0 -0.218591,0.10387 -0.102319,0.10387 -0.164331,0.3116 -0.06201,0.20774 -0.06201,0.34727 z"
         style="font-style:italic;stroke-width:0.99999994"
         id="path1187" />
      <path
         d="m 47.254172,108.67224 h -1.230933 v -0.26045 h 1.230933 z m 0,0.68988 h -1.230933 v -0.26045 h 1.230933 z"
         style="font-style:italic;stroke-width:0.99999994"
         id="path1189" />
      <path
         d="m 47.737863,108.54046 0.0124,-0.43253 0.06356,-0.37207 h 0.262 l -0.06511,0.37207 -0.133326,0.43253 z m 0.420129,0 0.01395,-0.43253 0.06511,-0.37207 h 0.26045 l -0.06511,0.37207 -0.136426,0.43253 z"
         style="font-style:italic;stroke-width:0.99999994"
         id="path1191" />
      <path
         d="m 48.295968,110.63956 0.390674,-2.27738 h 0.21239 l -0.04031,0.22944 q 0.122473,-0.15503 0.215491,-0.21084 0.09302,-0.0558 0.195337,-0.0558 0.187585,0 0.31626,0.16898 0.130224,0.16899 0.130224,0.49455 0,0.30696 -0.10542,0.55965 -0.103869,0.2527 -0.275952,0.39068 -0.133325,0.10697 -0.279053,0.10697 -0.243396,0 -0.376721,-0.30076 l -0.153479,0.89452 z m 0.452685,-1.24954 q 0,0.20774 0.08372,0.31781 0.08527,0.10852 0.21239,0.10852 0.100769,0 0.176734,-0.0667 0.10852,-0.0961 0.187585,-0.31626 0.07906,-0.22169 0.07906,-0.44648 0,-0.21084 -0.08527,-0.32246 -0.08372,-0.11317 -0.204639,-0.11317 -0.09612,0 -0.195337,0.0868 -0.09922,0.0853 -0.176733,0.30231 -0.07752,0.21704 -0.07752,0.44958 z"
         style="font-style:italic;stroke-width:0.99999994"
         id="path1193" />
      <path
         d="m 50.770236,109.80395 q -0.127124,0.13333 -0.238745,0.18759 -0.111621,0.0543 -0.226343,0.0543 -0.179834,0 -0.299207,-0.12868 -0.117822,-0.12867 -0.117822,-0.35036 0,-0.15813 0.06821,-0.27595 0.06821,-0.11783 0.190686,-0.17984 0.124023,-0.0636 0.353467,-0.0744 0.193786,-0.0109 0.2651,-0.0233 0.07286,-0.0124 0.124023,-0.0372 0.02791,-0.11783 0.02791,-0.19224 0,-0.10387 -0.07596,-0.16588 -0.07441,-0.0636 -0.217041,-0.0636 -0.286804,0 -0.37207,0.30075 l -0.232544,-0.0248 q 0.147278,-0.5054 0.618567,-0.5054 0.232544,0 0.36897,0.12248 0.136425,0.12092 0.136425,0.3054 0,0.13023 -0.03101,0.30541 l -0.07442,0.40928 q -0.03566,0.19534 -0.03566,0.31626 0,0.0853 0.02635,0.22479 h -0.230994 q -0.02015,-0.0775 -0.02791,-0.20464 z m 0.08527,-0.62942 q -0.08527,0.0403 -0.288355,0.062 -0.207739,0.0217 -0.285253,0.0558 -0.07751,0.0341 -0.120923,0.10386 -0.04341,0.0698 -0.04341,0.16124 0,0.12557 0.06976,0.19843 0.06976,0.0729 0.186035,0.0729 0.110071,0 0.21239,-0.0682 0.102319,-0.0682 0.165881,-0.19688 0.06511,-0.12868 0.10387,-0.38913 z"
         style="font-style:italic;stroke-width:0.99999994"
         id="path1195" />
      <path
         d="m 51.84924,109.7807 -0.04031,0.22944 q -0.08216,0.0264 -0.15968,0.0264 -0.128674,0 -0.204638,-0.0682 -0.07441,-0.0682 -0.07441,-0.18293 0,-0.0543 0.03411,-0.2496 l 0.162781,-0.95653 h -0.181384 l 0.03721,-0.21704 h 0.181384 l 0.06976,-0.40463 0.26355,-0.19378 -0.10232,0.59841 h 0.224793 l -0.03721,0.21704 H 51.79808 l -0.156579,0.91002 q -0.02946,0.17519 -0.02946,0.20619 0,0.0543 0.02481,0.0791 0.02481,0.0248 0.07596,0.0248 0.07596,0 0.136426,-0.0186 z"
         style="font-style:italic;stroke-width:0.99999994"
         id="path1197" />
      <path
         d="m 52.036825,110.00859 0.389123,-2.27273 h 0.230994 l -0.150378,0.87282 q 0.134875,-0.15968 0.244946,-0.2217 0.111621,-0.062 0.223242,-0.062 0.15968,0 0.255798,0.10387 0.09612,0.10387 0.09612,0.28526 0,0.0899 -0.04031,0.32246 l -0.165881,0.97203 h -0.230994 l 0.172082,-0.99684 q 0.03721,-0.21549 0.03721,-0.27285 0,-0.0837 -0.04961,-0.13332 -0.04806,-0.0496 -0.128674,-0.0496 -0.119373,0 -0.229444,0.0729 -0.11007,0.0729 -0.178283,0.21239 -0.06821,0.13798 -0.124024,0.46044 l -0.122473,0.70693 z"
         style="font-style:italic;stroke-width:0.99999994"
         id="path1199" />
      <path
         d="m 53.584018,109.35902 0.234094,-0.0279 -0.0031,0.0729 q 0,0.11317 0.04651,0.21704 0.04806,0.10387 0.117822,0.15348 0.07131,0.0496 0.150379,0.0496 0.09767,0 0.204638,-0.0822 0.106971,-0.0822 0.182935,-0.25425 0.07596,-0.17208 0.07596,-0.35657 0,-0.19688 -0.09457,-0.3085 -0.09457,-0.11162 -0.238745,-0.11162 -0.201538,0 -0.358117,0.23564 l -0.199988,-0.017 0.279053,-1.16272 h 0.910022 l -0.04341,0.25735 h -0.708484 l -0.139526,0.57825 q 0.15658,-0.13952 0.333313,-0.13952 0.206189,0 0.347266,0.16898 0.141076,0.16743 0.141076,0.47439 0,0.42323 -0.226342,0.70228 -0.193787,0.23875 -0.482142,0.23875 -0.147277,0 -0.2651,-0.0744 -0.116272,-0.076 -0.190686,-0.22944 -0.07441,-0.15503 -0.07441,-0.33641 z"
         style="font-style:italic;stroke-width:0.99999994"
         id="path1201" />
      <path
         d="m 55.631955,110.00859 0.09922,-0.57981 H 54.97153 l 0.04806,-0.2775 1.043347,-1.41542 h 0.189136 l -0.248047,1.44487 h 0.262 l -0.04186,0.24805 h -0.26355 l -0.09922,0.57981 z m 0.142627,-0.82786 0.16123,-0.94878 -0.692981,0.94878 z"
         style="font-style:italic;stroke-width:0.99999994"
         id="path1203" />
      <path
         d="m 56.681504,110.00859 q 0.04031,-0.29611 0.173632,-0.68988 0.133326,-0.39377 0.31471,-0.72864 0.182935,-0.33486 0.379822,-0.56585 h -0.930176 l 0.04496,-0.25735 h 1.190625 l -0.04496,0.25735 q -0.293005,0.31471 -0.510046,0.7922 -0.275953,0.61081 -0.378272,1.19217 z"
         style="font-style:italic;stroke-width:0.99999994"
         id="path1205" />
      <path
         d="m 57.929488,109.48769 0.215491,-0.0263 q 0.04186,0.35191 0.249597,0.35191 0.136426,0 0.249597,-0.14417 0.164331,-0.20774 0.240295,-0.58291 -0.122473,0.11162 -0.21239,0.15348 -0.08992,0.0418 -0.175183,0.0418 -0.193786,0 -0.337964,-0.17518 -0.144177,-0.17673 -0.144177,-0.48679 0,-0.34262 0.176733,-0.61702 0.176734,-0.27595 0.461988,-0.27595 0.226343,0 0.381372,0.20464 0.155029,0.20464 0.155029,0.59221 0,0.45424 -0.136426,0.84181 -0.134875,0.38602 -0.308508,0.53485 -0.173633,0.14728 -0.362768,0.14728 -0.186036,0 -0.311609,-0.14263 -0.125574,-0.14263 -0.141077,-0.41703 z m 0.306958,-0.89917 q 0,0.21859 0.09457,0.34417 0.09457,0.12402 0.220141,0.12402 0.173633,0 0.302308,-0.21704 0.116272,-0.19689 0.116272,-0.42478 0,-0.13643 -0.04806,-0.2465 -0.04806,-0.11007 -0.122473,-0.16278 -0.07441,-0.0543 -0.151928,-0.0543 -0.08837,0 -0.182935,0.0744 -0.09302,0.0744 -0.16123,0.23564 -0.06666,0.15968 -0.06666,0.32711 z"
         style="font-style:italic;stroke-width:0.99999994"
         id="path1207" />
      <path
         d="m 59.544894,108.54046 0.0124,-0.43253 0.06356,-0.37207 h 0.262 l -0.06511,0.37207 -0.133325,0.43253 z m 0.420129,0 0.01395,-0.43253 0.06511,-0.37207 h 0.260449 l -0.06511,0.37207 -0.136426,0.43253 z"
         style="font-style:italic;stroke-width:0.99999994"
         id="path1209" />
      <path
         d="m 38.803524,113.26355 0.230994,-0.0171 q -0.0016,0.20154 0.08837,0.30076 0.08992,0.0992 0.244947,0.0992 0.141076,0 0.223242,-0.0698 0.08216,-0.0713 0.08216,-0.18139 0,-0.0791 -0.05116,-0.14262 -0.05271,-0.0636 -0.227893,-0.15503 -0.201539,-0.10542 -0.266651,-0.16123 -0.06356,-0.0574 -0.09922,-0.13798 -0.03566,-0.0822 -0.03566,-0.18293 0,-0.20619 0.133325,-0.33952 0.133325,-0.13332 0.350366,-0.13332 0.240295,0 0.379822,0.13797 0.139526,0.13643 0.145727,0.38292 l -0.226342,0.0186 q -0.0047,-0.15503 -0.08992,-0.23875 -0.08372,-0.0837 -0.226343,-0.0837 -0.111621,0 -0.181384,0.0636 -0.06976,0.062 -0.06976,0.14418 0,0.0713 0.04186,0.12247 0.04186,0.0527 0.21239,0.14108 0.262,0.13797 0.333313,0.22014 0.108521,0.12867 0.108521,0.31316 0,0.20464 -0.145728,0.35191 -0.144177,0.14728 -0.401525,0.14728 -0.258899,0 -0.406177,-0.14883 -0.147278,-0.14883 -0.147278,-0.42013 z"
         style="font-style:italic;stroke-width:0.99999994"
         id="path1211" />
      <path
         d="m 40.133675,113.20154 q 0,-0.44494 0.199988,-0.7519 0.199988,-0.30695 0.536401,-0.30695 0.235645,0 0.389124,0.18138 0.153479,0.17983 0.153479,0.51315 0,0.3054 -0.10542,0.5457 -0.10387,0.2403 -0.271301,0.36122 -0.165882,0.11937 -0.348816,0.11937 -0.240296,0 -0.396875,-0.17673 -0.15658,-0.17829 -0.15658,-0.48524 z m 0.230994,-0.0279 q 0,0.23409 0.09302,0.35347 0.09302,0.11937 0.232543,0.11937 0.110071,0 0.220142,-0.0884 0.110071,-0.0899 0.192236,-0.2961 0.08217,-0.20619 0.08217,-0.42323 0,-0.23565 -0.09302,-0.35657 -0.09302,-0.12247 -0.229443,-0.12247 -0.119373,0 -0.232544,0.0884 -0.111621,0.0884 -0.189136,0.29301 -0.07596,0.20309 -0.07596,0.43253 z"
         style="font-style:italic;stroke-width:0.99999994"
         id="path1213" />
      <path
         d="m 42.452914,113.58756 q -0.195337,0.27595 -0.412378,0.27595 -0.186035,0 -0.31626,-0.16898 -0.130224,-0.16898 -0.130224,-0.50695 0,-0.3023 0.103869,-0.55345 0.10387,-0.2527 0.255799,-0.37207 0.151928,-0.11937 0.302307,-0.11937 0.249597,0 0.376721,0.2961 l 0.151929,-0.88522 h 0.229443 l -0.389124,2.27273 h -0.21239 z m -0.629419,-0.45114 -0.0016,0.0667 q 0,0.20463 0.09457,0.33486 0.07286,0.10077 0.192236,0.10077 0.155029,0 0.283704,-0.19844 0.168981,-0.2651 0.168981,-0.65112 0,-0.19844 -0.08682,-0.30696 -0.08682,-0.10852 -0.206189,-0.10852 -0.116272,0 -0.218591,0.10387 -0.10232,0.10387 -0.164331,0.31161 -0.06201,0.20774 -0.06201,0.34726 z"
         style="font-style:italic;stroke-width:0.99999994"
         id="path1215" />
      <path
         d="m 43.321078,111.87138 0.05426,-0.31781 h 0.229444 l -0.05426,0.31781 z m -0.334863,1.95492 0.282153,-1.64641 h 0.229443 l -0.282153,1.64641 z"
         style="font-style:italic;stroke-width:0.99999994"
         id="path1217" />
      <path
         d="m 43.459054,114.45727 0.390674,-2.27738 h 0.21239 l -0.04031,0.22945 q 0.122473,-0.15503 0.215491,-0.21084 0.09302,-0.0558 0.195337,-0.0558 0.187585,0 0.31626,0.16898 0.130224,0.16898 0.130224,0.49454 0,0.30696 -0.10542,0.55966 -0.103869,0.25269 -0.275952,0.39067 -0.133325,0.10697 -0.279053,0.10697 -0.243396,0 -0.376721,-0.30076 l -0.153479,0.89452 z m 0.452685,-1.24953 q 0,0.20774 0.08372,0.31781 0.08527,0.10852 0.21239,0.10852 0.100769,0 0.176734,-0.0667 0.10852,-0.0961 0.187585,-0.31625 0.07906,-0.2217 0.07906,-0.44649 0,-0.21084 -0.08527,-0.32246 -0.08372,-0.11317 -0.204639,-0.11317 -0.09612,0 -0.195337,0.0868 -0.09922,0.0853 -0.176733,0.30231 -0.07752,0.21704 -0.07752,0.44959 z"
         style="font-style:italic;stroke-width:0.99999994"
         id="path1219" />
      <path
         d="m 45.063607,113.20154 q 0,-0.44494 0.199988,-0.7519 0.199988,-0.30695 0.536402,-0.30695 0.235644,0 0.389123,0.18138 0.153479,0.17983 0.153479,0.51315 0,0.3054 -0.10542,0.5457 -0.103869,0.2403 -0.271301,0.36122 -0.165881,0.11937 -0.348816,0.11937 -0.240295,0 -0.396875,-0.17673 -0.15658,-0.17829 -0.15658,-0.48524 z m 0.230994,-0.0279 q 0,0.23409 0.09302,0.35347 0.09302,0.11937 0.232544,0.11937 0.11007,0 0.220141,-0.0884 0.110071,-0.0899 0.192236,-0.2961 0.08217,-0.20619 0.08217,-0.42323 0,-0.23565 -0.09302,-0.35657 -0.09302,-0.12247 -0.229443,-0.12247 -0.119372,0 -0.232544,0.0884 -0.111621,0.0884 -0.189136,0.29301 -0.07596,0.20309 -0.07596,0.43253 z"
         style="font-style:italic;stroke-width:0.99999994"
         id="path1221" />
      <path
         d="m 47.382845,113.58756 q -0.195337,0.27595 -0.412378,0.27595 -0.186035,0 -0.31626,-0.16898 -0.130224,-0.16898 -0.130224,-0.50695 0,-0.3023 0.103869,-0.55345 0.10387,-0.2527 0.255799,-0.37207 0.151928,-0.11937 0.302307,-0.11937 0.249597,0 0.376721,0.2961 l 0.151929,-0.88522 h 0.229443 l -0.389123,2.27273 h -0.212391 z m -0.629419,-0.45114 -0.0015,0.0667 q 0,0.20463 0.09457,0.33486 0.07286,0.10077 0.192236,0.10077 0.155029,0 0.283704,-0.19844 0.168982,-0.2651 0.168982,-0.65112 0,-0.19844 -0.08682,-0.30696 -0.08682,-0.10852 -0.206189,-0.10852 -0.116272,0 -0.218591,0.10387 -0.102319,0.10387 -0.164331,0.31161 -0.06201,0.20774 -0.06201,0.34726 z"
         style="font-style:italic;stroke-width:0.99999994"
         id="path1223" />
      <path
         d="m 48.25101,111.87138 0.05426,-0.31781 h 0.229443 l -0.05426,0.31781 z m -0.334864,1.95492 0.282154,-1.64641 h 0.229443 l -0.282153,1.64641 z"
         style="font-style:italic;stroke-width:0.99999994"
         id="path1225" />
      <path
         d="m 48.792062,112.4977 0.05426,-0.31781 h 0.260449 l -0.05426,0.31781 z m -0.227893,1.3286 0.05426,-0.31781 h 0.260449 l -0.05426,0.31781 z"
         style="font-style:italic;stroke-width:0.99999994"
         id="path1227" />
      <path
         d="m 49.765646,113.59841 -0.04031,0.22944 q -0.08217,0.0264 -0.15968,0.0264 -0.128674,0 -0.204639,-0.0682 -0.07441,-0.0682 -0.07441,-0.18294 0,-0.0543 0.03411,-0.2496 l 0.16278,-0.95653 h -0.181384 l 0.03721,-0.21704 h 0.181384 l 0.06976,-0.40462 0.263549,-0.19379 -0.102319,0.59841 h 0.224793 l -0.03721,0.21704 h -0.224793 l -0.156579,0.91003 q -0.02946,0.17518 -0.02946,0.20618 0,0.0543 0.02481,0.0791 0.0248,0.0248 0.07596,0.0248 0.07596,0 0.136426,-0.0186 z"
         style="font-style:italic;stroke-width:0.99999994"
         id="path1229" />
      <path
         d="m 49.866415,114.46192 0.01395,-0.26355 q 0.07131,0.0248 0.137976,0.0248 0.06976,0 0.111621,-0.0372 0.05891,-0.0527 0.124023,-0.19378 l 0.07286,-0.16124 -0.224792,-1.65106 h 0.226342 l 0.10232,0.83251 q 0.03101,0.2496 0.05271,0.49299 l 0.603064,-1.3255 h 0.240295 l -0.860413,1.86501 q -0.128674,0.28215 -0.227893,0.36586 -0.09767,0.0837 -0.21549,0.0837 -0.08062,0 -0.15658,-0.0326 z"
         style="font-style:italic;stroke-width:0.99999994"
         id="path1231" />
      <path
         d="m 51.142306,114.45727 0.390674,-2.27738 h 0.21239 l -0.04031,0.22945 q 0.122474,-0.15503 0.215491,-0.21084 0.09302,-0.0558 0.195337,-0.0558 0.187586,0 0.31626,0.16898 0.130224,0.16898 0.130224,0.49454 0,0.30696 -0.105419,0.55966 -0.10387,0.25269 -0.275953,0.39067 -0.133325,0.10697 -0.279052,0.10697 -0.243396,0 -0.376722,-0.30076 l -0.153479,0.89452 z m 0.452686,-1.24953 q 0,0.20774 0.08372,0.31781 0.08527,0.10852 0.212391,0.10852 0.100769,0 0.176733,-0.0667 0.108521,-0.0961 0.187585,-0.31625 0.07906,-0.2217 0.07906,-0.44649 0,-0.21084 -0.08527,-0.32246 -0.08372,-0.11317 -0.204638,-0.11317 -0.09612,0 -0.195337,0.0868 -0.09922,0.0853 -0.176734,0.30231 -0.07751,0.21704 -0.07751,0.44959 z"
         style="font-style:italic;stroke-width:0.99999994"
         id="path1233" />
      <path
         d="m 53.697189,113.26665 0.224793,0.0279 q -0.05581,0.2403 -0.258899,0.41858 -0.168982,0.15038 -0.376721,0.15038 -0.147278,0 -0.268201,-0.0791 -0.120923,-0.0806 -0.192236,-0.23875 -0.07131,-0.15968 -0.07131,-0.37982 0,-0.28991 0.108521,-0.54105 0.110071,-0.25115 0.2682,-0.36587 0.15813,-0.11627 0.342615,-0.11627 0.234094,0 0.381372,0.17828 0.148828,0.17828 0.148828,0.50384 0,0.12093 -0.01705,0.24805 h -0.995288 q -0.0047,0.0496 -0.0047,0.0884 0,0.23254 0.08837,0.35346 0.08837,0.11938 0.21239,0.11938 0.117822,0 0.230994,-0.0946 0.114721,-0.0946 0.178283,-0.27285 z m -0.668176,-0.40773 h 0.758093 v -0.0574 q 0,-0.22014 -0.08682,-0.33021 -0.08682,-0.11007 -0.221692,-0.11007 -0.145728,0 -0.268201,0.12402 -0.120923,0.12402 -0.181384,0.37362 z"
         style="font-style:italic;stroke-width:0.99999994"
         id="path1235" />
      <path
         d="m 55.44592,112.48995 h -1.230932 v -0.26045 h 1.230932 z m 0,0.68988 h -1.230932 v -0.26045 h 1.230932 z"
         style="font-style:italic;stroke-width:0.99999994"
         id="path1237" />
      <path
         d="m 55.929612,112.35818 0.0124,-0.43254 0.06356,-0.37207 h 0.261999 l -0.06511,0.37207 -0.133325,0.43254 z m 0.420129,0 0.01395,-0.43254 0.06511,-0.37207 h 0.260449 l -0.06511,0.37207 -0.136426,0.43254 z"
         style="font-style:italic;stroke-width:0.99999994"
         id="path1239" />
      <path
         d="m 56.613289,113.26355 0.230994,-0.0171 q -0.0015,0.20154 0.08837,0.30076 0.08992,0.0992 0.244946,0.0992 0.141077,0 0.223242,-0.0698 0.08217,-0.0713 0.08217,-0.18139 0,-0.0791 -0.05116,-0.14262 -0.05271,-0.0636 -0.227893,-0.15503 -0.201538,-0.10542 -0.266651,-0.16123 -0.06356,-0.0574 -0.09922,-0.13798 -0.03566,-0.0822 -0.03566,-0.18293 0,-0.20619 0.133325,-0.33952 0.133325,-0.13332 0.350366,-0.13332 0.240296,0 0.379822,0.13797 0.139527,0.13643 0.145728,0.38292 l -0.226343,0.0186 q -0.0047,-0.15503 -0.08992,-0.23875 -0.08372,-0.0837 -0.226343,-0.0837 -0.111621,0 -0.181384,0.0636 -0.06976,0.062 -0.06976,0.14418 0,0.0713 0.04186,0.12247 0.04186,0.0527 0.21239,0.14108 0.261999,0.13797 0.333313,0.22014 0.10852,0.12867 0.10852,0.31316 0,0.20464 -0.145727,0.35191 -0.144178,0.14728 -0.401526,0.14728 -0.258899,0 -0.406177,-0.14883 -0.147278,-0.14883 -0.147278,-0.42013 z"
         style="font-style:italic;stroke-width:0.99999994"
         id="path1241" />
      <path
         d="m 58.441085,113.59841 -0.04031,0.22944 q -0.08216,0.0264 -0.15968,0.0264 -0.128674,0 -0.204639,-0.0682 -0.07441,-0.0682 -0.07441,-0.18294 0,-0.0543 0.03411,-0.2496 l 0.16278,-0.95653 h -0.181384 l 0.03721,-0.21704 h 0.181384 l 0.06976,-0.40462 0.263549,-0.19379 -0.102319,0.59841 h 0.224793 l -0.03721,0.21704 h -0.224792 l -0.15658,0.91003 q -0.02945,0.17518 -0.02945,0.20618 0,0.0543 0.02481,0.0791 0.0248,0.0248 0.07596,0.0248 0.07596,0 0.136426,-0.0186 z"
         style="font-style:italic;stroke-width:0.99999994"
         id="path1243" />
      <path
         d="m 59.538693,113.62167 q -0.127124,0.13332 -0.238745,0.18758 -0.111621,0.0543 -0.226343,0.0543 -0.179834,0 -0.299206,-0.12867 -0.117822,-0.12868 -0.117822,-0.35037 0,-0.15813 0.06821,-0.27595 0.06821,-0.11782 0.190686,-0.17984 0.124024,-0.0636 0.353467,-0.0744 0.193787,-0.0109 0.2651,-0.0233 0.07286,-0.0124 0.124024,-0.0372 0.02791,-0.11782 0.02791,-0.19224 0,-0.10387 -0.07596,-0.16588 -0.07441,-0.0636 -0.217041,-0.0636 -0.286805,0 -0.372071,0.30076 l -0.232544,-0.0248 q 0.147278,-0.50539 0.618567,-0.50539 0.232544,0 0.36897,0.12247 0.136426,0.12092 0.136426,0.30541 0,0.13022 -0.03101,0.3054 l -0.07441,0.40928 q -0.03566,0.19534 -0.03566,0.31626 0,0.0853 0.02636,0.22479 h -0.230994 q -0.02015,-0.0775 -0.0279,-0.20463 z m 0.08527,-0.62942 q -0.08527,0.0403 -0.288354,0.062 -0.207739,0.0217 -0.285254,0.0558 -0.07751,0.0341 -0.120923,0.10387 -0.04341,0.0698 -0.04341,0.16123 0,0.12557 0.06976,0.19844 0.06976,0.0729 0.186035,0.0729 0.110071,0 0.21239,-0.0682 0.10232,-0.0682 0.165882,-0.19689 0.06511,-0.12867 0.103869,-0.38912 z"
         style="font-style:italic;stroke-width:0.99999994"
         id="path1245" />
      <path
         d="m 60.079746,113.8263 0.282153,-1.64641 h 0.203089 l -0.05736,0.33642 q 0.203088,-0.37362 0.407727,-0.37362 0.06976,0 0.170532,0.0605 l -0.09457,0.26045 q -0.06046,-0.0527 -0.127124,-0.0527 -0.127124,0 -0.254248,0.16743 -0.125574,0.16588 -0.196887,0.58756 l -0.114722,0.66042 z"
         style="font-style:italic;stroke-width:0.99999994"
         id="path1247" />
      <path
         d="m 61.200608,112.35818 0.0124,-0.43254 0.06356,-0.37207 h 0.262 l -0.06511,0.37207 -0.133325,0.43254 z m 0.420129,0 0.01395,-0.43254 0.06511,-0.37207 h 0.260449 l -0.06511,0.37207 -0.136426,0.43254 z"
         style="font-style:italic;stroke-width:0.99999994"
         id="path1249" />
      <path
         d="m 38.803524,117.08126 0.230994,-0.017 q -0.0016,0.20154 0.08837,0.30075 0.08992,0.0992 0.244947,0.0992 0.141076,0 0.223242,-0.0698 0.08216,-0.0713 0.08216,-0.18138 0,-0.0791 -0.05116,-0.14263 -0.05271,-0.0636 -0.227893,-0.15503 -0.201539,-0.10542 -0.266651,-0.16123 -0.06356,-0.0574 -0.09922,-0.13798 -0.03566,-0.0822 -0.03566,-0.18293 0,-0.20619 0.133325,-0.33952 0.133325,-0.13332 0.350366,-0.13332 0.240295,0 0.379822,0.13797 0.139526,0.13643 0.145727,0.38293 l -0.226342,0.0186 q -0.0047,-0.15503 -0.08992,-0.23874 -0.08372,-0.0837 -0.226343,-0.0837 -0.111621,0 -0.181384,0.0636 -0.06976,0.062 -0.06976,0.14418 0,0.0713 0.04186,0.12247 0.04186,0.0527 0.21239,0.14108 0.262,0.13797 0.333313,0.22014 0.108521,0.12867 0.108521,0.31316 0,0.20464 -0.145728,0.35192 -0.144177,0.14727 -0.401525,0.14727 -0.258899,0 -0.406177,-0.14882 -0.147278,-0.14883 -0.147278,-0.42013 z"
         style="font-style:italic;stroke-width:0.99999994"
         id="path1251" />
      <path
         d="m 40.133675,117.01925 q 0,-0.44494 0.199988,-0.75189 0.199988,-0.30696 0.536401,-0.30696 0.235645,0 0.389124,0.18138 0.153479,0.17984 0.153479,0.51315 0,0.30541 -0.10542,0.5457 -0.10387,0.2403 -0.271301,0.36122 -0.165882,0.11937 -0.348816,0.11937 -0.240296,0 -0.396875,-0.17673 -0.15658,-0.17828 -0.15658,-0.48524 z m 0.230994,-0.0279 q 0,0.2341 0.09302,0.35347 0.09302,0.11937 0.232543,0.11937 0.110071,0 0.220142,-0.0884 0.110071,-0.0899 0.192236,-0.29611 0.08217,-0.20619 0.08217,-0.42323 0,-0.23564 -0.09302,-0.35657 -0.09302,-0.12247 -0.229443,-0.12247 -0.119373,0 -0.232544,0.0884 -0.111621,0.0884 -0.189136,0.293 -0.07596,0.20309 -0.07596,0.43253 z"
         style="font-style:italic;stroke-width:0.99999994"
         id="path1253" />
      <path
         d="m 42.452914,117.40527 q -0.195337,0.27595 -0.412378,0.27595 -0.186035,0 -0.31626,-0.16898 -0.130224,-0.16898 -0.130224,-0.50694 0,-0.30231 0.103869,-0.55346 0.10387,-0.2527 0.255799,-0.37207 0.151928,-0.11937 0.302307,-0.11937 0.249597,0 0.376721,0.2961 l 0.151929,-0.88521 h 0.229443 l -0.389124,2.27273 h -0.21239 z m -0.629419,-0.45113 -0.0016,0.0667 q 0,0.20464 0.09457,0.33486 0.07286,0.10077 0.192236,0.10077 0.155029,0 0.283704,-0.19844 0.168981,-0.2651 0.168981,-0.65112 0,-0.19844 -0.08682,-0.30696 -0.08682,-0.10852 -0.206189,-0.10852 -0.116272,0 -0.218591,0.10387 -0.10232,0.10387 -0.164331,0.31161 -0.06201,0.20774 -0.06201,0.34727 z"
         style="font-style:italic;stroke-width:0.99999994"
         id="path1255" />
      <path
         d="m 43.321078,115.6891 0.05426,-0.31781 h 0.229444 l -0.05426,0.31781 z m -0.334863,1.95492 0.282153,-1.64641 h 0.229443 l -0.282153,1.64641 z"
         style="font-style:italic;stroke-width:0.99999994"
         id="path1257" />
      <path
         d="m 43.459054,118.27499 0.390674,-2.27738 h 0.21239 l -0.04031,0.22944 q 0.122473,-0.15503 0.215491,-0.21084 0.09302,-0.0558 0.195337,-0.0558 0.187585,0 0.31626,0.16898 0.130224,0.16898 0.130224,0.49454 0,0.30696 -0.10542,0.55966 -0.103869,0.2527 -0.275952,0.39067 -0.133325,0.10697 -0.279053,0.10697 -0.243396,0 -0.376721,-0.30075 l -0.153479,0.89452 z m 0.452685,-1.24954 q 0,0.20774 0.08372,0.31781 0.08527,0.10852 0.21239,0.10852 0.100769,0 0.176734,-0.0667 0.10852,-0.0961 0.187585,-0.31626 0.07906,-0.22169 0.07906,-0.44649 0,-0.21084 -0.08527,-0.32246 -0.08372,-0.11317 -0.204639,-0.11317 -0.09612,0 -0.195337,0.0868 -0.09922,0.0853 -0.176733,0.30231 -0.07752,0.21704 -0.07752,0.44958 z"
         style="font-style:italic;stroke-width:0.99999994"
         id="path1259" />
      <path
         d="m 45.063607,117.01925 q 0,-0.44494 0.199988,-0.75189 0.199988,-0.30696 0.536402,-0.30696 0.235644,0 0.389123,0.18138 0.153479,0.17984 0.153479,0.51315 0,0.30541 -0.10542,0.5457 -0.103869,0.2403 -0.271301,0.36122 -0.165881,0.11937 -0.348816,0.11937 -0.240295,0 -0.396875,-0.17673 -0.15658,-0.17828 -0.15658,-0.48524 z m 0.230994,-0.0279 q 0,0.2341 0.09302,0.35347 0.09302,0.11937 0.232544,0.11937 0.11007,0 0.220141,-0.0884 0.110071,-0.0899 0.192236,-0.29611 0.08217,-0.20619 0.08217,-0.42323 0,-0.23564 -0.09302,-0.35657 -0.09302,-0.12247 -0.229443,-0.12247 -0.119372,0 -0.232544,0.0884 -0.111621,0.0884 -0.189136,0.293 -0.07596,0.20309 -0.07596,0.43253 z"
         style="font-style:italic;stroke-width:0.99999994"
         id="path1261" />
      <path
         d="m 47.382845,117.40527 q -0.195337,0.27595 -0.412378,0.27595 -0.186035,0 -0.31626,-0.16898 -0.130224,-0.16898 -0.130224,-0.50694 0,-0.30231 0.103869,-0.55346 0.10387,-0.2527 0.255799,-0.37207 0.151928,-0.11937 0.302307,-0.11937 0.249597,0 0.376721,0.2961 l 0.151929,-0.88521 h 0.229443 l -0.389123,2.27273 h -0.212391 z m -0.629419,-0.45113 -0.0015,0.0667 q 0,0.20464 0.09457,0.33486 0.07286,0.10077 0.192236,0.10077 0.155029,0 0.283704,-0.19844 0.168982,-0.2651 0.168982,-0.65112 0,-0.19844 -0.08682,-0.30696 -0.08682,-0.10852 -0.206189,-0.10852 -0.116272,0 -0.218591,0.10387 -0.102319,0.10387 -0.164331,0.31161 -0.06201,0.20774 -0.06201,0.34727 z"
         style="font-style:italic;stroke-width:0.99999994"
         id="path1263" />
      <path
         d="m 48.25101,115.6891 0.05426,-0.31781 h 0.229443 l -0.05426,0.31781 z m -0.334864,1.95492 0.282154,-1.64641 h 0.229443 l -0.282153,1.64641 z"
         style="font-style:italic;stroke-width:0.99999994"
         id="path1265" />
      <path
         d="m 48.792062,116.31542 0.05426,-0.31781 h 0.260449 l -0.05426,0.31781 z m -0.227893,1.3286 0.05426,-0.31781 h 0.260449 l -0.05426,0.31781 z"
         style="font-style:italic;stroke-width:0.99999994"
         id="path1267" />
      <path
         d="m 49.240096,117.08126 0.230994,-0.017 q -0.0015,0.20154 0.08837,0.30075 0.08992,0.0992 0.244946,0.0992 0.141077,0 0.223242,-0.0698 0.08217,-0.0713 0.08217,-0.18138 0,-0.0791 -0.05116,-0.14263 -0.05271,-0.0636 -0.227893,-0.15503 -0.201538,-0.10542 -0.26665,-0.16123 -0.06356,-0.0574 -0.09922,-0.13798 -0.03566,-0.0822 -0.03566,-0.18293 0,-0.20619 0.133325,-0.33952 0.133326,-0.13332 0.350367,-0.13332 0.240295,0 0.379821,0.13797 0.139527,0.13643 0.145728,0.38293 l -0.226343,0.0186 q -0.0047,-0.15503 -0.08992,-0.23874 -0.08372,-0.0837 -0.226343,-0.0837 -0.111621,0 -0.181384,0.0636 -0.06976,0.062 -0.06976,0.14418 0,0.0713 0.04186,0.12247 0.04186,0.0527 0.21239,0.14108 0.261999,0.13797 0.333313,0.22014 0.10852,0.12867 0.10852,0.31316 0,0.20464 -0.145727,0.35192 -0.144177,0.14727 -0.401526,0.14727 -0.258899,0 -0.406177,-0.14882 -0.147278,-0.14883 -0.147278,-0.42013 z"
         style="font-style:italic;stroke-width:0.99999994"
         id="path1269" />
      <path
         d="m 50.855501,115.6891 0.05426,-0.31781 h 0.229443 l -0.05426,0.31781 z m -0.334863,1.95492 0.282153,-1.64641 h 0.229443 l -0.282153,1.64641 z"
         style="font-style:italic;stroke-width:0.99999994"
         id="path1271" />
      <path
         d="m 52.015121,117.40527 q -0.195337,0.27595 -0.412378,0.27595 -0.186035,0 -0.31626,-0.16898 -0.130225,-0.16898 -0.130225,-0.50694 0,-0.30231 0.10387,-0.55346 0.10387,-0.2527 0.255798,-0.37207 0.151929,-0.11937 0.302307,-0.11937 0.249598,0 0.376722,0.2961 l 0.151928,-0.88521 h 0.229444 l -0.389124,2.27273 h -0.21239 z m -0.629419,-0.45113 -0.0016,0.0667 q 0,0.20464 0.09457,0.33486 0.07286,0.10077 0.192237,0.10077 0.155029,0 0.283703,-0.19844 0.168982,-0.2651 0.168982,-0.65112 0,-0.19844 -0.08682,-0.30696 -0.08682,-0.10852 -0.206189,-0.10852 -0.116272,0 -0.218591,0.10387 -0.10232,0.10387 -0.164332,0.31161 -0.06201,0.20774 -0.06201,0.34727 z"
         style="font-style:italic;stroke-width:0.99999994"
         id="path1273" />
      <path
         d="m 53.548361,117.08436 0.224792,0.0279 q -0.05581,0.24029 -0.258899,0.41858 -0.168982,0.15037 -0.376721,0.15037 -0.147278,0 -0.268201,-0.0791 -0.120922,-0.0806 -0.192236,-0.23875 -0.07131,-0.15968 -0.07131,-0.37982 0,-0.2899 0.10852,-0.54105 0.110071,-0.25115 0.268201,-0.36587 0.15813,-0.11627 0.342615,-0.11627 0.234094,0 0.381372,0.17828 0.148828,0.17829 0.148828,0.50385 0,0.12092 -0.01705,0.24804 h -0.995288 q -0.0047,0.0496 -0.0047,0.0884 0,0.23255 0.08837,0.35347 0.08837,0.11937 0.21239,0.11937 0.117823,0 0.230994,-0.0946 0.114722,-0.0946 0.178284,-0.27285 z m -0.668176,-0.40773 h 0.758093 v -0.0574 q 0,-0.22014 -0.08682,-0.33021 -0.08682,-0.11007 -0.221691,-0.11007 -0.145728,0 -0.268201,0.12402 -0.120923,0.12403 -0.181384,0.37362 z"
         style="font-style:italic;stroke-width:0.99999994"
         id="path1275" />
      <path
         d="m 54.021201,117.08126 0.230993,-0.017 q -0.0016,0.20154 0.08837,0.30075 0.08992,0.0992 0.244946,0.0992 0.141077,0 0.223242,-0.0698 0.08217,-0.0713 0.08217,-0.18138 0,-0.0791 -0.05116,-0.14263 -0.05271,-0.0636 -0.227893,-0.15503 -0.201538,-0.10542 -0.26665,-0.16123 -0.06356,-0.0574 -0.09922,-0.13798 -0.03566,-0.0822 -0.03566,-0.18293 0,-0.20619 0.133325,-0.33952 0.133326,-0.13332 0.350367,-0.13332 0.240295,0 0.379821,0.13797 0.139527,0.13643 0.145728,0.38293 l -0.226343,0.0186 q -0.0047,-0.15503 -0.08992,-0.23874 -0.08372,-0.0837 -0.226343,-0.0837 -0.111621,0 -0.181384,0.0636 -0.06976,0.062 -0.06976,0.14418 0,0.0713 0.04186,0.12247 0.04186,0.0527 0.21239,0.14108 0.262,0.13797 0.333313,0.22014 0.108521,0.12867 0.108521,0.31316 0,0.20464 -0.145728,0.35192 -0.144177,0.14727 -0.401526,0.14727 -0.258899,0 -0.406177,-0.14882 -0.147277,-0.14883 -0.147277,-0.42013 z"
         style="font-style:italic;stroke-width:0.99999994"
         id="path1277" />
      <path
         d="m 56.599338,116.30766 h -1.230933 v -0.26044 h 1.230933 z m 0,0.68988 h -1.230933 v -0.26044 h 1.230933 z"
         style="font-style:italic;stroke-width:0.99999994"
         id="path1279" />
      <path
         d="m 57.083029,116.17589 0.0124,-0.43253 0.06356,-0.37207 h 0.261999 l -0.06511,0.37207 -0.133325,0.43253 z m 0.42013,0 0.01395,-0.43253 0.06511,-0.37207 h 0.26045 l -0.06511,0.37207 -0.136425,0.43253 z"
         style="font-style:italic;stroke-width:0.99999994"
         id="path1281" />
      <path
         d="m 57.850423,116.99444 0.234094,-0.0279 -0.0031,0.0729 q 0,0.11317 0.04651,0.21704 0.04806,0.10387 0.117822,0.15348 0.07131,0.0496 0.150379,0.0496 0.09767,0 0.204638,-0.0822 0.106971,-0.0822 0.182935,-0.25425 0.07596,-0.17208 0.07596,-0.35657 0,-0.19689 -0.09457,-0.30851 -0.09457,-0.11162 -0.238746,-0.11162 -0.201538,0 -0.358117,0.23565 l -0.199988,-0.0171 0.279053,-1.16272 h 0.910022 l -0.04341,0.25735 h -0.708483 l -0.139527,0.57826 q 0.15658,-0.13953 0.333313,-0.13953 0.206189,0 0.347266,0.16899 0.141076,0.16743 0.141076,0.47439 0,0.42323 -0.226342,0.70228 -0.193787,0.23874 -0.482141,0.23874 -0.147278,0 -0.265101,-0.0744 -0.116272,-0.076 -0.190686,-0.22944 -0.07441,-0.15503 -0.07441,-0.33642 z"
         style="font-style:italic;stroke-width:0.99999994"
         id="path1283" />
      <path
         d="m 59.458077,116.17589 0.0124,-0.43253 0.06356,-0.37207 h 0.262 l -0.06511,0.37207 -0.133325,0.43253 z m 0.420129,0 0.01395,-0.43253 0.06511,-0.37207 h 0.260449 l -0.06511,0.37207 -0.136426,0.43253 z"
         style="font-style:italic;stroke-width:0.99999994"
         id="path1285" />
      <path
         d="m 38.854684,121.46173 0.05426,-0.31781 h 0.260449 l -0.05426,0.31781 z"
         style="font-style:italic;stroke-width:0.99999994"
         id="path1287" />
      <path
         d="m 39.580221,121.46173 0.05426,-0.31781 h 0.260449 l -0.05426,0.31781 z"
         style="font-style:italic;stroke-width:0.99999994"
         id="path1289" />
      <path
         d="m 40.305758,121.46173 0.05426,-0.31781 h 0.26045 l -0.05426,0.31781 z"
         style="font-style:italic;stroke-width:0.99999994"
         id="path1291" />
      <path
         d="m 41.031295,121.46173 0.05426,-0.31781 h 0.260449 l -0.05426,0.31781 z"
         style="font-style:italic;stroke-width:0.99999994"
         id="path1293" />
      <path
         d="m 41.756832,121.46173 0.05426,-0.31781 h 0.260449 l -0.05426,0.31781 z"
         style="font-style:italic;stroke-width:0.99999994"
         id="path1295" />
      <path
         d="m 42.48237,121.46173 0.05426,-0.31781 h 0.260449 l -0.05426,0.31781 z"
         style="font-style:italic;stroke-width:0.99999994"
         id="path1297" />
      <path
         d="m 39.699593,125.0407 q -0.195337,0.27595 -0.412378,0.27595 -0.186035,0 -0.316259,-0.16898 -0.130225,-0.16898 -0.130225,-0.50695 0,-0.3023 0.10387,-0.55345 0.103869,-0.2527 0.255798,-0.37207 0.151929,-0.11938 0.302307,-0.11938 0.249597,0 0.376721,0.29611 l 0.151929,-0.88522 h 0.229443 l -0.389123,2.27273 h -0.21239 z m -0.629419,-0.45114 -0.0016,0.0667 q 0,0.20463 0.09457,0.33486 0.07286,0.10077 0.192236,0.10077 0.15503,0 0.283704,-0.19844 0.168982,-0.2651 0.168982,-0.65112 0,-0.19844 -0.08682,-0.30696 -0.08682,-0.10852 -0.206189,-0.10852 -0.116272,0 -0.218591,0.10387 -0.102319,0.10387 -0.164331,0.31161 -0.06201,0.20774 -0.06201,0.34726 z"
         style="font-style:italic;stroke-width:0.99999994"
         id="path1299" />
      <path
         d="m 41.53049,123.94309 h -1.230933 v -0.26045 h 1.230933 z m 0,0.68988 h -1.230933 v -0.26045 h 1.230933 z"
         style="font-style:italic;stroke-width:0.99999994"
         id="path1301" />
      <path
         d="m 42.014181,123.81132 0.0124,-0.43254 0.06356,-0.37207 h 0.261999 l -0.06511,0.37207 -0.133325,0.43254 z m 0.420129,0 0.01395,-0.43254 0.06511,-0.37207 h 0.260449 l -0.06511,0.37207 -0.136426,0.43254 z"
         style="font-style:italic;stroke-width:0.99999994"
         id="path1303" />
      <path
         d="m 42.682357,125.27944 0.282154,-1.64641 h 0.229443 l -0.04651,0.2713 q 0.133325,-0.18293 0.234094,-0.24494 0.100769,-0.0636 0.213941,-0.0636 0.124023,0 0.209289,0.0791 0.08527,0.0791 0.113172,0.22944 0.102319,-0.15503 0.217041,-0.23099 0.114721,-0.0775 0.240295,-0.0775 0.15968,0 0.248047,0.0946 0.08992,0.0946 0.08992,0.2744 0,0.0791 -0.03101,0.25425 l -0.181384,1.0604 h -0.229444 l 0.186036,-1.0883 q 0.02325,-0.13333 0.02325,-0.19224 0,-0.0837 -0.04341,-0.12712 -0.04341,-0.045 -0.116272,-0.045 -0.09612,0 -0.201538,0.0713 -0.10542,0.0698 -0.168982,0.19379 -0.06201,0.12247 -0.108521,0.38912 l -0.136425,0.7984 h -0.230994 l 0.190686,-1.11156 q 0.02015,-0.11317 0.02015,-0.16278 0,-0.0822 -0.04341,-0.13022 -0.04186,-0.0481 -0.10542,-0.0481 -0.153479,0 -0.291455,0.15658 -0.136426,0.15503 -0.198438,0.5178 l -0.134875,0.77824 z"
         style="font-style:italic;stroke-width:0.99999994"
         id="path1305" />
      <path
         d="m 45.637216,124.68413 0.224792,-0.0341 q 0.0248,0.2434 0.113172,0.34417 0.08837,0.10077 0.226342,0.10077 0.162781,0 0.289905,-0.14418 0.128675,-0.14418 0.128675,-0.34261 0,-0.17829 -0.09612,-0.28371 -0.09612,-0.10542 -0.246496,-0.10542 -0.0186,0 -0.07286,0.006 l 0.03876,-0.23409 q 0.03256,0.006 0.06356,0.006 0.186036,0 0.297657,-0.11162 0.111621,-0.11317 0.111621,-0.29456 0,-0.16123 -0.08992,-0.2651 -0.08992,-0.10387 -0.206189,-0.10387 -0.124024,0 -0.224793,0.10852 -0.09922,0.10698 -0.127124,0.31006 l -0.226343,-0.0558 q 0.05736,-0.28835 0.218592,-0.43718 0.162781,-0.15038 0.37207,-0.15038 0.218591,0 0.365869,0.16278 0.147278,0.16278 0.147278,0.42323 0,0.17829 -0.07752,0.31316 -0.07596,0.13333 -0.230993,0.22169 0.10852,0.0791 0.162781,0.19379 0.05426,0.11317 0.05426,0.26045 0,0.31161 -0.192237,0.52865 -0.192236,0.21704 -0.443383,0.21704 -0.240296,0 -0.401526,-0.16588 -0.161231,-0.16588 -0.179834,-0.46819 z"
         style="font-style:italic;stroke-width:0.99999994"
         id="path1307" />
      <path
         d="m 47.469662,123.96169 q 0.09767,-0.0977 0.192236,-0.14572 0.09612,-0.0496 0.189136,-0.0496 0.207739,0 0.348815,0.17363 0.141077,0.17208 0.141077,0.47904 0,0.39688 -0.21394,0.67128 -0.178284,0.22789 -0.42323,0.22789 -0.224793,0 -0.382923,-0.20154 -0.158129,-0.20309 -0.158129,-0.59531 0,-0.35037 0.10852,-0.74414 0.110071,-0.39533 0.313159,-0.60617 0.168982,-0.17363 0.390674,-0.17363 0.186035,0 0.308508,0.14108 0.122473,0.14108 0.141077,0.41858 l -0.21394,0.0248 q -0.03566,-0.34881 -0.252698,-0.34881 -0.09457,0 -0.176734,0.0713 -0.124023,0.10542 -0.203088,0.30076 -0.07906,0.19533 -0.10852,0.35656 z m -0.08062,0.67903 q 0,0.19689 0.09922,0.32556 0.09922,0.12868 0.220142,0.12868 0.139526,0 0.261999,-0.17053 0.151929,-0.20774 0.151929,-0.47904 0,-0.20774 -0.09457,-0.33022 -0.09457,-0.12402 -0.223242,-0.12402 -0.151929,0 -0.283704,0.17983 -0.131775,0.17829 -0.131775,0.46974 z"
         style="font-style:italic;stroke-width:0.99999994"
         id="path1309" />
      <path
         d="m 48.547116,125.27944 0.05426,-0.31781 h 0.260449 l -0.05426,0.31781 z"
         style="font-style:italic;stroke-width:0.99999994"
         id="path1311" />
      <path
         d="m 49.750143,125.27944 0.294556,-1.71617 q -0.189136,0.18293 -0.536402,0.293 l 0.04341,-0.25424 q 0.221691,-0.10852 0.443383,-0.30851 0.168982,-0.15038 0.241846,-0.29611 h 0.134876 l -0.390674,2.28203 z"
         style="font-style:italic;stroke-width:0.99999994"
         id="path1313" />
      <path
         d="m 50.965572,125.27944 0.294556,-1.71617 q -0.189136,0.18293 -0.536401,0.293 l 0.04341,-0.25424 q 0.221692,-0.10852 0.443384,-0.30851 0.168982,-0.15038 0.241845,-0.29611 h 0.134876 l -0.390674,2.28203 z"
         style="font-style:italic;stroke-width:0.99999994"
         id="path1315" />
      <path
         d="m 51.971713,124.62987 0.234094,-0.0279 -0.0031,0.0729 q 0,0.11317 0.04651,0.21704 0.04806,0.10387 0.117823,0.15348 0.07131,0.0496 0.150378,0.0496 0.09767,0 0.204639,-0.0822 0.10697,-0.0822 0.182934,-0.25425 0.07596,-0.17208 0.07596,-0.35656 0,-0.19689 -0.09457,-0.30851 -0.09457,-0.11162 -0.238745,-0.11162 -0.201538,0 -0.358118,0.23564 l -0.199988,-0.017 0.279053,-1.16272 h 0.910022 l -0.04341,0.25735 h -0.708484 l -0.139527,0.57826 q 0.15658,-0.13953 0.333313,-0.13953 0.206189,0 0.347266,0.16898 0.141077,0.16743 0.141077,0.47439 0,0.42323 -0.226343,0.70229 -0.193787,0.23874 -0.482141,0.23874 -0.147278,0 -0.2651,-0.0744 -0.116272,-0.076 -0.190686,-0.22945 -0.07441,-0.15503 -0.07441,-0.33641 z"
         style="font-style:italic;stroke-width:0.99999994"
         id="path1317" />
      <path
         d="m 53.763852,123.96169 q 0.09767,-0.0977 0.192236,-0.14572 0.09612,-0.0496 0.189136,-0.0496 0.207739,0 0.348816,0.17363 0.141077,0.17208 0.141077,0.47904 0,0.39688 -0.213941,0.67128 -0.178284,0.22789 -0.42323,0.22789 -0.224792,0 -0.382922,-0.20154 -0.15813,-0.20309 -0.15813,-0.59531 0,-0.35037 0.10852,-0.74414 0.110071,-0.39533 0.31316,-0.60617 0.168982,-0.17363 0.390673,-0.17363 0.186036,0 0.308509,0.14108 0.122473,0.14108 0.141076,0.41858 l -0.21394,0.0248 q -0.03566,-0.34881 -0.252698,-0.34881 -0.09457,0 -0.176733,0.0713 -0.124024,0.10542 -0.203089,0.30076 -0.07906,0.19533 -0.10852,0.35656 z m -0.08062,0.67903 q 0,0.19689 0.09922,0.32556 0.09922,0.12868 0.220142,0.12868 0.139526,0 0.262,-0.17053 0.151928,-0.20774 0.151928,-0.47904 0,-0.20774 -0.09457,-0.33022 -0.09457,-0.12402 -0.223242,-0.12402 -0.151929,0 -0.283703,0.17983 -0.131775,0.17829 -0.131775,0.46974 z"
         style="font-style:italic;stroke-width:0.99999994"
         id="path1319" />
      <path
         d="m 54.844405,125.27944 q 0.04961,-0.29145 0.179834,-0.48679 0.09767,-0.14728 0.486792,-0.5271 0.237194,-0.22944 0.325561,-0.37207 0.08992,-0.14418 0.08992,-0.2961 0,-0.16279 -0.09457,-0.26821 -0.09302,-0.10697 -0.220141,-0.10697 -0.130225,0 -0.227893,0.11008 -0.09767,0.11007 -0.139527,0.35656 l -0.224792,-0.0403 q 0.03411,-0.31315 0.195337,-0.48214 0.16278,-0.16898 0.392224,-0.16898 0.252697,0 0.399975,0.17518 0.147278,0.17519 0.147278,0.43409 0,0.23099 -0.134875,0.43873 -0.08372,0.13022 -0.47439,0.5085 -0.293005,0.28215 -0.379822,0.46818 h 0.834058 l -0.04496,0.25735 z"
         style="font-style:italic;stroke-width:0.99999994"
         id="path1321" />
      <path
         d="m 56.921798,125.27944 0.09922,-0.57981 h -0.759643 l 0.04806,-0.2775 1.043347,-1.41542 h 0.189136 l -0.248047,1.44488 h 0.261999 l -0.04186,0.24804 H 57.25046 l -0.09922,0.57981 z m 0.142627,-0.82785 0.16123,-0.94878 -0.692981,0.94878 z"
         style="font-style:italic;stroke-width:0.99999994"
         id="path1323" />
      <path
         d="m 57.735702,125.27944 0.05426,-0.31781 h 0.262 l -0.04651,0.27751 q -0.07906,0.46043 -0.348816,0.49919 l 0.0217,-0.12247 q 0.150378,-0.0512 0.199988,-0.33642 z"
         style="font-style:italic;stroke-width:0.99999994"
         id="path1325" />
      <path
         d="m 58.946482,125.27944 0.294555,-1.71617 q -0.189135,0.18293 -0.536401,0.293 l 0.04341,-0.25424 q 0.221692,-0.10852 0.443384,-0.30851 0.168982,-0.15038 0.241846,-0.29611 h 0.134875 l -0.390674,2.28203 z"
         style="font-style:italic;stroke-width:0.99999994"
         id="path1327" />
      <path
         d="m 60.147957,125.27944 q 0.04031,-0.2961 0.173633,-0.68988 0.133325,-0.39377 0.31471,-0.72863 0.182934,-0.33487 0.379821,-0.56586 h -0.930175 l 0.04496,-0.25735 h 1.190625 l -0.04496,0.25735 q -0.293005,0.31471 -0.510046,0.7922 -0.275952,0.61081 -0.378271,1.19217 z"
         style="font-style:italic;stroke-width:0.99999994"
         id="path1329" />
      <path
         d="m 61.405245,124.53375 q 0,-0.42943 0.137976,-0.8294 0.137976,-0.40153 0.333313,-0.57516 0.147278,-0.13178 0.31626,-0.13178 0.20929,0 0.355017,0.19069 0.145728,0.18913 0.145728,0.55965 0,0.36587 -0.09302,0.72399 -0.117822,0.45424 -0.331763,0.67903 -0.15968,0.16743 -0.365869,0.16743 -0.204638,0 -0.351916,-0.19689 -0.145728,-0.19843 -0.145728,-0.58756 z m 0.223242,0.0713 q 0,0.25424 0.08062,0.37207 0.08217,0.11782 0.206189,0.11782 0.128674,0 0.230993,-0.13178 0.170532,-0.21704 0.249597,-0.62632 0.07906,-0.40927 0.07906,-0.65422 0,-0.2465 -0.07906,-0.35347 -0.07751,-0.10697 -0.203088,-0.10697 -0.136426,0 -0.241846,0.13023 -0.148828,0.18603 -0.235644,0.60616 -0.08682,0.41858 -0.08682,0.64648 z"
         style="font-style:italic;stroke-width:0.99999994"
         id="path1331" />
      <path
         d="m 62.822213,125.27944 0.05426,-0.31781 h 0.260449 l -0.05426,0.31781 z"
         style="font-style:italic;stroke-width:0.99999994"
         id="path1333" />
      <path
         d="m 63.55085,125.27944 q 0.04961,-0.29145 0.179834,-0.48679 0.09767,-0.14728 0.486792,-0.5271 0.237195,-0.22944 0.325562,-0.37207 0.08992,-0.14418 0.08992,-0.2961 0,-0.16279 -0.09457,-0.26821 -0.09302,-0.10697 -0.220142,-0.10697 -0.130224,0 -0.227893,0.11008 -0.09767,0.11007 -0.139526,0.35656 l -0.224793,-0.0403 q 0.03411,-0.31315 0.195337,-0.48214 0.162781,-0.16898 0.392224,-0.16898 0.252698,0 0.399976,0.17518 0.147278,0.17519 0.147278,0.43409 0,0.23099 -0.134876,0.43873 -0.08371,0.13022 -0.474389,0.5085 -0.293006,0.28215 -0.379822,0.46818 h 0.834058 l -0.04496,0.25735 z"
         style="font-style:italic;stroke-width:0.99999994"
         id="path1335" />
      <path
         d="m 65.03138,124.62987 0.234095,-0.0279 -0.0031,0.0729 q 0,0.11317 0.04651,0.21704 0.04806,0.10387 0.117822,0.15348 0.07131,0.0496 0.150379,0.0496 0.09767,0 0.204638,-0.0822 0.10697,-0.0822 0.182935,-0.25425 0.07596,-0.17208 0.07596,-0.35656 0,-0.19689 -0.09457,-0.30851 -0.09457,-0.11162 -0.238745,-0.11162 -0.201538,0 -0.358117,0.23564 l -0.199988,-0.017 0.279052,-1.16272 h 0.910022 l -0.04341,0.25735 h -0.708484 l -0.139526,0.57826 q 0.15658,-0.13953 0.333313,-0.13953 0.206189,0 0.347266,0.16898 0.141076,0.16743 0.141076,0.47439 0,0.42323 -0.226343,0.70229 -0.193786,0.23874 -0.482141,0.23874 -0.147277,0 -0.2651,-0.0744 -0.116272,-0.076 -0.190686,-0.22945 -0.07441,-0.15503 -0.07441,-0.33641 z"
         style="font-style:italic;stroke-width:0.99999994"
         id="path1337" />
      <path
         d="m 66.474702,124.75854 0.21549,-0.0263 q 0.04186,0.35192 0.249598,0.35192 0.136425,0 0.249597,-0.14418 0.164331,-0.20774 0.240295,-0.58291 -0.122473,0.11162 -0.21239,0.15348 -0.08992,0.0419 -0.175183,0.0419 -0.193787,0 -0.337964,-0.17519 -0.144177,-0.17673 -0.144177,-0.48679 0,-0.34261 0.176733,-0.61702 0.176734,-0.27595 0.461987,-0.27595 0.226343,0 0.381373,0.20464 0.155029,0.20464 0.155029,0.59221 0,0.45424 -0.136426,0.84181 -0.134875,0.38602 -0.308508,0.53485 -0.173633,0.14728 -0.362769,0.14728 -0.186035,0 -0.311609,-0.14263 -0.125573,-0.14262 -0.141076,-0.41703 z m 0.306958,-0.89917 q 0,0.2186 0.09457,0.34417 0.09457,0.12402 0.220141,0.12402 0.173633,0 0.302307,-0.21704 0.116272,-0.19688 0.116272,-0.42478 0,-0.13642 -0.04806,-0.24649 -0.04806,-0.11008 -0.122473,-0.16279 -0.07441,-0.0543 -0.151929,-0.0543 -0.08837,0 -0.182934,0.0744 -0.09302,0.0744 -0.161231,0.23564 -0.06666,0.15968 -0.06666,0.32711 z"
         style="font-style:italic;stroke-width:0.99999994"
         id="path1339" />
      <path
         d="m 67.893222,124.68413 0.224793,-0.0341 q 0.0248,0.2434 0.113171,0.34417 0.08837,0.10077 0.226343,0.10077 0.16278,0 0.289904,-0.14418 0.128675,-0.14418 0.128675,-0.34261 0,-0.17829 -0.09612,-0.28371 -0.09612,-0.10542 -0.246497,-0.10542 -0.0186,0 -0.07286,0.006 l 0.03876,-0.23409 q 0.03256,0.006 0.06356,0.006 0.186035,0 0.297656,-0.11162 0.111621,-0.11317 0.111621,-0.29456 0,-0.16123 -0.08992,-0.2651 -0.08992,-0.10387 -0.206189,-0.10387 -0.124023,0 -0.224792,0.10852 -0.09922,0.10698 -0.127125,0.31006 l -0.226342,-0.0558 q 0.05736,-0.28835 0.218591,-0.43718 0.162781,-0.15038 0.37207,-0.15038 0.218592,0 0.365869,0.16278 0.147278,0.16278 0.147278,0.42323 0,0.17829 -0.07751,0.31316 -0.07596,0.13333 -0.230994,0.22169 0.10852,0.0791 0.162781,0.19379 0.05426,0.11317 0.05426,0.26045 0,0.31161 -0.192236,0.52865 -0.192237,0.21704 -0.443384,0.21704 -0.240296,0 -0.401526,-0.16588 -0.16123,-0.16588 -0.179834,-0.46819 z"
         style="font-style:italic;stroke-width:0.99999994"
         id="path1341" />
      <path
         d="m 69.579939,125.27944 q 0.04031,-0.2961 0.173633,-0.68988 0.133325,-0.39377 0.31471,-0.72863 0.182934,-0.33487 0.379821,-0.56586 h -0.930175 l 0.04496,-0.25735 h 1.190625 l -0.04496,0.25735 q -0.293006,0.31471 -0.510047,0.7922 -0.275952,0.61081 -0.378271,1.19217 z"
         style="font-style:italic;stroke-width:0.99999994"
         id="path1343" />
      <path
         d="m 71.528659,125.27944 0.05426,-0.31781 h 0.26045 l -0.05426,0.31781 z"
         style="font-style:italic;stroke-width:0.99999994"
         id="path1345" />
      <path
         d="m 72.254195,125.27944 0.05426,-0.31781 h 0.260449 l -0.05426,0.31781 z"
         style="font-style:italic;stroke-width:0.99999994"
         id="path1347" />
      <path
         d="m 72.979732,125.27944 0.05426,-0.31781 h 0.260449 l -0.05426,0.31781 z"
         style="font-style:italic;stroke-width:0.99999994"
         id="path1349" />
      <path
         d="m 73.894408,123.81132 0.0124,-0.43254 0.06356,-0.37207 h 0.262 l -0.06511,0.37207 -0.133325,0.43254 z m 0.420129,0 0.01395,-0.43254 0.06511,-0.37207 h 0.260449 l -0.06511,0.37207 -0.136426,0.43254 z"
         style="font-style:italic;stroke-width:0.99999994"
         id="path1351" />
      <path
         d="m 75.071078,125.31665 1.001489,-2.34869 h 0.199988 l -1.001489,2.34869 z"
         style="font-style:italic;stroke-width:0.99999994"
         id="path1353" />
      <path
         d="m 77.305049,124.28571 -1.234033,0.64337 v -0.27751 l 0.978235,-0.49454 -0.978235,-0.48989 v -0.2775 l 1.234033,0.63562 z"
         style="font-style:italic;stroke-width:0.99999994"
         id="path1355" />
    </g>
    <path
       style="opacity:1;vector-effect:none;fill:none;fill-opacity:1;fill-rule:evenodd;stroke:#808080;stroke-width:0.26458332;stroke-linecap:square;stroke-linejoin:miter;stroke-miterlimit:4;stroke-dasharray:none;stroke-dashoffset:0;stroke-opacity:1;paint-order:markers stroke fill"
       d="M 7.4691188,86.302673 H 78.338612 c 1.40716,0 2.54,1.13284 2.54,2.540001 v 37.482666 c 0,1.40716 -1.13284,2.54001 -2.54,2.54001 H 7.4691188 c -1.4071601,0 -2.5400002,-1.13285 -2.5400002,-2.54001 V 88.842674 c 0,-1.407161 1.1328401,-2.540001 2.5400002,-2.540001 z"
       id="rect5575" />
    <path
       style="opacity:1;vector-effect:none;fill:none;fill-opacity:1;stroke:#bf2e1a;stroke-width:0.13229169;stroke-linecap:butt;stroke-linejoin:miter;stroke-miterlimit:4;stroke-dasharray:0.52916674, 0.52916674;stroke-dashoffset:0;stroke-opacity:1"
       d="m 22.239754,90.336495 c 10.383419,0 14.171491,4.16781 16.346641,10.362575"
       id="path4365"
       inkscape:connector-curvature="0"
       sodipodi:nodetypes="cc" />
  </g>
</svg>
